Tienne-Heavy.ufo
<glyph name="exclam" format="1">
  <advance width="791"/>
  <unicode hex="0021"/>
  <outline>
    <contour>
      <point x="610" y="167" type="qcurve" smooth="yes"/>
      <point x="610" y="125"/>
      <point x="582" y="54"/>
      <point x="529" y="5"/>
      <point x="455" y="-22"/>
      <point x="365" y="-22"/>
      <point x="328" y="-8.5" type="qcurve" smooth="yes"/>
      <point x="290" y="6"/>
      <point x="264" y="30" type="qcurve" smooth="yes"/>
      <point x="210" y="80"/>
      <point x="210" y="169" type="qcurve" smooth="yes"/>
      <point x="210" y="254"/>
      <point x="324" y="358"/>
      <point x="496" y="357"/>
      <point x="554" y="303" type="qcurve" smooth="yes"/>
      <point x="610" y="250"/>
    </contour>
    <contour>
      <point x="377" y="1412"/>
      <point x="448" y="1412"/>
      <point x="526" y="1408"/>
      <point x="555" y="1397" type="qcurve" smooth="yes"/>
      <point x="619" y="1373"/>
      <point x="619" y="1296" type="qcurve" smooth="yes"/>
      <point x="619" y="1281" type="line" smooth="yes"/>
      <point x="619" y="1273"/>
      <point x="600" y="1124" type="qcurve" smooth="yes"/>
      <point x="536" y="620"/>
      <point x="518" y="470" type="qcurve"/>
      <point x="481" y="448"/>
      <point x="387" y="448"/>
      <point x="329" y="454"/>
      <point x="311" y="464" type="qcurve" smooth="yes"/>
      <point x="278" y="483"/>
      <point x="272" y="547" type="qcurve"/>
      <point x="248" y="767"/>
      <point x="217" y="951" type="qcurve" smooth="yes"/>
      <point x="166" y="1254"/>
      <point x="166" y="1340"/>
      <point x="220" y="1387"/>
      <point x="295" y="1408"/>
    </contour>
  </outline>
</glyph>
<glyph name="quotedbl" format="1">
  <advance width="1009"/>
  <unicode hex="0022"/>
  <outline>
    <contour>
      <point x="110" y="1370" type="line" smooth="no"/>
      <point x="155" y="1397"/>
      <point x="216" y="1411"/>
      <point x="292" y="1411" type="curve" smooth="yes"/>
      <point x="369" y="1410"/>
      <point x="419" y="1398"/>
      <point x="440" y="1374" type="curve" smooth="yes"/>
      <point x="448" y="1365"/>
      <point x="452" y="1352"/>
      <point x="452" y="1336" type="curve" smooth="no"/>
      <point x="420" y="1051"/>
      <point x="403" y="902"/>
      <point x="402" y="891" type="curve" smooth="no"/>
      <point x="362" y="877"/>
      <point x="322" y="870"/>
      <point x="281" y="870" type="curve" smooth="yes"/>
      <point x="206" y="870"/>
      <point x="164" y="899"/>
      <point x="154" y="957" type="curve" smooth="no"/>
    </contour>
    <contour>
      <point x="557" y="1370" type="line" smooth="no"/>
      <point x="602" y="1397"/>
      <point x="663" y="1411"/>
      <point x="739" y="1411" type="curve" smooth="yes"/>
      <point x="816" y="1410"/>
      <point x="865" y="1398"/>
      <point x="886" y="1374" type="curve" smooth="yes"/>
      <point x="894" y="1365"/>
      <point x="898" y="1352"/>
      <point x="899" y="1336" type="curve" smooth="no"/>
      <point x="867" y="1051"/>
      <point x="850" y="902"/>
      <point x="849" y="891" type="curve" smooth="no"/>
      <point x="809" y="877"/>
      <point x="769" y="870"/>
      <point x="728" y="870" type="curve" smooth="yes"/>
      <point x="653" y="870"/>
      <point x="611" y="899"/>
      <point x="601" y="957" type="curve" smooth="no"/>
    </contour>
  </outline>
</glyph>
<glyph name="numbersign" format="1">
  <advance width="1167"/>
  <unicode hex="0023"/>
  <outline>
    <contour>
      <point x="436" y="588" type="line" smooth="no"/>
      <point x="680" y="588" type="line" smooth="no"/>
      <point x="732" y="834" type="line" smooth="no"/>
      <point x="488" y="834" type="line" smooth="no"/>
    </contour>
    <contour>
      <point x="1120" y="926" type="line" smooth="yes"/>
      <point x="1120" y="851"/>
      <point x="1110" y="834"/>
      <point x="1039" y="834" type="curve" smooth="yes"/>
      <point x="894" y="834" type="line" smooth="no"/>
      <point x="841" y="588" type="line" smooth="no"/>
      <point x="1048" y="588" type="line" smooth="no"/>
      <point x="1048" y="510" type="line" smooth="yes"/>
      <point x="1048" y="463"/>
      <point x="1035" y="446"/>
      <point x="996" y="438" type="curve" smooth="no"/>
      <point x="811" y="438" type="line" smooth="no"/>
      <point x="736" y="72" type="line" smooth="no"/>
      <point x="676" y="72" type="line" smooth="yes"/>
      <point x="632" y="72"/>
      <point x="590" y="80"/>
      <point x="590" y="116" type="curve" smooth="yes"/>
      <point x="590" y="135"/>
      <point x="592" y="152"/>
      <point x="595" y="167" type="curve" smooth="yes"/>
      <point x="650" y="438" type="line" smooth="no"/>
      <point x="406" y="438" type="line" smooth="no"/>
      <point x="330" y="72" type="line" smooth="no"/>
      <point x="260" y="72" type="line" smooth="yes"/>
      <point x="221" y="72"/>
      <point x="182" y="75"/>
      <point x="182" y="104" type="curve" smooth="no"/>
      <point x="183" y="127"/>
      <point x="185" y="148"/>
      <point x="190" y="167" type="curve" smooth="no"/>
      <point x="246" y="438" type="line" smooth="no"/>
      <point x="46" y="438" type="line" smooth="no"/>
      <point x="46" y="498" type="line" smooth="yes"/>
      <point x="46" y="571"/>
      <point x="60" y="588"/>
      <point x="127" y="588" type="curve" smooth="yes"/>
      <point x="274" y="588" type="line" smooth="no"/>
      <point x="325" y="834" type="line" smooth="no"/>
      <point x="119" y="834" type="line" smooth="no"/>
      <point x="119" y="913" type="line" smooth="yes"/>
      <point x="119" y="973"/>
      <point x="140" y="985"/>
      <point x="201" y="985" type="curve" smooth="yes"/>
      <point x="357" y="985" type="line" smooth="no"/>
      <point x="432" y="1345" type="line" smooth="no"/>
      <point x="493" y="1345" type="line" smooth="yes"/>
      <point x="538" y="1345"/>
      <point x="581" y="1338"/>
      <point x="581" y="1300" type="curve" smooth="yes"/>
      <point x="581" y="1282"/>
      <point x="578" y="1259"/>
      <point x="572" y="1231" type="curve" smooth="yes"/>
      <point x="520" y="985" type="line" smooth="no"/>
      <point x="761" y="985" type="line" smooth="no"/>
      <point x="838" y="1345" type="line" smooth="no"/>
      <point x="897" y="1345" type="line" smooth="yes"/>
      <point x="946" y="1345"/>
      <point x="984" y="1337"/>
      <point x="984" y="1294" type="curve" smooth="yes"/>
      <point x="984" y="1276"/>
      <point x="981" y="1252"/>
      <point x="974" y="1223" type="curve" smooth="yes"/>
      <point x="923" y="985" type="line" smooth="no"/>
      <point x="1120" y="985" type="line" smooth="no"/>
    </contour>
  </outline>
</glyph>
<glyph name="dollar" format="1">
  <advance width="1336"/>
  <unicode hex="0024"/>
  <outline>
    <contour>
      <point x="731" y="163" type="line" smooth="no"/>
      <point x="787" y="188"/>
      <point x="818" y="261"/>
      <point x="818" y="342" type="curve" smooth="yes"/>
      <point x="818" y="417"/>
      <point x="789" y="479"/>
      <point x="731" y="526" type="curve" smooth="no"/>
    </contour>
    <contour>
      <point x="628" y="1237" type="line" smooth="no"/>
      <point x="566" y="1222"/>
      <point x="535" y="1170"/>
      <point x="535" y="1083" type="curve" smooth="yes"/>
      <point x="535" y="996"/>
      <point x="566" y="932"/>
      <point x="628" y="891" type="curve" smooth="no"/>
    </contour>
    <contour>
      <point x="106" y="1032" type="curve" smooth="yes"/>
      <point x="106" y="1282"/>
      <point x="367" y="1391"/>
      <point x="628" y="1408" type="curve" smooth="no"/>
      <point x="628" y="1534" type="line" smooth="no"/>
      <point x="696" y="1534"/>
      <point x="731" y="1522"/>
      <point x="731" y="1458" type="curve" smooth="yes"/>
      <point x="731" y="1412" type="line" smooth="no"/>
      <point x="897" y="1412"/>
      <point x="1027" y="1387"/>
      <point x="1121" y="1337" type="curve" smooth="yes"/>
      <point x="1151" y="1321"/>
      <point x="1174" y="1303"/>
      <point x="1191" y="1283" type="curve" smooth="yes"/>
      <point x="1192" y="1282"/>
      <point x="1192" y="1280"/>
      <point x="1192" y="1277" type="curve" smooth="yes"/>
      <point x="1192" y="1255"/>
      <point x="1185" y="1236"/>
      <point x="1179" y="1208" type="curve" smooth="yes"/>
      <point x="1166" y="1153"/>
      <point x="1150" y="1087"/>
      <point x="1129" y="1010" type="curve" smooth="no"/>
      <point x="826" y="1082" type="line" smooth="no"/>
      <point x="782" y="1152"/>
      <point x="750" y="1194"/>
      <point x="731" y="1208" type="curve" smooth="no"/>
      <point x="731" y="842" type="line" smooth="no"/>
      <point x="869" y="785"/>
      <point x="989" y="737"/>
      <point x="1103" y="658" type="curve" smooth="no"/>
      <point x="1190" y="588"/>
      <point x="1253" y="524"/>
      <point x="1253" y="397" type="curve" smooth="yes"/>
      <point x="1253" y="264"/>
      <point x="1191" y="169"/>
      <point x="1111" y="106" type="curve" smooth="yes"/>
      <point x="1017" y="31"/>
      <point x="890" y="-11"/>
      <point x="731" y="-20" type="curve" smooth="no"/>
      <point x="731" y="-186" type="line" smooth="no"/>
      <point x="642" y="-186"/>
      <point x="628" y="-170"/>
      <point x="628" y="-86" type="curve" smooth="yes"/>
      <point x="628" y="-21" type="line" smooth="no"/>
      <point x="431" y="-16"/>
      <point x="263" y="35"/>
      <point x="126" y="130" type="curve" smooth="yes"/>
      <point x="105" y="145"/>
      <point x="89" y="159"/>
      <point x="80" y="174" type="curve" smooth="no"/>
      <point x="80" y="199"/>
      <point x="82" y="221"/>
      <point x="87" y="240" type="curve" smooth="no"/>
      <point x="175" y="466" type="line" smooth="no"/>
      <point x="478" y="346" type="line" smooth="no"/>
      <point x="522" y="244"/>
      <point x="572" y="183"/>
      <point x="628" y="162" type="curve" smooth="no"/>
      <point x="628" y="587" type="line" smooth="no"/>
      <point x="602" y="601"/>
      <point x="570" y="616"/>
      <point x="532" y="632" type="curve" smooth="yes"/>
      <point x="418" y="679"/>
      <point x="339" y="717"/>
      <point x="296" y="744" type="curve" smooth="yes"/>
      <point x="197" y="807"/>
      <point x="106" y="900"/>
    </contour>
  </outline>
</glyph>
<glyph name="percent" format="1">
  <advance width="1658"/>
  <unicode hex="0025"/>
  <outline>
    <contour>
      <point x="1278" y="-23" type="qcurve" smooth="yes"/>
      <point x="1200" y="-23"/>
      <point x="1140" y="5" type="qcurve" smooth="yes"/>
      <point x="1080" y="34"/>
      <point x="1038" y="84" type="qcurve" smooth="yes"/>
      <point x="954" y="186"/>
      <point x="955" y="358" type="qcurve" smooth="yes"/>
      <point x="954" y="631"/>
      <point x="1138" y="713" type="qcurve" smooth="yes"/>
      <point x="1198" y="740"/>
      <point x="1360" y="740"/>
      <point x="1420.5" y="712.5" type="qcurve" smooth="yes"/>
      <point x="1482" y="684"/>
      <point x="1522" y="634" type="qcurve" smooth="yes"/>
      <point x="1602" y="534"/>
      <point x="1602" y="358" type="qcurve" smooth="yes"/>
      <point x="1602" y="185"/>
      <point x="1517" y="81" type="qcurve" smooth="yes"/>
      <point x="1431" y="-23"/>
    </contour>
    <contour>
      <point x="1154" y="413"/>
      <point x="1154" y="305"/>
      <point x="1162" y="212"/>
      <point x="1176" y="178" type="qcurve" smooth="yes"/>
      <point x="1206" y="103"/>
      <point x="1287" y="103" type="qcurve" smooth="yes"/>
      <point x="1390" y="102"/>
      <point x="1404" y="272" type="qcurve" smooth="yes"/>
      <point x="1408" y="316"/>
      <point x="1407" y="413"/>
      <point x="1397" y="507"/>
      <point x="1369" y="576"/>
      <point x="1320" y="616"/>
      <point x="1240" y="616"/>
      <point x="1191" y="576"/>
      <point x="1164" y="507"/>
    </contour>
    <contour>
      <point x="698" y="946"/>
      <point x="676.5" y="876" type="qcurve" smooth="yes"/>
      <point x="654" y="806"/>
      <point x="614" y="756" type="qcurve" smooth="yes"/>
      <point x="529" y="651"/>
      <point x="383" y="651" type="qcurve" smooth="yes"/>
      <point x="221" y="652"/>
      <point x="135" y="762" type="qcurve" smooth="yes"/>
      <point x="56" y="864"/>
      <point x="56" y="1033" type="qcurve" smooth="yes"/>
      <point x="56" y="1306"/>
      <point x="238" y="1386" type="qcurve" smooth="yes"/>
      <point x="298" y="1412"/>
      <point x="456" y="1412"/>
      <point x="576" y="1357"/>
      <point x="657" y="1257"/>
      <point x="698" y="1116"/>
    </contour>
    <contour>
      <point x="503" y="1031" type="qcurve" smooth="yes"/>
      <point x="503" y="1287"/>
      <point x="378" y="1287" type="qcurve" smooth="yes"/>
      <point x="271" y="1288"/>
      <point x="254" y="1132" type="qcurve" smooth="yes"/>
      <point x="249" y="1086"/>
      <point x="249" y="977"/>
      <point x="259" y="884"/>
      <point x="273" y="850" type="qcurve" smooth="yes"/>
      <point x="303" y="776"/>
      <point x="378" y="775" type="qcurve" smooth="yes"/>
      <point x="481" y="776"/>
      <point x="498" y="932" type="qcurve" smooth="yes"/>
      <point x="503" y="978"/>
    </contour>
    <contour>
      <point x="492" y="-34" type="line"/>
      <point x="338" y="53" type="line"/>
      <point x="1186" y="1440" type="line"/>
      <point x="1340" y="1352" type="line"/>
    </contour>
  </outline>
</glyph>
<glyph name="ampersand" format="1">
  <advance width="1597"/>
  <unicode hex="0026"/>
  <outline>
    <contour>
      <point x="481" y="374" type="qcurve" smooth="yes"/>
      <point x="481" y="136"/>
      <point x="690" y="136" type="qcurve" smooth="yes"/>
      <point x="835" y="136"/>
      <point x="842" y="425" type="qcurve" smooth="yes"/>
      <point x="843" y="466"/>
      <point x="843" y="502" type="qcurve" smooth="yes"/>
      <point x="843" y="680" type="line"/>
      <point x="671" y="680" type="line" smooth="yes"/>
      <point x="537" y="680"/>
      <point x="495" y="507" type="qcurve" smooth="yes"/>
      <point x="481" y="450"/>
    </contour>
    <contour>
      <point x="114" y="1054" type="qcurve" smooth="yes"/>
      <point x="114" y="1412"/>
      <point x="770" y="1412" type="qcurve" smooth="yes"/>
      <point x="935" y="1412"/>
      <point x="1184" y="1361" type="qcurve"/>
      <point x="1184" y="1006" type="line"/>
      <point x="933" y="1006" type="line"/>
      <point x="913" y="1123"/>
      <point x="800" y="1252"/>
      <point x="709" y="1252" type="qcurve" smooth="yes"/>
      <point x="625" y="1252"/>
      <point x="567" y="1198" type="qcurve" smooth="yes"/>
      <point x="510" y="1145"/>
      <point x="510" y="1068" type="qcurve" smooth="yes"/>
      <point x="510" y="950"/>
      <point x="602" y="837"/>
      <point x="708" y="837" type="qcurve" smooth="yes"/>
      <point x="1497" y="837" type="line"/>
      <point x="1497" y="507" type="line"/>
      <point x="1371" y="507" type="line"/>
      <point x="1371" y="628"/>
      <point x="1271" y="668" type="qcurve" smooth="yes"/>
      <point x="1240" y="680"/>
      <point x="1201" y="680" type="qcurve"/>
      <point x="1201" y="491" type="line" smooth="yes"/>
      <point x="1201" y="229"/>
      <point x="940" y="-22"/>
      <point x="673" y="-22" type="qcurve" smooth="yes"/>
      <point x="391" y="-22"/>
      <point x="248" y="60" type="qcurve" smooth="yes"/>
      <point x="77" y="157"/>
      <point x="77" y="377" type="qcurve" smooth="yes"/>
      <point x="77" y="645"/>
      <point x="373" y="757" type="qcurve"/>
      <point x="114" y="836"/>
    </contour>
  </outline>
</glyph>
<glyph name="quotesingle" format="1">
  <advance width="562"/>
  <unicode hex="0027"/>
  <outline>
    <contour>
      <point x="110" y="1370" type="line" smooth="no"/>
      <point x="155" y="1397"/>
      <point x="216" y="1411"/>
      <point x="292" y="1411" type="curve" smooth="yes"/>
      <point x="369" y="1410"/>
      <point x="419" y="1398"/>
      <point x="440" y="1374" type="curve" smooth="yes"/>
      <point x="448" y="1365"/>
      <point x="452" y="1352"/>
      <point x="452" y="1336" type="curve" smooth="no"/>
      <point x="420" y="1051"/>
      <point x="403" y="902"/>
      <point x="402" y="891" type="curve" smooth="no"/>
      <point x="362" y="877"/>
      <point x="322" y="870"/>
      <point x="281" y="870" type="curve" smooth="yes"/>
      <point x="206" y="870"/>
      <point x="164" y="899"/>
      <point x="154" y="957" type="curve" smooth="no"/>
    </contour>
  </outline>
</glyph>
<glyph name="parenleft" format="1">
  <advance width="733"/>
  <unicode hex="0028"/>
  <outline>
    <contour>
      <point x="94" y="1186"/>
      <point x="419" y="1469" type="qcurve"/>
      <point x="588" y="1462"/>
      <point x="681" y="1418" type="qcurve"/>
      <point x="491" y="1108"/>
      <point x="491" y="168"/>
      <point x="681" y="-142" type="qcurve"/>
      <point x="594" y="-186"/>
      <point x="419" y="-193" type="qcurve"/>
      <point x="94" y="90"/>
    </contour>
  </outline>
</glyph>
<glyph name="parenright" format="1">
  <advance width="734"/>
  <unicode hex="0029"/>
  <outline>
    <contour>
      <point x="639" y="638" type="curve" smooth="yes"/>
      <point x="639" y="277"/>
      <point x="521" y="-15"/>
      <point x="314" y="-193" type="curve" smooth="no"/>
      <point x="195" y="-188"/>
      <point x="108" y="-171"/>
      <point x="52" y="-142" type="curve" smooth="no"/>
      <point x="179" y="65"/>
      <point x="242" y="325"/>
      <point x="242" y="638" type="curve" smooth="yes"/>
      <point x="242" y="951"/>
      <point x="179" y="1211"/>
      <point x="52" y="1418" type="curve" smooth="no"/>
      <point x="112" y="1447"/>
      <point x="199" y="1464"/>
      <point x="314" y="1469" type="curve" smooth="no"/>
      <point x="531" y="1280"/>
      <point x="639" y="1003"/>
    </contour>
  </outline>
</glyph>
<glyph name="asterisk" format="1">
  <advance width="882"/>
  <unicode hex="002A"/>
  <outline>
    <contour>
      <point x="274" y="703" type="line"/>
      <point x="378" y="994" type="line"/>
      <point x="110" y="859" type="line"/>
      <point x="58" y="1014" type="line"/>
      <point x="354" y="1080" type="line"/>
      <point x="96" y="1269" type="line"/>
      <point x="216" y="1382" type="line"/>
      <point x="414" y="1139" type="line"/>
      <point x="444" y="1440" type="line"/>
      <point x="612" y="1409" type="line"/>
      <point x="505" y="1126" type="line"/>
      <point x="775" y="1252" type="line"/>
      <point x="824" y="1109" type="line"/>
      <point x="533" y="1041" type="line"/>
      <point x="785" y="833" type="line"/>
      <point x="653" y="727" type="line"/>
      <point x="468" y="982" type="line"/>
      <point x="441" y="660" type="line"/>
    </contour>
  </outline>
</glyph>
<glyph name="plus" format="1">
  <advance width="1195"/>
  <unicode hex="002B"/>
  <outline>
    <contour>
      <point x="536" y="1068" type="line" smooth="yes"/>
      <point x="615" y="1068"/>
      <point x="705" y="1035"/>
      <point x="719" y="990" type="qcurve"/>
      <point x="719" y="671" type="line"/>
      <point x="1088" y="671" type="line"/>
      <point x="1088" y="581" type="line"/>
      <point x="1082" y="524"/>
      <point x="1062" y="509" type="qcurve" smooth="yes"/>
      <point x="1028" y="483"/>
      <point x="954" y="483" type="qcurve" smooth="yes"/>
      <point x="719" y="483" type="line"/>
      <point x="719" y="85" type="line"/>
      <point x="610" y="85" type="line" smooth="yes"/>
      <point x="524" y="85"/>
      <point x="494" y="111" type="qcurve" smooth="yes"/>
      <point x="480" y="123"/>
      <point x="478" y="139" type="qcurve" smooth="yes"/>
      <point x="474" y="161"/>
      <point x="474" y="193" type="qcurve" smooth="yes"/>
      <point x="474" y="483" type="line"/>
      <point x="107" y="483" type="line"/>
      <point x="107" y="573" type="line" smooth="yes"/>
      <point x="107" y="666"/>
      <point x="207" y="670" type="qcurve" smooth="yes"/>
      <point x="237" y="672"/>
      <point x="272" y="671" type="qcurve" smooth="yes"/>
      <point x="474" y="671" type="line"/>
      <point x="474" y="1068" type="line"/>
    </contour>
  </outline>
</glyph>
<glyph name="comma" format="1">
  <advance width="658"/>
  <unicode hex="002c"/>
  <outline>
    <contour>
      <point x="330" y="358" type="curve" smooth="yes"/>
      <point x="460" y="358"/>
      <point x="543" y="265"/>
      <point x="543" y="138" type="curve" smooth="yes"/>
      <point x="543" y="7"/>
      <point x="508" y="-67"/>
      <point x="448" y="-144" type="curve" smooth="yes"/>
      <point x="389" y="-219"/>
      <point x="296" y="-296"/>
      <point x="168" y="-376" type="curve" smooth="no"/>
      <point x="74" y="-283" type="line" smooth="no"/>
      <point x="151" y="-209"/>
      <point x="208" y="-120"/>
      <point x="245" y="-15" type="curve" smooth="no"/>
      <point x="168" y="1"/>
      <point x="100" y="66"/>
      <point x="100" y="154" type="curve" smooth="yes"/>
      <point x="100" y="293"/>
      <point x="196" y="358"/>
    </contour>
  </outline>
</glyph>
<glyph name="hyphen" format="1">
  <advance width="834"/>
  <unicode hex="002D"/>
  <outline>
    <contour>
      <point x="793" y="571" type="line" smooth="yes"/>
      <point x="793" y="529"/>
      <point x="754" y="471"/>
      <point x="717" y="471" type="qcurve" smooth="yes"/>
      <point x="41" y="471" type="line"/>
      <point x="41" y="562" type="line" smooth="yes"/>
      <point x="42" y="613"/>
      <point x="60" y="626" type="qcurve" smooth="yes"/>
      <point x="89" y="646"/>
      <point x="148" y="646" type="qcurve" smooth="yes"/>
      <point x="793" y="646" type="line"/>
    </contour>
  </outline>
</glyph>
<glyph name="period" format="1">
  <advance width="631"/>
  <unicode hex="002E"/>
  <outline>
    <contour>
      <point x="515" y="167" type="qcurve" smooth="yes"/>
      <point x="515" y="125"/>
      <point x="487" y="54"/>
      <point x="434" y="5"/>
      <point x="360" y="-22"/>
      <point x="270" y="-22"/>
      <point x="233" y="-8.5" type="qcurve" smooth="yes"/>
      <point x="196" y="6"/>
      <point x="170" y="30" type="qcurve" smooth="yes"/>
      <point x="116" y="80"/>
      <point x="115" y="169" type="qcurve" smooth="yes"/>
      <point x="115" y="254"/>
      <point x="229" y="358"/>
      <point x="315" y="357.5" type="qcurve" smooth="yes"/>
      <point x="400" y="357"/>
      <point x="458" y="303" type="qcurve" smooth="yes"/>
      <point x="514" y="250"/>
    </contour>
  </outline>
</glyph>
<glyph name="slash" format="1">
  <advance width="906"/>
  <unicode hex="002F"/>
  <outline>
    <contour>
      <point x="625" y="1331" type="line" smooth="yes"/>
      <point x="645" y="1373"/>
      <point x="658" y="1385" type="qcurve" smooth="yes"/>
      <point x="687" y="1412"/>
      <point x="733" y="1412" type="qcurve" smooth="yes"/>
      <point x="906" y="1412" type="line"/>
      <point x="276" y="48" type="line" smooth="yes"/>
      <point x="259" y="12"/>
      <point x="212" y="-22"/>
      <point x="171" y="-22" type="qcurve" smooth="yes"/>
      <point x="0" y="-22" type="line"/>
    </contour>
  </outline>
</glyph>
<glyph name="zero" format="1">
  <advance width="1329"/>
  <unicode hex="0030"/>
  <outline>
    <contour>
      <point x="662" y="-22" type="qcurve" smooth="yes"/>
      <point x="512" y="-22"/>
      <point x="282" y="83"/>
      <point x="206" y="179" type="qcurve" smooth="yes"/>
      <point x="56" y="370"/>
      <point x="56" y="704" type="qcurve" smooth="yes"/>
      <point x="56" y="1040"/>
      <point x="210" y="1224" type="qcurve" smooth="yes"/>
      <point x="368" y="1412"/>
      <point x="664" y="1412" type="qcurve" smooth="yes"/>
      <point x="966" y="1412"/>
      <point x="1122" y="1221" type="qcurve" smooth="yes"/>
      <point x="1274" y="1036"/>
      <point x="1273" y="704" type="qcurve" smooth="yes"/>
      <point x="1273" y="366"/>
      <point x="1117" y="174" type="qcurve" smooth="yes"/>
      <point x="957" y="-22"/>
    </contour>
    <contour>
      <point x="846" y="585"/>
      <point x="846" y="818"/>
      <point x="838.5" y="913.5" type="qcurve" smooth="yes"/>
      <point x="830" y="1009"/>
      <point x="810" y="1078" type="qcurve" smooth="yes"/>
      <point x="767" y="1223"/>
      <point x="565" y="1223"/>
      <point x="483" y="967"/>
      <point x="483" y="704" type="qcurve" smooth="yes"/>
      <point x="484" y="300"/>
      <point x="580" y="202" type="qcurve" smooth="yes"/>
      <point x="614" y="167"/>
      <point x="718" y="167"/>
      <point x="788" y="246"/>
      <point x="829" y="388"/>
    </contour>
  </outline>
</glyph>
<glyph name="one" format="1">
  <advance width="964"/>
  <unicode hex="0031"/>
  <outline>
    <contour>
      <point x="88" y="1353" type="line"/>
      <point x="292" y="1399"/>
      <point x="490" y="1399" type="qcurve" smooth="yes"/>
      <point x="588" y="1400"/>
      <point x="621" y="1388" type="qcurve" smooth="yes"/>
      <point x="690" y="1364"/>
      <point x="690" y="1294" type="qcurve" smooth="yes"/>
      <point x="690" y="259" type="line" smooth="yes"/>
      <point x="690" y="215"/>
      <point x="695" y="167" type="qcurve"/>
      <point x="883" y="167" type="line"/>
      <point x="883" y="-11" type="line"/>
      <point x="637" y="0"/>
      <point x="335" y="0"/>
      <point x="69" y="-11" type="qcurve"/>
      <point x="69" y="167" type="line"/>
      <point x="255" y="167" type="line"/>
      <point x="261" y="194"/>
      <point x="261" y="259" type="qcurve" smooth="yes"/>
      <point x="261" y="1162" type="line" smooth="yes"/>
      <point x="261" y="1209"/>
      <point x="257" y="1239" type="qcurve"/>
      <point x="88" y="1239" type="line"/>
    </contour>
  </outline>
</glyph>
<glyph name="two" format="1">
  <advance width="1271"/>
  <unicode hex="0032"/>
  <outline>
    <contour>
      <point x="755" y="1040" type="curve" smooth="yes"/>
      <point x="755" y="1152"/>
      <point x="715" y="1245"/>
      <point x="608" y="1245" type="curve" smooth="no"/>
      <point x="529" y="1244"/>
      <point x="459" y="1184"/>
      <point x="400" y="1064" type="curve" smooth="yes"/>
      <point x="381" y="1027"/>
      <point x="366" y="985"/>
      <point x="353" y="939" type="curve" smooth="no"/>
      <point x="70" y="1123" type="line" smooth="no"/>
      <point x="71" y="1206"/>
      <point x="126" y="1275"/>
      <point x="232" y="1330" type="curve" smooth="yes"/>
      <point x="338" y="1385"/>
      <point x="468" y="1412"/>
      <point x="623" y="1412" type="curve" smooth="yes"/>
      <point x="878" y="1412"/>
      <point x="1042" y="1338"/>
      <point x="1116" y="1190" type="curve" smooth="yes"/>
      <point x="1142" y="1138"/>
      <point x="1155" y="1082"/>
      <point x="1155" y="1022" type="curve" smooth="yes"/>
      <point x="1155" y="962"/>
      <point x="1145" y="906"/>
      <point x="1124" y="854" type="curve" smooth="yes"/>
      <point x="1103" y="802"/>
      <point x="1068" y="746"/>
      <point x="1017" y="686" type="curve" smooth="yes"/>
      <point x="911" y="560"/>
      <point x="735" y="417"/>
      <point x="489" y="258" type="curve" smooth="no"/>
      <point x="772" y="258" type="line" smooth="yes"/>
      <point x="842" y="258"/>
      <point x="886" y="257"/>
      <point x="905" y="256" type="curve" smooth="no"/>
      <point x="939" y="311"/>
      <point x="976" y="384"/>
      <point x="1016" y="477" type="curve" smooth="no"/>
      <point x="1195" y="460" type="line" smooth="no"/>
      <point x="1192" y="279"/>
      <point x="1188" y="130"/>
      <point x="1181" y="12" type="curve" smooth="no"/>
      <point x="1101" y="4"/>
      <point x="983" y="0"/>
      <point x="827" y="0" type="curve" smooth="yes"/>
      <point x="195" y="0" type="line" smooth="yes"/>
      <point x="93" y="0"/>
      <point x="62" y="30"/>
      <point x="62" y="123" type="curve" smooth="yes"/>
      <point x="62" y="141"/>
      <point x="63" y="162"/>
      <point x="65" y="185" type="curve" smooth="no"/>
      <point x="406" y="498"/>
      <point x="603" y="685"/>
      <point x="655" y="746" type="curve" smooth="yes"/>
      <point x="722" y="825"/>
      <point x="755" y="923"/>
    </contour>
  </outline>
</glyph>
<glyph name="three" format="1">
  <advance width="1218"/>
  <unicode hex="0033"/>
  <outline>
    <contour>
      <point x="762" y="1075" type="curve" smooth="yes"/>
      <point x="762" y="1162"/>
      <point x="680" y="1223"/>
      <point x="592" y="1223" type="curve" smooth="yes"/>
      <point x="505" y="1223"/>
      <point x="455" y="1202"/>
      <point x="407" y="1162" type="curve" smooth="yes"/>
      <point x="355" y="1118"/>
      <point x="319" y="1057"/>
      <point x="298" y="979" type="curve" smooth="no"/>
      <point x="46" y="1146" type="line" smooth="no"/>
      <point x="154" y="1330"/>
      <point x="310" y="1412"/>
      <point x="577" y="1412" type="curve" smooth="yes"/>
      <point x="844" y="1412"/>
      <point x="1094" y="1309"/>
      <point x="1093" y="1062" type="curve" smooth="yes"/>
      <point x="1092" y="937"/>
      <point x="1029" y="849"/>
      <point x="902" y="798" type="curve" smooth="yes"/>
      <point x="863" y="783"/>
      <point x="822" y="770"/>
      <point x="778" y="761" type="curve" smooth="no"/>
      <point x="986" y="733"/>
      <point x="1142" y="596"/>
      <point x="1142" y="371" type="curve" smooth="yes"/>
      <point x="1142" y="94"/>
      <point x="874" y="-31"/>
      <point x="576" y="-32" type="curve" smooth="yes"/>
      <point x="405" y="-32"/>
      <point x="242" y="5"/>
      <point x="85" y="80" type="curve" smooth="no"/>
      <point x="85" y="430" type="line" smooth="no"/>
      <point x="294" y="411" type="line" smooth="no"/>
      <point x="333" y="236"/>
      <point x="412" y="148"/>
      <point x="531" y="148" type="curve" smooth="yes"/>
      <point x="669" y="148"/>
      <point x="734" y="241"/>
      <point x="734" y="381" type="curve" smooth="yes"/>
      <point x="734" y="553"/>
      <point x="642" y="639"/>
      <point x="458" y="639" type="curve" smooth="yes"/>
      <point x="307" y="639" type="line" smooth="no"/>
      <point x="317" y="799" type="line" smooth="no"/>
      <point x="431" y="808" type="line" smooth="no"/>
      <point x="573" y="817"/>
      <point x="762" y="934"/>
    </contour>
  </outline>
</glyph>
<glyph name="four" format="1">
  <advance width="1269"/>
  <unicode hex="0034"/>
  <outline>
    <contour>
      <point x="804" y="1387" type="line" smooth="yes"/>
      <point x="910" y="1387"/>
      <point x="982" y="1387"/>
      <point x="982" y="1289" type="curve" smooth="yes"/>
      <point x="982" y="520" type="line" smooth="no"/>
      <point x="1237" y="520" type="line" smooth="no"/>
      <point x="1237" y="434" type="line" smooth="yes"/>
      <point x="1237" y="377"/>
      <point x="1195" y="349"/>
      <point x="1112" y="349" type="curve" smooth="yes"/>
      <point x="982" y="349" type="line" smooth="no"/>
      <point x="982" y="259" type="line" smooth="yes"/>
      <point x="982" y="230"/>
      <point x="984" y="199"/>
      <point x="987" y="167" type="curve" smooth="no"/>
      <point x="1175" y="167" type="line" smooth="no"/>
      <point x="1175" y="-11" type="line" smooth="no"/>
      <point x="1016" y="-4"/>
      <point x="892" y="0"/>
      <point x="802" y="0" type="curve" smooth="yes"/>
      <point x="712" y="0"/>
      <point x="573" y="-4"/>
      <point x="384" y="-11" type="curve" smooth="no"/>
      <point x="384" y="167" type="line" smooth="no"/>
      <point x="570" y="167" type="line" smooth="no"/>
      <point x="574" y="185"/>
      <point x="576" y="216"/>
      <point x="576" y="259" type="curve" smooth="yes"/>
      <point x="576" y="349" type="line" smooth="no"/>
      <point x="112" y="349" type="line" smooth="no"/>
      <point x="52" y="450"/>
      <point x="22" y="533"/>
      <point x="22" y="597" type="curve" smooth="no"/>
      <point x="562" y="1388" type="line" smooth="no"/>
      <point x="628" y="1387" type="line" smooth="no"/>
    </contour>
    <contour>
      <point x="576" y="520" type="line" smooth="no"/>
      <point x="576" y="1074" type="line" smooth="no"/>
      <point x="206" y="520" type="line" smooth="no"/>
    </contour>
  </outline>
</glyph>
<glyph name="five" format="1">
  <advance width="1199"/>
  <unicode hex="0035"/>
  <outline>
    <contour>
      <point x="562" y="1387" type="line"/>
      <point x="676" y="1387" type="line" smooth="yes"/>
      <point x="766" y="1387"/>
      <point x="1008" y="1421" type="qcurve"/>
      <point x="1016" y="1267" type="line"/>
      <point x="980" y="1217"/>
      <point x="930" y="1202" type="qcurve" smooth="yes"/>
      <point x="852" y="1177"/>
      <point x="604" y="1177"/>
      <point x="474" y="1190" type="qcurve"/>
      <point x="474" y="862" type="line"/>
      <point x="592" y="903"/>
      <point x="788" y="903"/>
      <point x="865.5" y="869.5" type="qcurve" smooth="yes"/>
      <point x="944" y="836"/>
      <point x="998" y="777" type="qcurve" smooth="yes"/>
      <point x="1112" y="654"/>
      <point x="1111" y="468" type="qcurve" smooth="yes"/>
      <point x="1111" y="224"/>
      <point x="937" y="94" type="qcurve" smooth="yes"/>
      <point x="780" y="-23"/>
      <point x="304" y="-22"/>
      <point x="74" y="83" type="qcurve"/>
      <point x="74" y="437" type="line"/>
      <point x="288" y="417" type="line"/>
      <point x="305" y="302"/>
      <point x="326" y="204" type="qcurve"/>
      <point x="420" y="166"/>
      <point x="488" y="166" type="qcurve" smooth="yes"/>
      <point x="698" y="166"/>
      <point x="698" y="449" type="qcurve" smooth="yes"/>
      <point x="698" y="702"/>
      <point x="541" y="702" type="qcurve" smooth="yes"/>
      <point x="451" y="702"/>
      <point x="312" y="621" type="qcurve"/>
      <point x="257" y="636"/>
      <point x="98" y="669" type="qcurve"/>
      <point x="98" y="1310" type="line"/>
      <point x="144" y="1354"/>
      <point x="274" y="1388"/>
      <point x="349" y="1388" type="qcurve" smooth="yes"/>
      <point x="455" y="1388" type="line"/>
    </contour>
  </outline>
</glyph>
<glyph name="six" format="1">
  <advance width="1260"/>
  <unicode hex="0036"/>
  <outline>
    <contour>
      <point x="674" y="675" type="curve" smooth="no"/>
      <point x="637" y="675"/>
      <point x="578" y="652"/>
      <point x="498" y="607" type="curve" smooth="no"/>
      <point x="498" y="531" type="line" smooth="no"/>
      <point x="499" y="464" type="line" smooth="no"/>
      <point x="499" y="452" type="line" smooth="no"/>
      <point x="498" y="309"/>
      <point x="527" y="215"/>
      <point x="586" y="170" type="curve" smooth="yes"/>
      <point x="605" y="155"/>
      <point x="626" y="148"/>
      <point x="651" y="148" type="curve" smooth="yes"/>
      <point x="691" y="148"/>
      <point x="723" y="171"/>
      <point x="748" y="217" type="curve" smooth="yes"/>
      <point x="773" y="263"/>
      <point x="786" y="331"/>
      <point x="786" y="421" type="curve" smooth="yes"/>
      <point x="786" y="500"/>
      <point x="781" y="554"/>
      <point x="771" y="584" type="curve" smooth="yes"/>
      <point x="752" y="641"/>
      <point x="720" y="671"/>
    </contour>
    <contour>
      <point x="74" y="620" type="curve" smooth="yes"/>
      <point x="74" y="1097"/>
      <point x="258" y="1412"/>
      <point x="715" y="1412" type="curve" smooth="yes"/>
      <point x="900" y="1412"/>
      <point x="1034" y="1386"/>
      <point x="1118" y="1335" type="curve" smooth="no"/>
      <point x="1118" y="963" type="line" smooth="no"/>
      <point x="886" y="963" type="line" smooth="no"/>
      <point x="854" y="1209" type="line" smooth="no"/>
      <point x="782" y="1218"/>
      <point x="730" y="1223"/>
      <point x="698" y="1223" type="curve" smooth="yes"/>
      <point x="633" y="1223"/>
      <point x="592" y="1195"/>
      <point x="566" y="1155" type="curve" smooth="yes"/>
      <point x="535" y="1106"/>
      <point x="512" y="988"/>
      <point x="496" y="802" type="curve" smooth="no"/>
      <point x="590" y="845"/>
      <point x="676" y="866"/>
      <point x="755" y="866" type="curve" smooth="yes"/>
      <point x="1041" y="866"/>
      <point x="1202" y="699"/>
      <point x="1202" y="423" type="curve" smooth="yes"/>
      <point x="1202" y="136"/>
      <point x="942" y="-22"/>
      <point x="641" y="-22" type="curve" smooth="yes"/>
      <point x="354" y="-22"/>
      <point x="176" y="99"/>
      <point x="108" y="342" type="curve" smooth="yes"/>
      <point x="85" y="422"/>
      <point x="74" y="515"/>
    </contour>
  </outline>
</glyph>
<glyph name="seven" format="1">
  <advance width="1243"/>
  <unicode hex="0037"/>
  <outline>
    <contour>
      <point x="500" y="-11" type="curve" smooth="yes"/>
      <point x="390" y="-11"/>
      <point x="324" y="-4"/>
      <point x="283" y="56" type="curve" smooth="yes"/>
      <point x="283" y="57"/>
      <point x="287" y="65"/>
      <point x="294" y="80" type="curve" smooth="yes"/>
      <point x="835" y="1197" type="line" smooth="no"/>
      <point x="467" y="1197" type="line" smooth="yes"/>
      <point x="450" y="1197"/>
      <point x="412" y="1195"/>
      <point x="354" y="1192" type="curve" smooth="no"/>
      <point x="350" y="1160"/>
      <point x="348" y="1138"/>
      <point x="348" y="1125" type="curve" smooth="yes"/>
      <point x="341" y="930" type="line" smooth="no"/>
      <point x="127" y="930" type="line" smooth="no"/>
      <point x="72" y="1348" type="line" smooth="no"/>
      <point x="199" y="1374"/>
      <point x="305" y="1387"/>
      <point x="390" y="1387" type="curve" smooth="yes"/>
      <point x="1161" y="1387" type="line" smooth="no"/>
      <point x="1179" y="1374"/>
      <point x="1188" y="1343"/>
      <point x="1188" y="1296" type="curve" smooth="yes"/>
      <point x="1188" y="1209" type="line" smooth="no"/>
      <point x="765" y="185" type="line" smooth="yes"/>
      <point x="718" y="71"/>
      <point x="643" y="-11"/>
    </contour>
  </outline>
</glyph>
<glyph name="eight" format="1">
  <advance width="1219"/>
  <unicode hex="0038"/>
  <outline>
    <contour>
      <point x="631" y="807" type="qcurve"/>
      <point x="722" y="862"/>
      <point x="722" y="1037" type="qcurve" smooth="yes"/>
      <point x="722" y="1168"/>
      <point x="653" y="1210" type="qcurve" smooth="yes"/>
      <point x="630" y="1224"/>
      <point x="567" y="1224"/>
      <point x="521" y="1196"/>
      <point x="506" y="1172" type="qcurve" smooth="yes"/>
      <point x="476" y="1123"/>
      <point x="476" y="1037" type="qcurve" smooth="yes"/>
      <point x="476" y="872"/>
    </contour>
    <contour>
      <point x="527" y="167"/>
      <point x="675" y="167"/>
      <point x="754" y="269"/>
      <point x="754" y="457"/>
      <point x="649" y="585"/>
      <point x="561" y="608" type="qcurve"/>
      <point x="452" y="532"/>
      <point x="452" y="362" type="qcurve" smooth="yes"/>
      <point x="452" y="275"/>
    </contour>
    <contour>
      <point x="49" y="333" type="qcurve" smooth="yes"/>
      <point x="49" y="564"/>
      <point x="322" y="707" type="qcurve"/>
      <point x="205" y="769"/>
      <point x="158" y="824" type="qcurve" smooth="yes"/>
      <point x="69" y="927"/>
      <point x="69" y="1048" type="qcurve" smooth="yes"/>
      <point x="68" y="1206"/>
      <point x="214" y="1308" type="qcurve" smooth="yes"/>
      <point x="362" y="1412"/>
      <point x="599" y="1412" type="qcurve" smooth="yes"/>
      <point x="825" y="1412"/>
      <point x="972" y="1315" type="qcurve" smooth="yes"/>
      <point x="1124" y="1214"/>
      <point x="1124" y="874"/>
      <point x="880" y="712" type="qcurve"/>
      <point x="1072" y="638"/>
      <point x="1144" y="486" type="qcurve" smooth="yes"/>
      <point x="1169" y="434"/>
      <point x="1169" y="269"/>
      <point x="1080" y="119"/>
      <point x="1002" y="71" type="qcurve" smooth="yes"/>
      <point x="852" y="-22"/>
      <point x="599" y="-22" type="qcurve" smooth="yes"/>
      <point x="360" y="-22"/>
      <point x="210" y="68" type="qcurve" smooth="yes"/>
      <point x="49" y="165"/>
    </contour>
  </outline>
</glyph>
<glyph name="nine" format="1">
  <advance width="1260"/>
  <unicode hex="0039"/>
  <outline>
    <contour>
      <point x="762" y="753" type="curve" smooth="no"/>
      <point x="763" y="838" type="line" smooth="no"/>
      <point x="763" y="973"/>
      <point x="756" y="1062"/>
      <point x="741" y="1106" type="curve" smooth="yes"/>
      <point x="716" y="1179"/>
      <point x="690" y="1223"/>
      <point x="604" y="1223" type="curve" smooth="yes"/>
      <point x="568" y="1223"/>
      <point x="537" y="1202"/>
      <point x="512" y="1159" type="curve" smooth="yes"/>
      <point x="487" y="1116"/>
      <point x="474" y="1053"/>
      <point x="474" y="969" type="curve" smooth="yes"/>
      <point x="474" y="890"/>
      <point x="479" y="836"/>
      <point x="488" y="805" type="curve" smooth="yes"/>
      <point x="505" y="750"/>
      <point x="526" y="715"/>
      <point x="592" y="715" type="curve" smooth="yes"/>
      <point x="622" y="715"/>
      <point x="679" y="728"/>
    </contour>
    <contour>
      <point x="1186" y="770" type="curve" smooth="yes"/>
      <point x="1186" y="301"/>
      <point x="1019" y="-22"/>
      <point x="574" y="-22" type="curve" smooth="yes"/>
      <point x="370" y="-22"/>
      <point x="229" y="4"/>
      <point x="152" y="55" type="curve" smooth="no"/>
      <point x="152" y="427" type="line" smooth="no"/>
      <point x="384" y="427" type="line" smooth="no"/>
      <point x="416" y="190" type="line" smooth="no"/>
      <point x="475" y="175"/>
      <point x="526" y="167"/>
      <point x="568" y="167" type="curve" smooth="yes"/>
      <point x="754" y="167"/>
      <point x="747" y="417"/>
      <point x="764" y="588" type="curve" smooth="no"/>
      <point x="670" y="545"/>
      <point x="584" y="524"/>
      <point x="505" y="524" type="curve" smooth="yes"/>
      <point x="219" y="524"/>
      <point x="58" y="691"/>
      <point x="58" y="967" type="curve" smooth="yes"/>
      <point x="58" y="1254"/>
      <point x="318" y="1412"/>
      <point x="619" y="1412" type="curve" smooth="yes"/>
      <point x="906" y="1412"/>
      <point x="1084" y="1290"/>
      <point x="1152" y="1047" type="curve" smooth="yes"/>
      <point x="1175" y="967"/>
      <point x="1186" y="875"/>
    </contour>
  </outline>
</glyph>
<glyph name="colon" format="1">
  <advance width="636"/>
  <unicode hex="003A"/>
  <outline>
    <contour>
      <point x="515" y="167" type="qcurve" smooth="yes"/>
      <point x="515" y="125"/>
      <point x="487" y="54"/>
      <point x="434" y="5"/>
      <point x="360" y="-22"/>
      <point x="270" y="-22"/>
      <point x="233" y="-8.5" type="qcurve" smooth="yes"/>
      <point x="196" y="6"/>
      <point x="170" y="30" type="qcurve" smooth="yes"/>
      <point x="116" y="80"/>
      <point x="115" y="169" type="qcurve" smooth="yes"/>
      <point x="115" y="254"/>
      <point x="229" y="358"/>
      <point x="315" y="357.5" type="qcurve" smooth="yes"/>
      <point x="400" y="357"/>
      <point x="458" y="303" type="qcurve" smooth="yes"/>
      <point x="514" y="250"/>
    </contour>
    <contour>
      <point x="520" y="815" type="qcurve" smooth="yes"/>
      <point x="520" y="773"/>
      <point x="492" y="702"/>
      <point x="439" y="653"/>
      <point x="365" y="626"/>
      <point x="275" y="626"/>
      <point x="238" y="639.5" type="qcurve" smooth="yes"/>
      <point x="200" y="654"/>
      <point x="174" y="678" type="qcurve" smooth="yes"/>
      <point x="120" y="728"/>
      <point x="120" y="817" type="qcurve" smooth="yes"/>
      <point x="120" y="902"/>
      <point x="234" y="1006"/>
      <point x="320" y="1005" type="qcurve" smooth="yes"/>
      <point x="405" y="1005"/>
      <point x="463" y="951" type="qcurve" smooth="yes"/>
      <point x="520" y="898"/>
    </contour>
  </outline>
</glyph>
<glyph name="semicolon" format="1">
  <advance width="642"/>
  <unicode hex="003b"/>
  <outline>
    <contour>
      <point x="245" y="-90" type="curve" smooth="no"/>
      <point x="168" y="-74"/>
      <point x="100" y="-9"/>
      <point x="100" y="79" type="curve" smooth="yes"/>
      <point x="100" y="218"/>
      <point x="197" y="281"/>
      <point x="330" y="282" type="curve" smooth="yes"/>
      <point x="460" y="283"/>
      <point x="543" y="189"/>
      <point x="543" y="62" type="curve" smooth="yes"/>
      <point x="543" y="-69"/>
      <point x="509" y="-145"/>
      <point x="448" y="-221" type="curve" smooth="yes"/>
      <point x="389" y="-296"/>
      <point x="296" y="-372"/>
      <point x="168" y="-451" type="curve" smooth="no"/>
      <point x="74" y="-358" type="line" smooth="no"/>
      <point x="151" y="-284"/>
      <point x="208" y="-195"/>
    </contour>
    <contour>
      <point x="113" y="817" type="curve" smooth="yes"/>
      <point x="113" y="930"/>
      <point x="200" y="1007"/>
      <point x="313" y="1006" type="curve" smooth="yes"/>
      <point x="425" y="1005"/>
      <point x="512" y="927"/>
      <point x="513" y="815" type="curve" smooth="no"/>
      <point x="513" y="695"/>
      <point x="433" y="626"/>
      <point x="313" y="626" type="curve" smooth="yes"/>
      <point x="191" y="626"/>
      <point x="114" y="700"/>
    </contour>
  </outline>
</glyph>
<glyph name="less" format="1">
  <advance width="1454"/>
  <unicode hex="003C"/>
  <outline>
    <contour>
      <point x="518" y="544" type="line"/>
      <point x="1062" y="293"/>
      <point x="1346" y="167" type="qcurve"/>
      <point x="1329" y="100" type="line"/>
      <point x="1321" y="79"/>
      <point x="1219" y="0" type="qcurve"/>
      <point x="1145" y="22"/>
      <point x="357" y="381"/>
      <point x="107" y="495" type="qcurve"/>
      <point x="107" y="597" type="line"/>
      <point x="1101" y="1041"/>
      <point x="1221" y="1089" type="qcurve"/>
      <point x="1320" y="1012"/>
      <point x="1328" y="992" type="qcurve"/>
      <point x="1347" y="925" type="line"/>
    </contour>
  </outline>
</glyph>
<glyph name="equal" format="1">
  <advance width="1361"/>
  <unicode hex="003D"/>
  <outline>
    <contour>
      <point x="104" y="301" type="line"/>
      <point x="104" y="390" type="line" smooth="yes"/>
      <point x="104" y="456"/>
      <point x="144" y="474" type="qcurve" smooth="yes"/>
      <point x="177" y="488"/>
      <point x="289" y="488" type="qcurve" smooth="yes"/>
      <point x="1257" y="488" type="line"/>
      <point x="1257" y="399" type="line" smooth="yes"/>
      <point x="1257" y="366"/>
      <point x="1196" y="321"/>
      <point x="1130" y="301" type="qcurve"/>
    </contour>
    <contour>
      <point x="1257" y="764" type="line" smooth="yes"/>
      <point x="1258" y="710"/>
      <point x="1182" y="682" type="qcurve" smooth="yes"/>
      <point x="1160" y="674"/>
      <point x="1134" y="665" type="qcurve"/>
      <point x="104" y="665" type="line"/>
      <point x="104" y="755" type="line" smooth="yes"/>
      <point x="104" y="839"/>
      <point x="192" y="849" type="qcurve" smooth="yes"/>
      <point x="218" y="852"/>
      <point x="250" y="852" type="qcurve" smooth="yes"/>
      <point x="1257" y="852" type="line"/>
    </contour>
  </outline>
</glyph>
<glyph name="greater" format="1">
  <advance width="1453"/>
  <unicode hex="003e"/>
  <outline>
    <contour>
      <point x="233" y="1089" type="curve" smooth="no"/>
      <point x="313" y="1057"/>
      <point x="684" y="893"/>
      <point x="1347" y="597" type="curve" smooth="no"/>
      <point x="1347" y="495" type="line" smooth="no"/>
      <point x="666" y="184"/>
      <point x="296" y="19"/>
      <point x="235" y="0" type="curve" smooth="no"/>
      <point x="167" y="53"/>
      <point x="130" y="86"/>
      <point x="125" y="100" type="curve" smooth="no"/>
      <point x="108" y="167" type="line" smooth="no"/>
      <point x="391" y="291"/>
      <point x="645" y="410"/>
      <point x="936" y="544" type="curve" smooth="no"/>
      <point x="107" y="925" type="line" smooth="no"/>
      <point x="126" y="992" type="line" smooth="no"/>
      <point x="131" y="1005"/>
      <point x="167" y="1038"/>
    </contour>
  </outline>
</glyph>
<glyph name="question" format="1">
  <advance width="1078"/>
  <unicode hex="003F"/>
  <outline>
    <contour>
      <point x="448" y="272" type="qcurve" smooth="yes"/>
      <point x="480" y="286"/>
      <point x="560" y="286"/>
      <point x="621" y="257"/>
      <point x="642" y="233" type="qcurve" smooth="yes"/>
      <point x="685" y="184"/>
      <point x="685" y="118" type="qcurve" smooth="yes"/>
      <point x="685" y="56"/>
      <point x="656" y="25" type="qcurve" smooth="yes"/>
      <point x="604" y="-31"/>
      <point x="525" y="-31" type="qcurve" smooth="yes"/>
      <point x="441" y="-31"/>
      <point x="394" y="18" type="qcurve" smooth="yes"/>
      <point x="353" y="61"/>
      <point x="353" y="126" type="qcurve" smooth="yes"/>
      <point x="354" y="230"/>
    </contour>
    <contour>
      <point x="611" y="552"/>
      <point x="611" y="409"/>
      <point x="618" y="360" type="qcurve"/>
      <point x="456" y="360" type="line"/>
      <point x="352" y="416"/>
      <point x="307" y="504" type="qcurve" smooth="yes"/>
      <point x="291" y="536"/>
      <point x="291" y="604"/>
      <point x="303" y="635" type="qcurve" smooth="yes"/>
      <point x="314" y="666"/>
      <point x="336" y="695" type="qcurve" smooth="yes"/>
      <point x="369" y="739"/>
      <point x="485" y="845"/>
      <point x="510" y="875" type="qcurve" smooth="yes"/>
      <point x="536" y="905"/>
      <point x="552" y="935" type="qcurve" smooth="yes"/>
      <point x="586" y="996"/>
      <point x="585" y="1144"/>
      <point x="510" y="1224"/>
      <point x="383" y="1224"/>
      <point x="281" y="1198" type="qcurve"/>
      <point x="281" y="1062" type="line"/>
      <point x="78" y="1062" type="line"/>
      <point x="78" y="1334" type="line"/>
      <point x="316" y="1412"/>
      <point x="576" y="1412"/>
      <point x="661.5" y="1389" type="qcurve" smooth="yes"/>
      <point x="746" y="1366"/>
      <point x="808" y="1321" type="qcurve" smooth="yes"/>
      <point x="938" y="1226"/>
      <point x="939" y="1058" type="qcurve" smooth="yes"/>
      <point x="939" y="912"/>
      <point x="779" y="770" type="qcurve" smooth="yes"/>
      <point x="731" y="728"/>
      <point x="658" y="666"/>
      <point x="633" y="637"/>
      <point x="618" y="601"/>
    </contour>
  </outline>
</glyph>
<glyph name="at" format="1">
  <advance width="1746"/>
  <unicode hex="0040"/>
  <outline>
    <contour>
      <point x="1102" y="891" type="curve" smooth="no"/>
      <point x="1090" y="946"/>
      <point x="1056" y="973"/>
      <point x="1001" y="973" type="curve" smooth="yes"/>
      <point x="931" y="973"/>
      <point x="866" y="926"/>
      <point x="806" y="833" type="curve" smooth="yes"/>
      <point x="747" y="742"/>
      <point x="717" y="641"/>
      <point x="717" y="531" type="curve" smooth="yes"/>
      <point x="717" y="448"/>
      <point x="741" y="393"/>
      <point x="790" y="364" type="curve" smooth="yes"/>
      <point x="806" y="355"/>
      <point x="826" y="350"/>
      <point x="850" y="350" type="curve" smooth="yes"/>
      <point x="905" y="350"/>
      <point x="944" y="386"/>
      <point x="969" y="421" type="curve" smooth="yes"/>
      <point x="1004" y="470"/>
      <point x="1039" y="572"/>
      <point x="1072" y="727" type="curve" smooth="yes"/>
      <point x="1084" y="782"/>
      <point x="1094" y="837"/>
    </contour>
    <contour>
      <point x="787" y="215" type="curve" smooth="yes"/>
      <point x="607" y="216"/>
      <point x="507" y="346"/>
      <point x="507" y="531" type="curve" smooth="yes"/>
      <point x="507" y="700"/>
      <point x="557" y="838"/>
      <point x="657" y="945" type="curve" smooth="yes"/>
      <point x="749" y="1043"/>
      <point x="855" y="1092"/>
      <point x="976" y="1092" type="curve" smooth="yes"/>
      <point x="1048" y="1092"/>
      <point x="1103" y="1060"/>
      <point x="1141" y="996" type="curve" smooth="no"/>
      <point x="1206" y="1055" type="line" smooth="no"/>
      <point x="1260" y="1049"/>
      <point x="1298" y="1038"/>
      <point x="1320" y="1021" type="curve" smooth="no"/>
      <point x="1300" y="957"/>
      <point x="1244" y="691"/>
      <point x="1228" y="626" type="curve" smooth="yes"/>
      <point x="1209" y="544"/>
      <point x="1200" y="486"/>
      <point x="1200" y="450" type="curve" smooth="yes"/>
      <point x="1201" y="384"/>
      <point x="1223" y="345"/>
      <point x="1287" y="345" type="curve" smooth="yes"/>
      <point x="1364" y="345"/>
      <point x="1420" y="406"/>
      <point x="1456" y="462" type="curve" smooth="yes"/>
      <point x="1511" y="547"/>
      <point x="1538" y="647"/>
      <point x="1537" y="764" type="curve" smooth="no"/>
      <point x="1537" y="923"/>
      <point x="1481" y="1055"/>
      <point x="1370" y="1160" type="curve" smooth="yes"/>
      <point x="1258" y="1265"/>
      <point x="1115" y="1318"/>
      <point x="940" y="1319" type="curve" smooth="no"/>
      <point x="755" y="1319"/>
      <point x="601" y="1255"/>
      <point x="478" y="1126" type="curve" smooth="yes"/>
      <point x="353" y="995"/>
      <point x="290" y="826"/>
      <point x="290" y="619" type="curve" smooth="yes"/>
      <point x="290" y="428"/>
      <point x="352" y="270"/>
      <point x="475" y="147" type="curve" smooth="yes"/>
      <point x="598" y="24"/>
      <point x="750" y="-38"/>
      <point x="932" y="-38" type="curve" smooth="yes"/>
      <point x="1114" y="-38"/>
      <point x="1285" y="11"/>
      <point x="1444" y="108" type="curve" smooth="no"/>
      <point x="1497" y="10" type="line" smooth="no"/>
      <point x="1314" y="-107"/>
      <point x="1125" y="-166"/>
      <point x="931" y="-166" type="curve" smooth="yes"/>
      <point x="589" y="-166"/>
      <point x="326" y="0"/>
      <point x="192" y="226" type="curve" smooth="yes"/>
      <point x="120" y="346"/>
      <point x="84" y="479"/>
      <point x="84" y="626" type="curve" smooth="yes"/>
      <point x="84" y="866"/>
      <point x="168" y="1064"/>
      <point x="334" y="1219" type="curve" smooth="yes"/>
      <point x="500" y="1374"/>
      <point x="703" y="1452"/>
      <point x="942" y="1452" type="curve" smooth="yes"/>
      <point x="1162" y="1452"/>
      <point x="1341" y="1387"/>
      <point x="1478" y="1258" type="curve" smooth="yes"/>
      <point x="1614" y="1129"/>
      <point x="1682" y="963"/>
      <point x="1682" y="759" type="curve" smooth="yes"/>
      <point x="1682" y="541"/>
      <point x="1578" y="343"/>
      <point x="1422" y="256" type="curve" smooth="yes"/>
      <point x="1373" y="228"/>
      <point x="1322" y="215"/>
      <point x="1269" y="215" type="curve" smooth="yes"/>
      <point x="1162" y="215"/>
      <point x="1087" y="266"/>
      <point x="1046" y="368" type="curve" smooth="no"/>
      <point x="977" y="266"/>
      <point x="891" y="215"/>
    </contour>
  </outline>
</glyph>
<glyph name="A" format="1">
  <advance width="1668"/>
  <unicode hex="0041"/>
  <outline>
    <contour>
      <point x="932" y="543" type="line" smooth="no"/>
      <point x="803" y="1006" type="line" smooth="no"/>
      <point x="799" y="1006" type="line" smooth="no"/>
      <point x="668" y="543" type="line" smooth="no"/>
    </contour>
    <contour>
      <point x="584" y="186" type="curve" smooth="yes"/>
      <point x="584" y="127"/>
      <point x="623" y="126"/>
      <point x="681" y="118" type="curve" smooth="no"/>
      <point x="656" y="-11" type="line" smooth="no"/>
      <point x="470" y="6"/>
      <point x="159" y="4"/>
      <point x="7" y="-11" type="curve" smooth="no"/>
      <point x="44" y="122" type="line" smooth="no"/>
      <point x="70" y="126" type="line" smooth="yes"/>
      <point x="112" y="133"/>
      <point x="140" y="143"/>
      <point x="154" y="156" type="curve" smooth="yes"/>
      <point x="171" y="173"/>
      <point x="189" y="204"/>
      <point x="207" y="250" type="curve" smooth="yes"/>
      <point x="315" y="538"/>
      <point x="463" y="917"/>
      <point x="651" y="1387" type="curve" smooth="no"/>
      <point x="834" y="1387" type="line" smooth="yes"/>
      <point x="939" y="1387"/>
      <point x="1009" y="1373"/>
      <point x="1044" y="1346" type="curve" smooth="yes"/>
      <point x="1059" y="1335"/>
      <point x="1069" y="1320"/>
      <point x="1076" y="1301" type="curve" smooth="yes"/>
      <point x="1282" y="748"/>
      <point x="1324" y="627"/>
      <point x="1493" y="176" type="curve" smooth="yes"/>
      <point x="1499" y="159"/>
      <point x="1502" y="150"/>
      <point x="1502" y="148" type="curve" smooth="no"/>
      <point x="1642" y="128" type="line" smooth="no"/>
      <point x="1668" y="-11" type="line" smooth="no"/>
      <point x="1317" y="0" type="line" smooth="no"/>
      <point x="1253" y="0"/>
      <point x="1190" y="-3"/>
      <point x="1117" y="-5" type="curve" smooth="yes"/>
      <point x="956" y="-11" type="line" smooth="no"/>
      <point x="956" y="113" type="line" smooth="no"/>
      <point x="992" y="119"/>
      <point x="1048" y="112"/>
      <point x="1048" y="151" type="curve" smooth="yes"/>
      <point x="1048" y="156"/>
      <point x="1047" y="164"/>
      <point x="1044" y="173" type="curve" smooth="yes"/>
      <point x="974" y="390" type="line" smooth="no"/>
      <point x="638" y="390" type="line" smooth="no"/>
      <point x="598" y="256" type="line" smooth="yes"/>
      <point x="589" y="228"/>
      <point x="584" y="205"/>
    </contour>
  </outline>
</glyph>
<glyph name="B" format="1">
  <advance width="1493"/>
  <unicode hex="0042"/>
  <outline>
    <contour>
      <point x="708" y="1211" type="line"/>
      <point x="688" y="1210" type="line"/>
      <point x="688" y="772" type="line"/>
      <point x="738" y="772" type="line" smooth="yes"/>
      <point x="850" y="772"/>
      <point x="969" y="888"/>
      <point x="969" y="1109"/>
      <point x="868" y="1211"/>
      <point x="759" y="1211" type="qcurve" smooth="yes"/>
    </contour>
    <contour>
      <point x="807" y="162" type="qcurve" smooth="yes"/>
      <point x="998" y="162"/>
      <point x="998" y="375" type="qcurve" smooth="yes"/>
      <point x="998" y="502"/>
      <point x="933" y="556" type="qcurve" smooth="yes"/>
      <point x="870" y="608"/>
      <point x="729" y="609" type="qcurve"/>
      <point x="688" y="608" type="line"/>
      <point x="688" y="167" type="line"/>
      <point x="775" y="162"/>
    </contour>
    <contour>
      <point x="50" y="1364" type="line"/>
      <point x="426" y="1387"/>
      <point x="801" y="1387" type="qcurve" smooth="yes"/>
      <point x="1401" y="1387"/>
      <point x="1401" y="1006" type="qcurve" smooth="yes"/>
      <point x="1401" y="865"/>
      <point x="1259" y="762" type="qcurve" smooth="yes"/>
      <point x="1212" y="728"/>
      <point x="1151" y="703" type="qcurve"/>
      <point x="1434" y="625"/>
      <point x="1434" y="382" type="qcurve" smooth="yes"/>
      <point x="1434" y="147"/>
      <point x="1223" y="58" type="qcurve" smooth="yes"/>
      <point x="1062" y="-10"/>
      <point x="353" y="-10"/>
      <point x="64" y="11" type="qcurve"/>
      <point x="64" y="167" type="line"/>
      <point x="206" y="167" type="line" smooth="yes"/>
      <point x="255" y="167"/>
      <point x="258" y="236" type="qcurve" smooth="yes"/>
      <point x="259" y="256"/>
      <point x="259" y="278" type="qcurve" smooth="yes"/>
      <point x="259" y="1092" type="line" smooth="yes"/>
      <point x="259" y="1159"/>
      <point x="252" y="1197" type="qcurve"/>
      <point x="50" y="1197" type="line"/>
    </contour>
  </outline>
</glyph>
<glyph name="C" format="1">
  <advance width="1477"/>
  <unicode hex="0043"/>
  <outline>
    <contour>
      <point x="84" y="660" type="curve" smooth="yes"/>
      <point x="84" y="1148"/>
      <point x="374" y="1412"/>
      <point x="865" y="1412" type="curve" smooth="yes"/>
      <point x="978" y="1412"/>
      <point x="1065" y="1405"/>
      <point x="1127" y="1390" type="curve" smooth="yes"/>
      <point x="1232" y="1365"/>
      <point x="1322" y="1330"/>
      <point x="1395" y="1284" type="curve" smooth="no"/>
      <point x="1331" y="990" type="line" smooth="no"/>
      <point x="1028" y="1032" type="line" smooth="no"/>
      <point x="1007" y="1222" type="line" smooth="no"/>
      <point x="960" y="1234"/>
      <point x="916" y="1240"/>
      <point x="875" y="1240" type="curve" smooth="yes"/>
      <point x="767" y="1240"/>
      <point x="684" y="1196"/>
      <point x="625" y="1108" type="curve" smooth="yes"/>
      <point x="566" y="1020"/>
      <point x="537" y="886"/>
      <point x="537" y="707" type="curve" smooth="yes"/>
      <point x="537" y="341"/>
      <point x="648" y="158"/>
      <point x="869" y="158" type="curve" smooth="yes"/>
      <point x="1002" y="158"/>
      <point x="1136" y="189"/>
      <point x="1269" y="251" type="curve" smooth="yes"/>
      <point x="1308" y="269"/>
      <point x="1347" y="288"/>
      <point x="1386" y="308" type="curve" smooth="no"/>
      <point x="1411" y="112" type="line" smooth="no"/>
      <point x="1244" y="14"/>
      <point x="1054" y="-35"/>
      <point x="843" y="-35" type="curve" smooth="yes"/>
      <point x="385" y="-34"/>
      <point x="84" y="211"/>
    </contour>
  </outline>
</glyph>
<glyph name="D" format="1">
  <advance width="1675"/>
  <unicode hex="0044"/>
  <outline>
    <contour>
      <point x="768" y="1211" type="line"/>
      <point x="726" y="1210" type="line"/>
      <point x="683" y="1210" type="line"/>
      <point x="683" y="171" type="line"/>
      <point x="692" y="170"/>
      <point x="700" y="170" type="qcurve" smooth="yes"/>
      <point x="717" y="170" type="line" smooth="yes"/>
      <point x="1058" y="170"/>
      <point x="1120" y="473" type="qcurve" smooth="yes"/>
      <point x="1140" y="569"/>
      <point x="1140" y="808"/>
      <point x="1111" y="1001"/>
      <point x="1071" y="1069" type="qcurve" smooth="yes"/>
      <point x="987" y="1211"/>
      <point x="778" y="1211" type="qcurve" smooth="yes"/>
    </contour>
    <contour>
      <point x="248" y="151" type="line"/>
      <point x="254" y="214"/>
      <point x="254" y="278" type="qcurve" smooth="yes"/>
      <point x="254" y="1093" type="line" smooth="yes"/>
      <point x="254" y="1161"/>
      <point x="245" y="1206" type="qcurve"/>
      <point x="50" y="1206" type="line"/>
      <point x="50" y="1366" type="line"/>
      <point x="389" y="1387"/>
      <point x="813" y="1387" type="qcurve" smooth="yes"/>
      <point x="1395" y="1387"/>
      <point x="1541" y="999" type="qcurve" smooth="yes"/>
      <point x="1591" y="866"/>
      <point x="1591" y="500"/>
      <point x="1475" y="242"/>
      <point x="1369" y="160" type="qcurve" smooth="yes"/>
      <point x="1164" y="0"/>
      <point x="786" y="0" type="qcurve" smooth="yes"/>
      <point x="58" y="0" type="line"/>
      <point x="58" y="151" type="line"/>
    </contour>
  </outline>
</glyph>
<glyph name="E" format="1">
  <advance width="1443"/>
  <unicode hex="0045"/>
  <outline>
    <contour>
      <point x="864" y="777" type="line" smooth="yes"/>
      <point x="907" y="777"/>
      <point x="918" y="851"/>
      <point x="932" y="911" type="curve" smooth="no"/>
      <point x="1083" y="911" type="line" smooth="no"/>
      <point x="1083" y="476" type="line" smooth="no"/>
      <point x="1074" y="475"/>
      <point x="1064" y="475"/>
      <point x="1055" y="475" type="curve" smooth="yes"/>
      <point x="932" y="475" type="line" smooth="no"/>
      <point x="916" y="556"/>
      <point x="900" y="602"/>
      <point x="884" y="613" type="curve" smooth="yes"/>
      <point x="879" y="617"/>
      <point x="872" y="619"/>
      <point x="864" y="619" type="curve" smooth="yes"/>
      <point x="691" y="619" type="line" smooth="no"/>
      <point x="691" y="167" type="line" smooth="no"/>
      <point x="971" y="167" type="line" smooth="yes"/>
      <point x="1026" y="167"/>
      <point x="1066" y="171"/>
      <point x="1092" y="180" type="curve" smooth="no"/>
      <point x="1099" y="201"/>
      <point x="1110" y="262"/>
      <point x="1124" y="361" type="curve" smooth="no"/>
      <point x="1167" y="360"/>
      <point x="1209" y="359"/>
      <point x="1252" y="359" type="curve" smooth="yes"/>
      <point x="1391" y="359" type="line" smooth="no"/>
      <point x="1388" y="224"/>
      <point x="1383" y="109"/>
      <point x="1378" y="14" type="curve" smooth="no"/>
      <point x="1221" y="4"/>
      <point x="1093" y="-1"/>
      <point x="996" y="-1" type="curve" smooth="yes"/>
      <point x="408" y="-1" type="line" smooth="no"/>
      <point x="50" y="1" type="line" smooth="no"/>
      <point x="50" y="167" type="line" smooth="no"/>
      <point x="257" y="167" type="line" smooth="no"/>
      <point x="260" y="195"/>
      <point x="262" y="221"/>
      <point x="262" y="245" type="curve" smooth="yes"/>
      <point x="262" y="1111" type="line" smooth="yes"/>
      <point x="262" y="1144"/>
      <point x="260" y="1175"/>
      <point x="257" y="1203" type="curve" smooth="no"/>
      <point x="50" y="1203" type="line" smooth="no"/>
      <point x="50" y="1363" type="line" smooth="no"/>
      <point x="297" y="1379"/>
      <point x="493" y="1387"/>
      <point x="640" y="1387" type="curve" smooth="yes"/>
      <point x="1269" y="1387" type="line" smooth="no"/>
      <point x="1329" y="1388" type="line" smooth="no"/>
      <point x="1384" y="1066" type="line" smooth="no"/>
      <point x="1161" y="1038" type="line" smooth="no"/>
      <point x="1154" y="1093"/>
      <point x="1141" y="1142"/>
      <point x="1120" y="1185" type="curve" smooth="no"/>
      <point x="1036" y="1197"/>
      <point x="965" y="1203"/>
      <point x="908" y="1203" type="curve" smooth="yes"/>
      <point x="691" y="1203" type="line" smooth="no"/>
      <point x="691" y="777" type="line" smooth="no"/>
    </contour>
  </outline>
</glyph>
<glyph name="F" format="1">
  <advance width="1283"/>
  <unicode hex="0046"/>
  <outline>
    <contour>
      <point x="232" y="1111" type="line" smooth="yes"/>
      <point x="232" y="1165"/>
      <point x="227" y="1203" type="qcurve"/>
      <point x="50" y="1203" type="line"/>
      <point x="50" y="1365" type="line"/>
      <point x="384" y="1387"/>
      <point x="520" y="1387" type="qcurve" smooth="yes"/>
      <point x="920" y="1387" type="line" smooth="yes"/>
      <point x="1316" y="1386" type="line"/>
      <point x="1351" y="1046" type="line"/>
      <point x="1128" y="1028" type="line"/>
      <point x="1116" y="1088"/>
      <point x="1091" y="1193" type="qcurve"/>
      <point x="1021" y="1203"/>
      <point x="985" y="1203" type="qcurve" smooth="yes"/>
      <point x="661" y="1203" type="line"/>
      <point x="661" y="777" type="line"/>
      <point x="862" y="777" type="line" smooth="yes"/>
      <point x="905" y="777"/>
      <point x="921" y="869" type="qcurve" smooth="yes"/>
      <point x="925" y="892"/>
      <point x="930" y="911" type="qcurve"/>
      <point x="1081" y="911" type="line"/>
      <point x="1081" y="476" type="line"/>
      <point x="1041" y="475" type="line"/>
      <point x="930" y="475" type="line"/>
      <point x="906" y="597"/>
      <point x="882" y="613" type="qcurve" smooth="yes"/>
      <point x="874" y="619"/>
      <point x="862" y="619" type="qcurve" smooth="yes"/>
      <point x="661" y="619" type="line"/>
      <point x="661" y="259" type="line" smooth="yes"/>
      <point x="661" y="215"/>
      <point x="666" y="167" type="qcurve"/>
      <point x="824" y="167" type="line"/>
      <point x="824" y="-11" type="line"/>
      <point x="597" y="0"/>
      <point x="310" y="0"/>
      <point x="50" y="-11" type="qcurve"/>
      <point x="50" y="167" type="line"/>
      <point x="226" y="167" type="line"/>
      <point x="232" y="194"/>
      <point x="232" y="259" type="qcurve" smooth="yes"/>
    </contour>
  </outline>
</glyph>
<glyph name="G" format="1">
  <advance width="1504"/>
  <unicode hex="0047"/>
  <outline>
    <contour>
      <point x="903" y="1244" type="qcurve" smooth="yes"/>
      <point x="543" y="1244"/>
      <point x="543" y="682" type="qcurve" smooth="yes"/>
      <point x="543" y="327"/>
      <point x="729" y="215" type="qcurve" smooth="yes"/>
      <point x="792" y="177"/>
      <point x="971" y="177"/>
      <point x="1034" y="196" type="qcurve"/>
      <point x="1034" y="405" type="line" smooth="yes"/>
      <point x="1034" y="472"/>
      <point x="1027" y="499" type="qcurve"/>
      <point x="814" y="499" type="line"/>
      <point x="814" y="624" type="line"/>
      <point x="1106" y="661"/>
      <point x="1414" y="661" type="qcurve" smooth="yes"/>
      <point x="1458" y="661" type="line"/>
      <point x="1458" y="136" type="line"/>
      <point x="1210" y="-22"/>
      <point x="874" y="-22" type="qcurve" smooth="yes"/>
      <point x="512" y="-22"/>
      <point x="304" y="155" type="qcurve" smooth="yes"/>
      <point x="91" y="337"/>
      <point x="91" y="662" type="qcurve" smooth="yes"/>
      <point x="91" y="1038"/>
      <point x="323" y="1230" type="qcurve" smooth="yes"/>
      <point x="543" y="1412"/>
      <point x="942" y="1412" type="qcurve" smooth="yes"/>
      <point x="1166" y="1412"/>
      <point x="1358" y="1334" type="qcurve" smooth="yes"/>
      <point x="1416" y="1310"/>
      <point x="1452" y="1283" type="qcurve"/>
      <point x="1388" y="987" type="line"/>
      <point x="1083" y="1028" type="line"/>
      <point x="1079" y="1085"/>
      <point x="1068" y="1186"/>
      <point x="1065" y="1220" type="qcurve"/>
      <point x="976" y="1244"/>
    </contour>
  </outline>
</glyph>
<glyph name="H" format="1">
  <advance width="1759"/>
  <unicode hex="0048"/>
  <outline>
    <contour>
      <point x="827" y="-11" type="line" smooth="no"/>
      <point x="676" y="-4"/>
      <point x="552" y="0"/>
      <point x="456" y="0" type="curve" smooth="yes"/>
      <point x="360" y="0"/>
      <point x="226" y="-4"/>
      <point x="53" y="-11" type="curve" smooth="no"/>
      <point x="53" y="167" type="line" smooth="no"/>
      <point x="229" y="167" type="line" smooth="no"/>
      <point x="233" y="185"/>
      <point x="235" y="216"/>
      <point x="235" y="259" type="curve" smooth="yes"/>
      <point x="235" y="1123" type="line" smooth="no"/>
      <point x="232" y="1164"/>
      <point x="230" y="1195"/>
      <point x="227" y="1215" type="curve" smooth="no"/>
      <point x="50" y="1215" type="line" smooth="no"/>
      <point x="50" y="1377" type="line" smooth="no"/>
      <point x="190" y="1392"/>
      <point x="329" y="1399"/>
      <point x="466" y="1399" type="curve" smooth="yes"/>
      <point x="603" y="1399"/>
      <point x="723" y="1394"/>
      <point x="824" y="1383" type="curve" smooth="no"/>
      <point x="824" y="1215" type="line" smooth="no"/>
      <point x="666" y="1215" type="line" smooth="no"/>
      <point x="663" y="1188"/>
      <point x="661" y="1163"/>
      <point x="661" y="1139" type="curve" smooth="yes"/>
      <point x="661" y="805" type="line" smooth="no"/>
      <point x="1097" y="805" type="line" smooth="no"/>
      <point x="1097" y="1123" type="line" smooth="no"/>
      <point x="1089" y="1215" type="line" smooth="no"/>
      <point x="932" y="1215" type="line" smooth="no"/>
      <point x="932" y="1377" type="line" smooth="no"/>
      <point x="1072" y="1392"/>
      <point x="1211" y="1399"/>
      <point x="1348" y="1399" type="curve" smooth="yes"/>
      <point x="1485" y="1399"/>
      <point x="1605" y="1394"/>
      <point x="1706" y="1383" type="curve" smooth="no"/>
      <point x="1706" y="1215" type="line" smooth="no"/>
      <point x="1528" y="1215" type="line" smooth="no"/>
      <point x="1525" y="1187"/>
      <point x="1523" y="1156"/>
      <point x="1523" y="1123" type="curve" smooth="yes"/>
      <point x="1523" y="259" type="line" smooth="no"/>
      <point x="1526" y="223"/>
      <point x="1528" y="192"/>
      <point x="1531" y="167" type="curve" smooth="no"/>
      <point x="1709" y="167" type="line" smooth="no"/>
      <point x="1709" y="-11" type="line" smooth="no"/>
      <point x="1549" y="-4"/>
      <point x="1421" y="0"/>
      <point x="1325" y="0" type="curve" smooth="yes"/>
      <point x="1229" y="0"/>
      <point x="1099" y="-4"/>
      <point x="935" y="-11" type="curve" smooth="no"/>
      <point x="935" y="167" type="line" smooth="no"/>
      <point x="1091" y="167" type="line" smooth="no"/>
      <point x="1095" y="185"/>
      <point x="1097" y="216"/>
      <point x="1097" y="259" type="curve" smooth="yes"/>
      <point x="1097" y="623" type="line" smooth="no"/>
      <point x="664" y="623" type="line" smooth="no"/>
      <point x="664" y="259" type="line" smooth="yes"/>
      <point x="664" y="230"/>
      <point x="666" y="199"/>
      <point x="669" y="167" type="curve" smooth="no"/>
      <point x="827" y="167" type="line" smooth="no"/>
    </contour>
  </outline>
</glyph>
<glyph name="I" format="1">
  <advance width="906"/>
  <unicode hex="0049"/>
  <outline>
    <contour>
      <point x="860" y="-11" type="line" smooth="no"/>
      <point x="696" y="-4"/>
      <point x="564" y="0"/>
      <point x="463" y="0" type="curve" smooth="yes"/>
      <point x="362" y="0"/>
      <point x="223" y="-4"/>
      <point x="46" y="-11" type="curve" smooth="no"/>
      <point x="46" y="167" type="line" smooth="no"/>
      <point x="232" y="167" type="line" smooth="no"/>
      <point x="236" y="185"/>
      <point x="238" y="216"/>
      <point x="238" y="259" type="curve" smooth="yes"/>
      <point x="238" y="1123" type="line" smooth="yes"/>
      <point x="238" y="1159"/>
      <point x="236" y="1190"/>
      <point x="233" y="1215" type="curve" smooth="no"/>
      <point x="46" y="1215" type="line" smooth="no"/>
      <point x="46" y="1377" type="line" smooth="no"/>
      <point x="191" y="1392"/>
      <point x="335" y="1399"/>
      <point x="478" y="1399" type="curve" smooth="yes"/>
      <point x="621" y="1399"/>
      <point x="748" y="1394"/>
      <point x="860" y="1383" type="curve" smooth="no"/>
      <point x="860" y="1215" type="line" smooth="no"/>
      <point x="672" y="1215" type="line" smooth="no"/>
      <point x="669" y="1187"/>
      <point x="667" y="1156"/>
      <point x="667" y="1123" type="curve" smooth="yes"/>
      <point x="667" y="259" type="line" smooth="yes"/>
      <point x="667" y="230"/>
      <point x="669" y="199"/>
      <point x="672" y="167" type="curve" smooth="no"/>
      <point x="860" y="167" type="line" smooth="no"/>
    </contour>
  </outline>
</glyph>
<glyph name="J" format="1">
  <advance width="1015"/>
  <unicode hex="004A"/>
  <outline>
    <contour>
      <point x="201" y="1378" type="line"/>
      <point x="419" y="1400"/>
      <point x="847" y="1400"/>
      <point x="1015" y="1384" type="qcurve"/>
      <point x="1015" y="1216" type="line"/>
      <point x="827" y="1216" type="line"/>
      <point x="823" y="1188"/>
      <point x="823" y="1124" type="qcurve" smooth="yes"/>
      <point x="823" y="216" type="line" smooth="yes"/>
      <point x="823" y="-22"/>
      <point x="579" y="-276"/>
      <point x="144" y="-276"/>
      <point x="16" y="-221" type="qcurve"/>
      <point x="16" y="-186"/>
      <point x="30" y="-30" type="qcurve"/>
      <point x="44" y="143" type="line"/>
      <point x="288" y="143" type="line"/>
      <point x="302" y="-93" type="line"/>
      <point x="329" y="-105"/>
      <point x="353" y="-105" type="qcurve" smooth="yes"/>
      <point x="457" y="-105"/>
      <point x="457" y="2" type="qcurve" smooth="yes"/>
      <point x="457" y="65"/>
      <point x="438" y="130" type="qcurve" smooth="yes"/>
      <point x="403" y="250" type="line" smooth="yes"/>
      <point x="393" y="284"/>
      <point x="393" y="312" type="qcurve" smooth="yes"/>
      <point x="393" y="1124" type="line" smooth="yes"/>
      <point x="393" y="1178"/>
      <point x="388" y="1216" type="qcurve"/>
      <point x="201" y="1216" type="line"/>
    </contour>
  </outline>
</glyph>
<glyph name="K" format="1">
  <advance width="1802"/>
  <unicode hex="004b"/>
  <outline>
    <contour>
      <point x="864" y="-11" type="line" smooth="no"/>
      <point x="700" y="-4"/>
      <point x="568" y="0"/>
      <point x="467" y="0" type="curve" smooth="yes"/>
      <point x="366" y="0"/>
      <point x="227" y="-4"/>
      <point x="50" y="-11" type="curve" smooth="no"/>
      <point x="50" y="167" type="line" smooth="no"/>
      <point x="236" y="167" type="line" smooth="no"/>
      <point x="240" y="185"/>
      <point x="242" y="216"/>
      <point x="242" y="259" type="curve" smooth="yes"/>
      <point x="242" y="1123" type="line" smooth="yes"/>
      <point x="242" y="1159"/>
      <point x="240" y="1190"/>
      <point x="237" y="1215" type="curve" smooth="no"/>
      <point x="50" y="1215" type="line" smooth="no"/>
      <point x="50" y="1377" type="line" smooth="no"/>
      <point x="195" y="1392"/>
      <point x="339" y="1399"/>
      <point x="482" y="1399" type="curve" smooth="yes"/>
      <point x="625" y="1399"/>
      <point x="752" y="1394"/>
      <point x="864" y="1383" type="curve" smooth="no"/>
      <point x="864" y="1215" type="line" smooth="no"/>
      <point x="676" y="1215" type="line" smooth="no"/>
      <point x="673" y="1187"/>
      <point x="671" y="1156"/>
      <point x="671" y="1123" type="curve" smooth="yes"/>
      <point x="671" y="259" type="line" smooth="yes"/>
      <point x="671" y="230"/>
      <point x="673" y="199"/>
      <point x="676" y="167" type="curve" smooth="no"/>
      <point x="864" y="167" type="line" smooth="no"/>
    </contour>
    <contour>
      <point x="1802" y="-11" type="line" smooth="no"/>
      <point x="1660" y="-4"/>
      <point x="1545" y="0"/>
      <point x="1458" y="0" type="curve" smooth="yes"/>
      <point x="1371" y="0"/>
      <point x="1218" y="-4"/>
      <point x="998" y="-11" type="curve" smooth="no"/>
      <point x="988" y="167" type="line" smooth="no"/>
      <point x="1065" y="167" type="line" smooth="no"/>
      <point x="1050" y="201"/>
      <point x="1041" y="229"/>
      <point x="1020" y="259" type="curve" smooth="yes"/>
      <point x="702" y="728" type="line" smooth="no"/>
      <point x="1082" y="1123" type="line" smooth="yes"/>
      <point x="1133" y="1175"/>
      <point x="1161" y="1206"/>
      <point x="1168" y="1215" type="curve" smooth="no"/>
      <point x="981" y="1215" type="line" smooth="no"/>
      <point x="972" y="1377" type="line" smooth="no"/>
      <point x="1129" y="1392"/>
      <point x="1259" y="1399"/>
      <point x="1360" y="1399" type="curve" smooth="yes"/>
      <point x="1545" y="1399"/>
      <point x="1686" y="1394"/>
      <point x="1782" y="1383" type="curve" smooth="no"/>
      <point x="1705" y="1215" type="line" smooth="no"/>
      <point x="1517" y="1215" type="line" smooth="no"/>
      <point x="1502" y="1202"/>
      <point x="1470" y="1171"/>
      <point x="1421" y="1123" type="curve" smooth="yes"/>
      <point x="1125" y="832" type="line" smooth="no"/>
      <point x="1559" y="259" type="line" smooth="yes"/>
      <point x="1574" y="238"/>
      <point x="1603" y="207"/>
      <point x="1645" y="167" type="curve" smooth="no"/>
      <point x="1753" y="167" type="line" smooth="no"/>
    </contour>
  </outline>
</glyph>
<glyph name="L" format="1">
  <advance width="1378"/>
  <unicode hex="004C"/>
  <outline>
    <contour>
      <point x="50" y="1377" type="line"/>
      <point x="268" y="1399"/>
      <point x="697" y="1399"/>
      <point x="865" y="1383" type="qcurve"/>
      <point x="865" y="1215" type="line"/>
      <point x="678" y="1215" type="line"/>
      <point x="671" y="1186"/>
      <point x="671" y="1129" type="qcurve" smooth="yes"/>
      <point x="671" y="167" type="line"/>
      <point x="900" y="167" type="line" smooth="yes"/>
      <point x="988" y="166"/>
      <point x="1022" y="258" type="qcurve" smooth="yes"/>
      <point x="1030" y="282"/>
      <point x="1047" y="338"/>
      <point x="1073" y="417"/>
      <point x="1089" y="471" type="qcurve"/>
      <point x="1324" y="439" type="line"/>
      <point x="1282" y="0" type="line"/>
      <point x="861" y="0" type="line" smooth="yes"/>
      <point x="219" y="0"/>
      <point x="116" y="-12" type="qcurve"/>
      <point x="116" y="167" type="line"/>
      <point x="238" y="167" type="line"/>
      <point x="242" y="257"/>
      <point x="242" y="326" type="qcurve" smooth="yes"/>
      <point x="242" y="1129" type="line" smooth="yes"/>
      <point x="242" y="1175"/>
      <point x="237" y="1215" type="qcurve"/>
      <point x="50" y="1215" type="line"/>
    </contour>
  </outline>
</glyph>
<glyph name="M" format="1">
  <advance width="2220"/>
  <unicode hex="004d"/>
  <outline>
    <contour>
      <point x="153" y="1382" type="line" smooth="no"/>
      <point x="324" y="1393"/>
      <point x="454" y="1399"/>
      <point x="541" y="1399" type="curve" smooth="yes"/>
      <point x="672" y="1399"/>
      <point x="769" y="1391"/>
      <point x="833" y="1376" type="curve" smooth="no"/>
      <point x="875" y="1247"/>
      <point x="1065" y="693"/>
      <point x="1104" y="577" type="curve" smooth="no"/>
      <point x="1274" y="1078" type="line" smooth="yes"/>
      <point x="1336" y="1260"/>
      <point x="1371" y="1359"/>
      <point x="1378" y="1376" type="curve" smooth="no"/>
      <point x="1439" y="1391"/>
      <point x="1526" y="1399"/>
      <point x="1636" y="1399" type="curve" smooth="yes"/>
      <point x="1746" y="1399"/>
      <point x="1887" y="1393"/>
      <point x="2058" y="1382" type="curve" smooth="no"/>
      <point x="2058" y="1215" type="line" smooth="no"/>
      <point x="1865" y="1215" type="line" smooth="no"/>
      <point x="1886" y="947"/>
      <point x="1917" y="663"/>
      <point x="1943" y="400" type="curve" smooth="yes"/>
      <point x="1956" y="260"/>
      <point x="1966" y="182"/>
      <point x="1971" y="167" type="curve" smooth="no"/>
      <point x="2156" y="167" type="line" smooth="no"/>
      <point x="2174" y="-16" type="line" smooth="no"/>
      <point x="1947" y="4"/>
      <point x="1691" y="6"/>
      <point x="1408" y="-11" type="curve" smooth="no"/>
      <point x="1420" y="167" type="line" smooth="no"/>
      <point x="1536" y="167" type="line" smooth="no"/>
      <point x="1483" y="757" type="line" smooth="no"/>
      <point x="1414" y="515"/>
      <point x="1341" y="263"/>
      <point x="1263" y="2" type="curve" smooth="no"/>
      <point x="894" y="2" type="line" smooth="no"/>
      <point x="806" y="252"/>
      <point x="718" y="497"/>
      <point x="628" y="760" type="curve" smooth="no"/>
      <point x="606" y="560"/>
      <point x="584" y="364"/>
      <point x="566" y="167" type="curve" smooth="no"/>
      <point x="754" y="167" type="line" smooth="no"/>
      <point x="736" y="-11" type="line" smooth="no"/>
      <point x="589" y="-4"/>
      <point x="472" y="0"/>
      <point x="383" y="0" type="curve" smooth="yes"/>
      <point x="294" y="0"/>
      <point x="183" y="-5"/>
      <point x="50" y="-16" type="curve" smooth="no"/>
      <point x="68" y="167" type="line" smooth="no"/>
      <point x="253" y="167" type="line" smooth="no"/>
      <point x="359" y="1151" type="line" smooth="yes"/>
      <point x="360" y="1154"/>
      <point x="360" y="1158"/>
      <point x="360" y="1162" type="curve" smooth="yes"/>
      <point x="360" y="1172" type="line" smooth="yes"/>
      <point x="360" y="1185"/>
      <point x="359" y="1199"/>
      <point x="357" y="1215" type="curve" smooth="no"/>
      <point x="153" y="1215" type="line" smooth="no"/>
    </contour>
  </outline>
</glyph>
<glyph name="N" format="1">
  <advance width="1736"/>
  <unicode hex="004e"/>
  <outline>
    <contour>
      <point x="799" y="-13" type="line" smooth="no"/>
      <point x="546" y="2"/>
      <point x="297" y="2"/>
      <point x="50" y="-13" type="curve" smooth="no"/>
      <point x="50" y="167" type="line" smooth="no"/>
      <point x="256" y="167" type="line" smooth="no"/>
      <point x="260" y="184"/>
      <point x="262" y="214"/>
      <point x="262" y="259" type="curve" smooth="yes"/>
      <point x="262" y="1123" type="line" smooth="yes"/>
      <point x="262" y="1156"/>
      <point x="260" y="1187"/>
      <point x="257" y="1215" type="curve" smooth="no"/>
      <point x="50" y="1215" type="line" smooth="no"/>
      <point x="50" y="1370" type="line" smooth="no"/>
      <point x="188" y="1389"/>
      <point x="300" y="1399"/>
      <point x="386" y="1399" type="curve" smooth="yes"/>
      <point x="504" y="1399"/>
      <point x="601" y="1392"/>
      <point x="677" y="1377" type="curve" smooth="no"/>
      <point x="811" y="1172"/>
      <point x="986" y="911"/>
      <point x="1202" y="595" type="curve" smooth="no"/>
      <point x="1202" y="1123" type="line" smooth="yes"/>
      <point x="1202" y="1168"/>
      <point x="1199" y="1200"/>
      <point x="1194" y="1217" type="curve" smooth="no"/>
      <point x="990" y="1217" type="line" smooth="no"/>
      <point x="990" y="1381" type="line" smooth="no"/>
      <point x="1067" y="1393"/>
      <point x="1175" y="1399"/>
      <point x="1316" y="1399" type="curve" smooth="yes"/>
      <point x="1457" y="1399"/>
      <point x="1582" y="1395"/>
      <point x="1690" y="1386" type="curve" smooth="no"/>
      <point x="1690" y="1217" type="line" smooth="no"/>
      <point x="1508" y="1217" type="line" smooth="no"/>
      <point x="1505" y="1194"/>
      <point x="1503" y="1163"/>
      <point x="1503" y="1125" type="curve" smooth="yes"/>
      <point x="1503" y="0" type="line" smooth="no"/>
      <point x="1270" y="0" type="line" smooth="yes"/>
      <point x="1228" y="0"/>
      <point x="1170" y="4"/>
      <point x="1095" y="11" type="curve" smooth="no"/>
      <point x="595" y="791" type="line" smooth="no"/>
      <point x="595" y="262" type="line" smooth="no"/>
      <point x="601" y="167" type="line" smooth="no"/>
      <point x="799" y="167" type="line" smooth="no"/>
    </contour>
  </outline>
</glyph>
<glyph name="O" format="1">
  <advance width="1623"/>
  <unicode hex="004F"/>
  <outline>
    <contour>
      <point x="1542" y="688" type="qcurve" smooth="yes"/>
      <point x="1542" y="520"/>
      <point x="1440" y="256"/>
      <point x="1345" y="165" type="qcurve" smooth="yes"/>
      <point x="1150" y="-22"/>
      <point x="812" y="-22" type="qcurve" smooth="yes"/>
      <point x="470" y="-22"/>
      <point x="275" y="169" type="qcurve" smooth="yes"/>
      <point x="81" y="359"/>
      <point x="81" y="689" type="qcurve" smooth="yes"/>
      <point x="80" y="1030"/>
      <point x="276" y="1222" type="qcurve" smooth="yes"/>
      <point x="470" y="1412"/>
      <point x="1154" y="1412"/>
      <point x="1349" y="1218" type="qcurve" smooth="yes"/>
      <point x="1542" y="1026"/>
    </contour>
    <contour>
      <point x="533" y="686" type="qcurve" smooth="yes"/>
      <point x="533" y="167"/>
      <point x="812" y="167" type="qcurve" smooth="yes"/>
      <point x="945" y="167"/>
      <point x="1091" y="424"/>
      <point x="1091" y="955"/>
      <point x="947" y="1223"/>
      <point x="680" y="1223"/>
      <point x="533" y="957"/>
    </contour>
  </outline>
</glyph>
<glyph name="P" format="1">
  <advance width="1426"/>
  <unicode hex="0050"/>
  <outline>
    <contour>
      <point x="706" y="1215" type="qcurve" smooth="yes"/>
      <point x="693" y="1215" type="line"/>
      <point x="693" y="720" type="line"/>
      <point x="716" y="720" type="line" smooth="yes"/>
      <point x="835" y="720"/>
      <point x="940" y="843"/>
      <point x="940" y="1098"/>
      <point x="831" y="1215"/>
    </contour>
    <contour>
      <point x="53" y="1379" type="line"/>
      <point x="353" y="1399"/>
      <point x="882" y="1399"/>
      <point x="1112" y="1363"/>
      <point x="1196" y="1316" type="qcurve" smooth="yes"/>
      <point x="1376" y="1216"/>
      <point x="1376" y="974" type="qcurve" smooth="yes"/>
      <point x="1376" y="772"/>
      <point x="1075" y="549"/>
      <point x="773" y="549" type="qcurve" smooth="yes"/>
      <point x="695" y="549" type="line"/>
      <point x="695" y="343" type="line"/>
      <point x="694" y="265" type="line"/>
      <point x="694" y="250" type="line"/>
      <point x="700" y="167" type="line"/>
      <point x="898" y="167" type="line"/>
      <point x="898" y="-13" type="line"/>
      <point x="471" y="10"/>
      <point x="50" y="-13" type="qcurve"/>
      <point x="50" y="167" type="line"/>
      <point x="256" y="167" type="line"/>
      <point x="263" y="205"/>
      <point x="263" y="259" type="qcurve" smooth="yes"/>
      <point x="263" y="1128" type="line" smooth="yes"/>
      <point x="263" y="1180"/>
      <point x="258" y="1215" type="qcurve"/>
      <point x="53" y="1215" type="line"/>
    </contour>
  </outline>
</glyph>
<glyph name="Q" format="1">
  <advance width="1702"/>
  <unicode hex="0051"/>
  <outline>
    <contour>
      <point x="543" y="686" type="curve" smooth="yes"/>
      <point x="543" y="340"/>
      <point x="636" y="167"/>
      <point x="822" y="167" type="curve" smooth="yes"/>
      <point x="911" y="167"/>
      <point x="979" y="210"/>
      <point x="1028" y="296" type="curve" smooth="yes"/>
      <point x="1077" y="382"/>
      <point x="1101" y="513"/>
      <point x="1101" y="690" type="curve" smooth="yes"/>
      <point x="1101" y="867"/>
      <point x="1077" y="1000"/>
      <point x="1029" y="1089" type="curve" smooth="yes"/>
      <point x="981" y="1178"/>
      <point x="913" y="1223"/>
      <point x="824" y="1223" type="curve" smooth="yes"/>
      <point x="735" y="1223"/>
      <point x="665" y="1179"/>
      <point x="616" y="1090" type="curve" smooth="yes"/>
      <point x="567" y="1001"/>
      <point x="543" y="867"/>
    </contour>
    <contour>
      <point x="1552" y="689" type="curve" smooth="yes"/>
      <point x="1552" y="335"/>
      <point x="1378" y="98"/>
      <point x="1082" y="12" type="curve" smooth="no"/>
      <point x="1125" y="-22"/>
      <point x="1177" y="-39"/>
      <point x="1238" y="-39" type="curve" smooth="yes"/>
      <point x="1350" y="-39"/>
      <point x="1458" y="-25"/>
      <point x="1563" y="4" type="curve" smooth="no"/>
      <point x="1611" y="-155" type="line" smooth="no"/>
      <point x="1435" y="-217"/>
      <point x="1273" y="-248"/>
      <point x="1126" y="-248" type="curve" smooth="yes"/>
      <point x="950" y="-248"/>
      <point x="804" y="-199"/>
      <point x="688" y="-102" type="curve" smooth="yes"/>
      <point x="651" y="-70"/>
      <point x="615" y="-34"/>
      <point x="581" y="7" type="curve" smooth="no"/>
      <point x="281" y="86"/>
      <point x="91" y="320"/>
      <point x="91" y="689" type="curve" smooth="yes"/>
      <point x="90" y="1143"/>
      <point x="367" y="1412"/>
      <point x="822" y="1412" type="curve" smooth="yes"/>
      <point x="1273" y="1412"/>
      <point x="1552" y="1140"/>
    </contour>
  </outline>
</glyph>
<glyph name="R" format="1">
  <advance width="1571"/>
  <unicode hex="0052"/>
  <outline>
    <contour>
      <point x="743" y="739" type="line" smooth="yes"/>
      <point x="954" y="739"/>
      <point x="954" y="983" type="qcurve" smooth="yes"/>
      <point x="954" y="1108"/>
      <point x="846" y="1216"/>
      <point x="721" y="1215" type="qcurve" smooth="yes"/>
      <point x="692" y="1215" type="line"/>
      <point x="692" y="739" type="line"/>
    </contour>
    <contour>
      <point x="835" y="-11" type="line"/>
      <point x="622" y="0"/>
      <point x="345" y="0"/>
      <point x="88" y="-11" type="qcurve"/>
      <point x="88" y="167" type="line"/>
      <point x="254" y="167" type="line"/>
      <point x="260" y="194"/>
      <point x="260" y="259" type="qcurve" smooth="yes"/>
      <point x="260" y="1127" type="line" smooth="yes"/>
      <point x="260" y="1180"/>
      <point x="255" y="1215" type="qcurve"/>
      <point x="50" y="1215" type="line"/>
      <point x="50" y="1382" type="line"/>
      <point x="411" y="1399"/>
      <point x="808" y="1399"/>
      <point x="973" y="1388"/>
      <point x="1121" y="1356"/>
      <point x="1184" y="1327.5" type="qcurve" smooth="yes"/>
      <point x="1246" y="1299"/>
      <point x="1292" y="1254" type="qcurve" smooth="yes"/>
      <point x="1390" y="1158"/>
      <point x="1390" y="991" type="qcurve" smooth="yes"/>
      <point x="1390" y="765"/>
      <point x="1064" y="651" type="qcurve"/>
      <point x="1218" y="582"/>
      <point x="1288" y="474" type="qcurve" smooth="yes"/>
      <point x="1337" y="398"/>
      <point x="1395" y="193" type="qcurve"/>
      <point x="1563" y="193" type="line"/>
      <point x="1563" y="-1" type="line"/>
      <point x="1501" y="-6"/>
      <point x="1376" y="-20"/>
      <point x="1224" y="-20"/>
      <point x="1102" y="31"/>
      <point x="1017" y="114"/>
      <point x="961" y="220"/>
      <point x="922" y="331"/>
      <point x="892" y="438"/>
      <point x="874" y="480" type="qcurve" smooth="yes"/>
      <point x="835" y="573"/>
      <point x="777" y="572" type="qcurve" smooth="yes"/>
      <point x="692" y="572" type="line"/>
      <point x="692" y="259" type="line" smooth="yes"/>
      <point x="692" y="215"/>
      <point x="697" y="167" type="qcurve"/>
      <point x="835" y="167" type="line"/>
    </contour>
  </outline>
</glyph>
<glyph name="S" format="1">
  <advance width="1304"/>
  <unicode hex="0053"/>
  <outline>
    <contour>
      <point x="75" y="1032" type="curve" smooth="yes"/>
      <point x="75" y="1307"/>
      <point x="375" y="1412"/>
      <point x="679" y="1412" type="curve" smooth="yes"/>
      <point x="879" y="1412"/>
      <point x="1039" y="1369"/>
      <point x="1160" y="1283" type="curve" smooth="no"/>
      <point x="1098" y="990" type="line" smooth="no"/>
      <point x="795" y="1032" type="line" smooth="no"/>
      <point x="786" y="1097"/>
      <point x="777" y="1165"/>
      <point x="768" y="1229" type="curve" smooth="no"/>
      <point x="728" y="1237"/>
      <point x="695" y="1241"/>
      <point x="668" y="1241" type="curve" smooth="yes"/>
      <point x="559" y="1241"/>
      <point x="504" y="1197"/>
      <point x="504" y="1109" type="curve" smooth="yes"/>
      <point x="504" y="980"/>
      <point x="592" y="925"/>
      <point x="692" y="882" type="curve" smooth="yes"/>
      <point x="865" y="806"/>
      <point x="1026" y="744"/>
      <point x="1140" y="612" type="curve" smooth="yes"/>
      <point x="1195" y="548"/>
      <point x="1222" y="480"/>
      <point x="1222" y="410" type="curve" smooth="yes"/>
      <point x="1222" y="257"/>
      <point x="1158" y="162"/>
      <point x="1065" y="94" type="curve" smooth="yes"/>
      <point x="958" y="16"/>
      <point x="817" y="-23"/>
      <point x="640" y="-22" type="curve" smooth="no"/>
      <point x="438" y="-22"/>
      <point x="206" y="33"/>
      <point x="64" y="130" type="curve" smooth="no"/>
      <point x="144" y="436" type="line" smooth="no"/>
      <point x="420" y="383" type="line" smooth="no"/>
      <point x="425" y="308"/>
      <point x="432" y="242"/>
      <point x="440" y="185" type="curve" smooth="no"/>
      <point x="507" y="170"/>
      <point x="563" y="162"/>
      <point x="610" y="162" type="curve" smooth="yes"/>
      <point x="728" y="162"/>
      <point x="787" y="212"/>
      <point x="787" y="312" type="curve" smooth="yes"/>
      <point x="787" y="379"/>
      <point x="763" y="432"/>
      <point x="715" y="471" type="curve" smooth="yes"/>
      <point x="682" y="497"/>
      <point x="602" y="537"/>
      <point x="474" y="591" type="curve" smooth="yes"/>
      <point x="346" y="645"/>
      <point x="247" y="709"/>
      <point x="178" y="784" type="curve" smooth="yes"/>
      <point x="109" y="859"/>
      <point x="75" y="941"/>
    </contour>
  </outline>
</glyph>
<glyph name="T" format="1">
  <advance width="1438"/>
  <unicode hex="0054"/>
  <outline>
    <contour>
      <point x="1128" y="-11" type="line"/>
      <point x="882" y="0"/>
      <point x="577" y="0"/>
      <point x="311" y="-11" type="qcurve"/>
      <point x="311" y="167" type="line"/>
      <point x="497" y="167" type="line"/>
      <point x="503" y="194"/>
      <point x="503" y="259" type="qcurve" smooth="yes"/>
      <point x="503" y="1203" type="line"/>
      <point x="248" y="1203" type="line"/>
      <point x="230" y="1071"/>
      <point x="227" y="1011" type="qcurve"/>
      <point x="25" y="1011" type="line"/>
      <point x="16" y="1369" type="line"/>
      <point x="68" y="1388"/>
      <point x="294" y="1388" type="qcurve" smooth="yes"/>
      <point x="1144" y="1388" type="line" smooth="yes"/>
      <point x="1370" y="1388"/>
      <point x="1422" y="1369" type="qcurve"/>
      <point x="1413" y="1011" type="line"/>
      <point x="1211" y="1011" type="line"/>
      <point x="1209" y="1027"/>
      <point x="1206" y="1056"/>
      <point x="1203" y="1091"/>
      <point x="1201" y="1109" type="qcurve" smooth="yes"/>
      <point x="1191" y="1205" type="line"/>
      <point x="935" y="1205" type="line"/>
      <point x="935" y="259" type="line" smooth="yes"/>
      <point x="935" y="215"/>
      <point x="940" y="167" type="qcurve"/>
      <point x="1128" y="167" type="line"/>
    </contour>
  </outline>
</glyph>
<glyph name="U" format="1">
  <advance width="1705"/>
  <unicode hex="0055"/>
  <outline>
    <contour>
      <point x="1485" y="514" type="line" smooth="yes"/>
      <point x="1485" y="148"/>
      <point x="1214" y="-22"/>
      <point x="828" y="-22" type="curve" smooth="yes"/>
      <point x="422" y="-22"/>
      <point x="219" y="178"/>
      <point x="219" y="578" type="curve" smooth="yes"/>
      <point x="219" y="1123" type="line" smooth="yes"/>
      <point x="219" y="1159"/>
      <point x="217" y="1190"/>
      <point x="214" y="1215" type="curve" smooth="no"/>
      <point x="27" y="1215" type="line" smooth="no"/>
      <point x="27" y="1387" type="line" smooth="no"/>
      <point x="180" y="1395"/>
      <point x="330" y="1399"/>
      <point x="479" y="1399" type="curve" smooth="yes"/>
      <point x="628" y="1399"/>
      <point x="739" y="1395"/>
      <point x="814" y="1387" type="curve" smooth="no"/>
      <point x="814" y="1215" type="line" smooth="no"/>
      <point x="656" y="1215" type="line" smooth="no"/>
      <point x="651" y="1186"/>
      <point x="649" y="1155"/>
      <point x="649" y="1123" type="curve" smooth="yes"/>
      <point x="649" y="510" type="line" smooth="yes"/>
      <point x="649" y="346"/>
      <point x="691" y="240"/>
      <point x="776" y="191" type="curve" smooth="yes"/>
      <point x="804" y="175"/>
      <point x="839" y="167"/>
      <point x="880" y="167" type="curve" smooth="yes"/>
      <point x="971" y="167"/>
      <point x="1023" y="222"/>
      <point x="1054" y="288" type="curve" smooth="no"/>
      <point x="1083" y="353"/>
      <point x="1098" y="449"/>
      <point x="1099" y="577" type="curve" smooth="no"/>
      <point x="1099" y="1123" type="line" smooth="yes"/>
      <point x="1099" y="1159"/>
      <point x="1097" y="1190"/>
      <point x="1094" y="1215" type="curve" smooth="no"/>
      <point x="947" y="1215" type="line" smooth="no"/>
      <point x="947" y="1387" type="line" smooth="no"/>
      <point x="1061" y="1395"/>
      <point x="1192" y="1399"/>
      <point x="1340" y="1399" type="curve" smooth="yes"/>
      <point x="1488" y="1399"/>
      <point x="1601" y="1395"/>
      <point x="1678" y="1387" type="curve" smooth="no"/>
      <point x="1678" y="1215" type="line" smooth="no"/>
      <point x="1490" y="1215" type="line" smooth="no"/>
      <point x="1487" y="1187"/>
      <point x="1485" y="1156"/>
      <point x="1485" y="1123" type="curve" smooth="yes"/>
    </contour>
  </outline>
</glyph>
<glyph name="V" format="1">
  <advance width="1746"/>
  <unicode hex="0056"/>
  <outline>
    <contour>
      <point x="0" y="1387" type="line"/>
      <point x="184" y="1399"/>
      <point x="605" y="1399"/>
      <point x="736" y="1387" type="qcurve"/>
      <point x="781" y="1215" type="line"/>
      <point x="653" y="1215" type="line"/>
      <point x="670" y="1166"/>
      <point x="685" y="1128" type="qcurve"/>
      <point x="923" y="452" type="line"/>
      <point x="1129" y="1123" type="line" smooth="yes"/>
      <point x="1142" y="1164"/>
      <point x="1153" y="1215" type="qcurve"/>
      <point x="1025" y="1215" type="line"/>
      <point x="1070" y="1387" type="line"/>
      <point x="1182" y="1399"/>
      <point x="1560" y="1399"/>
      <point x="1746" y="1387" type="qcurve"/>
      <point x="1722" y="1215" type="line"/>
      <point x="1545" y="1215" type="line"/>
      <point x="1531" y="1193"/>
      <point x="1404" y="793"/>
      <point x="1183" y="226"/>
      <point x="1064" y="-11" type="qcurve"/>
      <point x="872" y="-11" type="line" smooth="yes"/>
      <point x="778" y="-11"/>
      <point x="668" y="22"/>
      <point x="649" y="74" type="qcurve" smooth="yes"/>
      <point x="247" y="1123" type="line" smooth="yes"/>
      <point x="221" y="1189"/>
      <point x="201" y="1215" type="qcurve"/>
      <point x="24" y="1215" type="line"/>
    </contour>
  </outline>
</glyph>
<glyph name="W" format="1">
  <advance width="2458"/>
  <unicode hex="0057"/>
  <outline>
    <contour>
      <point x="1215" y="696" type="line" smooth="no"/>
      <point x="1148" y="421"/>
      <point x="1085" y="185"/>
      <point x="1024" y="-11" type="curve" smooth="no"/>
      <point x="752" y="-11" type="line" smooth="yes"/>
      <point x="669" y="-11"/>
      <point x="624" y="8"/>
      <point x="609" y="74" type="curve" smooth="no"/>
      <point x="247" y="1123" type="line" smooth="no"/>
      <point x="234" y="1164"/>
      <point x="218" y="1195"/>
      <point x="201" y="1215" type="curve" smooth="no"/>
      <point x="24" y="1215" type="line" smooth="no"/>
      <point x="0" y="1387" type="line" smooth="no"/>
      <point x="115" y="1395"/>
      <point x="228" y="1399"/>
      <point x="340" y="1399" type="curve" smooth="yes"/>
      <point x="511" y="1399"/>
      <point x="643" y="1395"/>
      <point x="736" y="1387" type="curve" smooth="no"/>
      <point x="781" y="1215" type="line" smooth="no"/>
      <point x="653" y="1215" type="line" smooth="no"/>
      <point x="685" y="1128" type="line" smooth="no"/>
      <point x="883" y="452" type="line" smooth="no"/>
      <point x="1048" y="1111" type="line" smooth="yes"/>
      <point x="1058" y="1148"/>
      <point x="1066" y="1192"/>
      <point x="1071" y="1244" type="curve" smooth="yes"/>
      <point x="1078" y="1317" type="line" smooth="yes"/>
      <point x="1081" y="1348"/>
      <point x="1083" y="1371"/>
      <point x="1086" y="1387" type="curve" smooth="no"/>
      <point x="1291" y="1387" type="line" smooth="yes"/>
      <point x="1356" y="1387"/>
      <point x="1404" y="1357"/>
      <point x="1434" y="1296" type="curve" smooth="yes"/>
      <point x="1443" y="1277"/>
      <point x="1451" y="1257"/>
      <point x="1458" y="1235" type="curve" smooth="yes"/>
      <point x="1695" y="452" type="line" smooth="no"/>
      <point x="1800" y="855"/>
      <point x="1863" y="1109"/>
      <point x="1885" y="1215" type="curve" smooth="no"/>
      <point x="1737" y="1215" type="line" smooth="no"/>
      <point x="1782" y="1387" type="line" smooth="no"/>
      <point x="1857" y="1395"/>
      <point x="1958" y="1399"/>
      <point x="2086" y="1399" type="curve" smooth="yes"/>
      <point x="2214" y="1399"/>
      <point x="2338" y="1395"/>
      <point x="2458" y="1387" type="curve" smooth="no"/>
      <point x="2434" y="1215" type="line" smooth="no"/>
      <point x="2255" y="1215" type="line" smooth="no"/>
      <point x="2241" y="1169" type="line" smooth="no"/>
      <point x="2087" y="650"/>
      <point x="1952" y="257"/>
      <point x="1836" y="-11" type="curve" smooth="no"/>
      <point x="1554" y="-11" type="line" smooth="yes"/>
      <point x="1474" y="-11"/>
      <point x="1435" y="8"/>
      <point x="1421" y="74" type="curve" smooth="no"/>
    </contour>
  </outline>
</glyph>
<glyph name="X" format="1">
  <advance width="1728"/>
  <unicode hex="0058"/>
  <outline>
    <contour>
      <point x="692" y="-11" type="line" smooth="no"/>
      <point x="379" y="5"/>
      <point x="259" y="0"/>
      <point x="16" y="-11" type="curve" smooth="no"/>
      <point x="40" y="167" type="line" smooth="no"/>
      <point x="153" y="167" type="line" smooth="no"/>
      <point x="170" y="168"/>
      <point x="188" y="178"/>
      <point x="206" y="195" type="curve" smooth="yes"/>
      <point x="224" y="212"/>
      <point x="244" y="236"/>
      <point x="268" y="266" type="curve" smooth="yes"/>
      <point x="601" y="680" type="line" smooth="no"/>
      <point x="238" y="1139" type="line" smooth="yes"/>
      <point x="198" y="1190"/>
      <point x="158" y="1215"/>
      <point x="117" y="1215" type="curve" smooth="yes"/>
      <point x="40" y="1215" type="line" smooth="no"/>
      <point x="16" y="1387" type="line" smooth="no"/>
      <point x="131" y="1395"/>
      <point x="242" y="1399"/>
      <point x="350" y="1399" type="curve" smooth="yes"/>
      <point x="458" y="1399"/>
      <point x="530" y="1399"/>
      <point x="564" y="1398" type="curve" smooth="no"/>
      <point x="645" y="1398"/>
      <point x="739" y="1394"/>
      <point x="802" y="1387" type="curve" smooth="no"/>
      <point x="827" y="1215" type="line" smooth="no"/>
      <point x="749" y="1215" type="line" smooth="yes"/>
      <point x="735" y="1215"/>
      <point x="728" y="1209"/>
      <point x="728" y="1198" type="curve" smooth="yes"/>
      <point x="728" y="1182"/>
      <point x="739" y="1159"/>
      <point x="761" y="1128" type="curve" smooth="yes"/>
      <point x="959" y="842" type="line" smooth="no"/>
      <point x="1125" y="1123" type="line" smooth="yes"/>
      <point x="1141" y="1150"/>
      <point x="1149" y="1173"/>
      <point x="1149" y="1190" type="curve" smooth="yes"/>
      <point x="1149" y="1207"/>
      <point x="1139" y="1215"/>
      <point x="1119" y="1215" type="curve" smooth="yes"/>
      <point x="991" y="1215" type="line" smooth="no"/>
      <point x="1036" y="1387" type="line" smooth="no"/>
      <point x="1116" y="1395"/>
      <point x="1198" y="1399"/>
      <point x="1282" y="1399" type="curve" smooth="yes"/>
      <point x="1366" y="1399"/>
      <point x="1422" y="1399"/>
      <point x="1452" y="1398" type="curve" smooth="no"/>
      <point x="1536" y="1398"/>
      <point x="1631" y="1393"/>
      <point x="1702" y="1387" type="curve" smooth="no"/>
      <point x="1678" y="1215" type="line" smooth="no"/>
      <point x="1545" y="1215" type="line" smooth="no"/>
      <point x="1511" y="1204"/>
      <point x="1473" y="1169"/>
      <point x="1430" y="1110" type="curve" smooth="yes"/>
      <point x="1126" y="687" type="line" smooth="no"/>
      <point x="1468" y="307" type="line" smooth="yes"/>
      <point x="1508" y="263"/>
      <point x="1561" y="169"/>
      <point x="1631" y="167" type="curve" smooth="no"/>
      <point x="1688" y="167" type="line" smooth="no"/>
      <point x="1712" y="-11" type="line" smooth="no"/>
      <point x="1548" y="-4"/>
      <point x="1426" y="0"/>
      <point x="1346" y="0" type="curve" smooth="yes"/>
      <point x="1266" y="0"/>
      <point x="1129" y="-4"/>
      <point x="936" y="-11" type="curve" smooth="no"/>
      <point x="901" y="167" type="line" smooth="no"/>
      <point x="1009" y="167" type="line" smooth="yes"/>
      <point x="1023" y="167"/>
      <point x="1030" y="173"/>
      <point x="1030" y="184" type="curve" smooth="yes"/>
      <point x="1030" y="199"/>
      <point x="1019" y="220"/>
      <point x="997" y="248" type="curve" smooth="yes"/>
      <point x="779" y="525" type="line" smooth="no"/>
      <point x="603" y="253" type="line" smooth="yes"/>
      <point x="586" y="228"/>
      <point x="578" y="207"/>
      <point x="578" y="191" type="curve" smooth="yes"/>
      <point x="578" y="175"/>
      <point x="588" y="167"/>
      <point x="609" y="167" type="curve" smooth="yes"/>
      <point x="737" y="167" type="line" smooth="no"/>
    </contour>
  </outline>
</glyph>
<glyph name="Y" format="1">
  <advance width="1576"/>
  <unicode hex="0059"/>
  <outline>
    <contour>
      <point x="1220" y="-11" type="line"/>
      <point x="974" y="0"/>
      <point x="669" y="0"/>
      <point x="403" y="-11" type="qcurve"/>
      <point x="403" y="147" type="line"/>
      <point x="589" y="147" type="line"/>
      <point x="594" y="182"/>
      <point x="594" y="217" type="qcurve" smooth="yes"/>
      <point x="594" y="492" type="line"/>
      <point x="217" y="1123" type="line" smooth="yes"/>
      <point x="203" y="1146"/>
      <point x="194.5" y="1163.5" type="qcurve" smooth="yes"/>
      <point x="186" y="1180"/>
      <point x="180" y="1192" type="qcurve" smooth="yes"/>
      <point x="167" y="1214"/>
      <point x="151" y="1215" type="qcurve" smooth="yes"/>
      <point x="24" y="1215" type="line"/>
      <point x="0" y="1387" type="line"/>
      <point x="196" y="1399"/>
      <point x="366" y="1399" type="qcurve" smooth="yes"/>
      <point x="470" y="1399" type="line" smooth="yes"/>
      <point x="633" y="1399"/>
      <point x="756" y="1387" type="qcurve"/>
      <point x="771" y="1215" type="line"/>
      <point x="643" y="1215" type="line"/>
      <point x="670" y="1138"/>
      <point x="675" y="1128" type="qcurve" smooth="yes"/>
      <point x="883" y="752" type="line"/>
      <point x="1059" y="1123" type="line" smooth="yes"/>
      <point x="1070" y="1147"/>
      <point x="1081" y="1215" type="qcurve"/>
      <point x="925" y="1215" type="line"/>
      <point x="960" y="1387" type="line"/>
      <point x="1084" y="1399"/>
      <point x="1247" y="1399" type="qcurve" smooth="yes"/>
      <point x="1321" y="1399" type="line" smooth="yes"/>
      <point x="1439" y="1399"/>
      <point x="1576" y="1387" type="qcurve"/>
      <point x="1552" y="1215" type="line"/>
      <point x="1405" y="1215" type="line"/>
      <point x="1398" y="1206"/>
      <point x="1377" y="1161"/>
      <point x="1357" y="1120"/>
      <point x="1345" y="1098"/>
      <point x="1318" y="1048"/>
      <point x="1271" y="963"/>
      <point x="1199" y="829"/>
      <point x="1096" y="641"/>
      <point x="1027" y="513" type="qcurve"/>
      <point x="1027" y="239" type="line" smooth="yes"/>
      <point x="1027" y="195"/>
      <point x="1032" y="147" type="qcurve"/>
      <point x="1220" y="147" type="line"/>
    </contour>
  </outline>
</glyph>
<glyph name="Z" format="1">
  <advance width="1382"/>
  <unicode hex="005a"/>
  <outline>
    <contour>
      <point x="1197" y="1387" type="line" smooth="yes"/>
      <point x="1252" y="1387"/>
      <point x="1305" y="1362"/>
      <point x="1305" y="1313" type="curve" smooth="yes"/>
      <point x="1305" y="1186" type="line" smooth="no"/>
      <point x="558" y="180" type="line" smooth="no"/>
      <point x="806" y="180" type="line" smooth="yes"/>
      <point x="868" y="180"/>
      <point x="932" y="185"/>
      <point x="997" y="195" type="curve" smooth="no"/>
      <point x="1023" y="307"/>
      <point x="1036" y="406"/>
      <point x="1036" y="493" type="curve" smooth="no"/>
      <point x="1144" y="490"/>
      <point x="1209" y="484"/>
      <point x="1299" y="478" type="curve" smooth="no"/>
      <point x="1302" y="355"/>
      <point x="1310" y="258"/>
      <point x="1310" y="145" type="curve" smooth="yes"/>
      <point x="1310" y="129"/>
      <point x="1307" y="81"/>
      <point x="1300" y="1" type="curve" smooth="no"/>
      <point x="1145" y="0"/>
      <point x="1011" y="0"/>
      <point x="897" y="0" type="curve" smooth="yes"/>
      <point x="402" y="0" type="line" smooth="no"/>
      <point x="204" y="1" type="line" smooth="no"/>
      <point x="170" y="1" type="line" smooth="yes"/>
      <point x="119" y="1"/>
      <point x="94" y="35"/>
      <point x="94" y="103" type="curve" smooth="yes"/>
      <point x="94" y="219" type="line" smooth="no"/>
      <point x="826" y="1197" type="line" smooth="no"/>
      <point x="637" y="1197" type="line" smooth="yes"/>
      <point x="588" y="1197"/>
      <point x="515" y="1189"/>
      <point x="419" y="1172" type="curve" smooth="no"/>
      <point x="417" y="1165"/>
      <point x="415" y="1135"/>
      <point x="412" y="1082" type="curve" smooth="no"/>
      <point x="412" y="968" type="line" smooth="no"/>
      <point x="109" y="968" type="line" smooth="no"/>
      <point x="69" y="1373" type="line" smooth="no"/>
      <point x="352" y="1382"/>
      <point x="549" y="1387"/>
      <point x="661" y="1387" type="curve" smooth="yes"/>
    </contour>
  </outline>
</glyph>
<glyph name="bracketleft" format="1">
  <advance width="786"/>
  <unicode hex="005B"/>
  <outline>
    <contour>
      <point x="725" y="-126" type="line" smooth="yes"/>
      <point x="725" y="-208"/>
      <point x="598" y="-208" type="qcurve" smooth="yes"/>
      <point x="164" y="-208" type="line"/>
      <point x="164" y="1475" type="line"/>
      <point x="522" y="1475" type="line" smooth="yes"/>
      <point x="628" y="1475"/>
      <point x="660" y="1466" type="qcurve" smooth="yes"/>
      <point x="725" y="1446"/>
      <point x="725" y="1384" type="qcurve" smooth="yes"/>
      <point x="725" y="1325" type="line"/>
      <point x="536" y="1325" type="line"/>
      <point x="536" y="-57" type="line"/>
      <point x="725" y="-57" type="line"/>
    </contour>
  </outline>
</glyph>
<glyph name="backslash" format="1">
  <advance width="1036"/>
  <unicode hex="005C"/>
  <outline>
    <contour>
      <point x="1036" y="-22" type="line"/>
      <point x="775" y="-22" type="line" smooth="yes"/>
      <point x="654" y="-22"/>
      <point x="630" y="48" type="qcurve"/>
      <point x="0" y="1412" type="line"/>
      <point x="263" y="1412" type="line" smooth="yes"/>
      <point x="328" y="1412"/>
      <point x="396" y="1374"/>
      <point x="413" y="1326" type="qcurve"/>
    </contour>
  </outline>
</glyph>
<glyph name="bracketright" format="1">
  <advance width="786"/>
  <unicode hex="005d"/>
  <outline>
    <contour>
      <point x="250" y="-57" type="line" smooth="no"/>
      <point x="250" y="1325" type="line" smooth="no"/>
      <point x="61" y="1325" type="line" smooth="no"/>
      <point x="61" y="1476" type="line" smooth="no"/>
      <point x="622" y="1476" type="line" smooth="no"/>
      <point x="622" y="-208" type="line" smooth="no"/>
      <point x="61" y="-208" type="line" smooth="no"/>
      <point x="61" y="-57" type="line" smooth="no"/>
    </contour>
  </outline>
</glyph>
<glyph name="asciicircum" format="1">
  <advance width="1241"/>
  <unicode hex="005e"/>
  <outline>
    <contour>
      <point x="763" y="1389" type="line" smooth="no"/>
      <point x="1131" y="736" type="line" smooth="yes"/>
      <point x="1153" y="697"/>
      <point x="1164" y="668"/>
      <point x="1164" y="652" type="curve" smooth="yes"/>
      <point x="1164" y="617"/>
      <point x="1123" y="599"/>
      <point x="1091" y="594" type="curve" smooth="no"/>
      <point x="872" y="544" type="line" smooth="no"/>
      <point x="620" y="1029" type="line" smooth="no"/>
      <point x="368" y="544" type="line" smooth="no"/>
      <point x="165" y="591" type="line" smooth="yes"/>
      <point x="105" y="604"/>
      <point x="76" y="609"/>
      <point x="76" y="656" type="curve" smooth="yes"/>
      <point x="76" y="670"/>
      <point x="87" y="697"/>
      <point x="109" y="736" type="curve" smooth="yes"/>
      <point x="477" y="1389" type="line" smooth="no"/>
    </contour>
  </outline>
</glyph>
<glyph name="underscore" format="1">
  <advance width="1095"/>
  <unicode hex="005F"/>
  <outline>
    <contour>
      <point x="1107" y="-216" type="line" smooth="yes"/>
      <point x="1106" y="-270"/>
      <point x="1024" y="-294" type="qcurve" smooth="yes"/>
      <point x="1000" y="-301"/>
      <point x="972" y="-307" type="qcurve"/>
      <point x="-12" y="-307" type="line"/>
      <point x="-12" y="-224" type="line" smooth="yes"/>
      <point x="-12" y="-148"/>
      <point x="86" y="-138" type="qcurve" smooth="yes"/>
      <point x="112" y="-136"/>
      <point x="137" y="-135" type="qcurve" smooth="yes"/>
      <point x="1107" y="-135" type="line"/>
    </contour>
  </outline>
</glyph>
<glyph name="grave" format="1">
  <advance width="1051"/>
  <unicode hex="0060"/>
  <outline>
    <contour>
      <point x="552" y="1112" type="line" smooth="no"/>
      <point x="266" y="1482" type="line" smooth="no"/>
      <point x="637" y="1482" type="line" smooth="no"/>
      <point x="787" y="1112" type="line" smooth="no"/>
    </contour>
  </outline>
</glyph>
<glyph name="a" format="1">
  <advance width="1281"/>
  <unicode hex="0061"/>
  <outline>
    <contour>
      <point x="1106" y="601" type="qcurve"/>
      <point x="1105" y="451" type="line"/>
      <point x="1105" y="274" type="line" smooth="yes"/>
      <point x="1105" y="183"/>
      <point x="1110" y="148" type="qcurve"/>
      <point x="1142" y="146"/>
      <point x="1177" y="146" type="qcurve" smooth="yes"/>
      <point x="1261" y="146" type="line"/>
      <point x="1261" y="33" type="line"/>
      <point x="1070" y="-10"/>
      <point x="844" y="-10" type="qcurve"/>
      <point x="771" y="40"/>
      <point x="724" y="102" type="qcurve"/>
      <point x="606" y="-22"/>
      <point x="439" y="-22" type="qcurve" smooth="yes"/>
      <point x="186" y="-22"/>
      <point x="107" y="146" type="qcurve" smooth="yes"/>
      <point x="81" y="202"/>
      <point x="81" y="274" type="qcurve" smooth="yes"/>
      <point x="81" y="583"/>
      <point x="667" y="583" type="qcurve" smooth="yes"/>
      <point x="687" y="583" type="line"/>
      <point x="687" y="617" type="line" smooth="yes"/>
      <point x="687" y="742"/>
      <point x="664" y="855"/>
      <point x="635" y="855" type="qcurve" smooth="yes"/>
      <point x="521" y="855"/>
      <point x="348" y="631" type="qcurve"/>
      <point x="107" y="785" type="line"/>
      <point x="106" y="879"/>
      <point x="266" y="945" type="qcurve" smooth="yes"/>
      <point x="412" y="1005"/>
      <point x="718" y="1005"/>
      <point x="813" y="985" type="qcurve" smooth="yes"/>
      <point x="908" y="966"/>
      <point x="973" y="918" type="qcurve" smooth="yes"/>
      <point x="1106" y="820"/>
    </contour>
    <contour>
      <point x="657" y="464" type="line" smooth="yes"/>
      <point x="579" y="464"/>
      <point x="492" y="364"/>
      <point x="492" y="203"/>
      <point x="541" y="138"/>
      <point x="625" y="138"/>
      <point x="687" y="191" type="qcurve"/>
      <point x="687" y="464" type="line"/>
    </contour>
  </outline>
</glyph>
<glyph name="b" format="1">
  <advance width="1407"/>
  <unicode hex="0062"/>
  <outline>
    <contour>
      <point x="488" y="1412" type="line" smooth="yes"/>
      <point x="598" y="1412"/>
      <point x="620" y="1394"/>
      <point x="620" y="1298" type="curve" smooth="yes"/>
      <point x="620" y="937" type="line" smooth="no"/>
      <point x="714" y="982"/>
      <point x="802" y="1005"/>
      <point x="882" y="1005" type="curve" smooth="yes"/>
      <point x="1044" y="1005"/>
      <point x="1151" y="942"/>
      <point x="1222" y="850" type="curve" smooth="yes"/>
      <point x="1294" y="758"/>
      <point x="1330" y="644"/>
      <point x="1330" y="509" type="curve" smooth="yes"/>
      <point x="1330" y="342"/>
      <point x="1272" y="211"/>
      <point x="1156" y="116" type="curve" smooth="yes"/>
      <point x="1051" y="31"/>
      <point x="923" y="-12"/>
      <point x="772" y="-12" type="curve" smooth="yes"/>
      <point x="621" y="-12"/>
      <point x="419" y="-1"/>
      <point x="166" y="19" type="curve" smooth="no"/>
      <point x="166" y="79" type="line" smooth="no"/>
      <point x="189" y="128"/>
      <point x="201" y="211"/>
      <point x="201" y="330" type="curve" smooth="yes"/>
      <point x="201" y="1251" type="line" smooth="no"/>
      <point x="28" y="1251" type="line" smooth="no"/>
      <point x="28" y="1364" type="line" smooth="no"/>
      <point x="159" y="1396"/>
      <point x="292" y="1412"/>
      <point x="428" y="1412" type="curve" smooth="yes"/>
    </contour>
    <contour>
      <point x="786" y="836" type="curve" smooth="yes"/>
      <point x="744" y="836"/>
      <point x="689" y="820"/>
      <point x="620" y="789" type="curve" smooth="no"/>
      <point x="620" y="140" type="line" smooth="no"/>
      <point x="629" y="139"/>
      <point x="638" y="138"/>
      <point x="647" y="138" type="curve" smooth="yes"/>
      <point x="745" y="138" type="line" smooth="yes"/>
      <point x="793" y="138"/>
      <point x="831" y="169"/>
      <point x="858" y="230" type="curve" smooth="yes"/>
      <point x="885" y="291"/>
      <point x="899" y="382"/>
      <point x="899" y="504" type="curve" smooth="yes"/>
      <point x="899" y="725"/>
      <point x="861" y="836"/>
    </contour>
  </outline>
</glyph>
<glyph name="c" format="1">
  <advance width="1158"/>
  <unicode hex="0063"/>
  <outline>
    <contour>
      <point x="497" y="516" type="qcurve" smooth="yes"/>
      <point x="497" y="147"/>
      <point x="692" y="147" type="qcurve" smooth="yes"/>
      <point x="850" y="147"/>
      <point x="984" y="213" type="qcurve" smooth="yes"/>
      <point x="1028" y="235"/>
      <point x="1076" y="265" type="qcurve"/>
      <point x="1093" y="105" type="line"/>
      <point x="921" y="-22"/>
      <point x="669" y="-22" type="qcurve" smooth="yes"/>
      <point x="396" y="-22"/>
      <point x="236" y="111" type="qcurve" smooth="yes"/>
      <point x="72" y="247"/>
      <point x="71" y="486" type="qcurve" smooth="yes"/>
      <point x="71" y="743"/>
      <point x="259" y="882" type="qcurve" smooth="yes"/>
      <point x="425" y="1005"/>
      <point x="947" y="1005"/>
      <point x="1101" y="872" type="qcurve"/>
      <point x="1084" y="674" type="line"/>
      <point x="813" y="674" type="line"/>
      <point x="732" y="836"/>
      <point x="665" y="836" type="qcurve" smooth="yes"/>
      <point x="592" y="836"/>
      <point x="546" y="755" type="qcurve" smooth="yes"/>
      <point x="498" y="669"/>
    </contour>
  </outline>
</glyph>
<glyph name="d" format="1">
  <advance width="1391"/>
  <unicode hex="0064"/>
  <outline>
    <contour>
      <point x="659" y="836" type="qcurve" smooth="yes"/>
      <point x="513" y="836"/>
      <point x="513" y="147"/>
      <point x="655" y="147" type="qcurve" smooth="yes"/>
      <point x="739" y="147"/>
      <point x="797" y="226" type="qcurve"/>
      <point x="797" y="802" type="line"/>
      <point x="710" y="836"/>
    </contour>
    <contour>
      <point x="620" y="1364" type="line"/>
      <point x="816" y="1412"/>
      <point x="1020" y="1412" type="qcurve" smooth="yes"/>
      <point x="1080" y="1412" type="line" smooth="yes"/>
      <point x="1162" y="1412"/>
      <point x="1202" y="1379"/>
      <point x="1212" y="1334"/>
      <point x="1212" y="1298" type="qcurve" smooth="yes"/>
      <point x="1212" y="244" type="line" smooth="yes"/>
      <point x="1212" y="175"/>
      <point x="1218" y="147" type="qcurve"/>
      <point x="1384" y="147" type="line"/>
      <point x="1384" y="35" type="line"/>
      <point x="1199" y="-11"/>
      <point x="1037" y="-11" type="qcurve" smooth="yes"/>
      <point x="940" y="-11"/>
      <point x="871" y="26"/>
      <point x="838" y="70"/>
      <point x="826" y="105" type="qcurve"/>
      <point x="720" y="-22"/>
      <point x="537" y="-22" type="qcurve" smooth="yes"/>
      <point x="335" y="-22"/>
      <point x="205" y="124" type="qcurve" smooth="yes"/>
      <point x="79" y="266"/>
      <point x="79" y="474" type="qcurve" smooth="yes"/>
      <point x="80" y="716"/>
      <point x="204" y="860" type="qcurve" smooth="yes"/>
      <point x="330" y="1004"/>
      <point x="547" y="1005" type="qcurve" smooth="yes"/>
      <point x="664" y="1005"/>
      <point x="793" y="959" type="qcurve"/>
      <point x="793" y="1251" type="line"/>
      <point x="620" y="1251" type="line"/>
    </contour>
  </outline>
</glyph>
<glyph name="e" format="1">
  <advance width="1207"/>
  <unicode hex="0065"/>
  <outline>
    <contour>
      <point x="670" y="169"/>
      <point x="922" y="169"/>
      <point x="1077" y="245" type="qcurve"/>
      <point x="1095" y="95" type="line"/>
      <point x="931" y="-22"/>
      <point x="671" y="-22" type="qcurve" smooth="yes"/>
      <point x="393" y="-22"/>
      <point x="234" y="114" type="qcurve" smooth="yes"/>
      <point x="72" y="252"/>
      <point x="72" y="499" type="qcurve" smooth="yes"/>
      <point x="72" y="723"/>
      <point x="237" y="863" type="qcurve" smooth="yes"/>
      <point x="404" y="1005"/>
      <point x="675" y="1005" type="qcurve" smooth="yes"/>
      <point x="882" y="1005"/>
      <point x="1012" y="901" type="qcurve" smooth="yes"/>
      <point x="1144" y="795"/>
      <point x="1145" y="615" type="qcurve" smooth="yes"/>
      <point x="1145" y="510"/>
      <point x="1092" y="474" type="qcurve" smooth="yes"/>
      <point x="1045" y="442"/>
      <point x="914" y="442" type="qcurve" smooth="yes"/>
      <point x="501" y="442" type="line"/>
      <point x="524" y="316"/>
    </contour>
    <contour>
      <point x="754" y="590" type="line"/>
      <point x="754" y="608" type="line" smooth="yes"/>
      <point x="754" y="772"/>
      <point x="686" y="827" type="qcurve" smooth="yes"/>
      <point x="664" y="845"/>
      <point x="635" y="845" type="qcurve" smooth="yes"/>
      <point x="524" y="845"/>
      <point x="500" y="590" type="qcurve"/>
    </contour>
  </outline>
</glyph>
<glyph name="f" format="1">
  <advance width="926"/>
  <unicode hex="0066"/>
  <outline>
    <contour>
      <point x="904" y="910" type="line" smooth="yes"/>
      <point x="904" y="853"/>
      <point x="859" y="824"/>
      <point x="768" y="824" type="curve" smooth="yes"/>
      <point x="646" y="824" type="line" smooth="no"/>
      <point x="646" y="259" type="line" smooth="yes"/>
      <point x="646" y="169"/>
      <point x="656" y="148"/>
      <point x="713" y="134" type="curve" smooth="yes"/>
      <point x="732" y="129"/>
      <point x="759" y="125"/>
      <point x="792" y="120" type="curve" smooth="no"/>
      <point x="803" y="-11" type="line" smooth="no"/>
      <point x="640" y="-5" type="line" smooth="no"/>
      <point x="421" y="1"/>
      <point x="351" y="2"/>
      <point x="90" y="-11" type="curve" smooth="no"/>
      <point x="96" y="121" type="line" smooth="no"/>
      <point x="120" y="124" type="line" smooth="yes"/>
      <point x="206" y="134"/>
      <point x="227" y="139"/>
      <point x="227" y="224" type="curve" smooth="yes"/>
      <point x="227" y="824" type="line" smooth="no"/>
      <point x="22" y="824" type="line" smooth="no"/>
      <point x="22" y="898" type="line" smooth="yes"/>
      <point x="22" y="955"/>
      <point x="71" y="983"/>
      <point x="169" y="983" type="curve" smooth="yes"/>
      <point x="227" y="983" type="line" smooth="no"/>
      <point x="227" y="1047" type="line" smooth="yes"/>
      <point x="227" y="1290"/>
      <point x="394" y="1412"/>
      <point x="729" y="1412" type="curve" smooth="yes"/>
      <point x="836" y="1412"/>
      <point x="939" y="1391"/>
      <point x="1040" y="1349" type="curve" smooth="no"/>
      <point x="1040" y="1125" type="line" smooth="no"/>
      <point x="806" y="1125" type="line" smooth="no"/>
      <point x="803" y="1137"/>
      <point x="799" y="1148"/>
      <point x="796" y="1158" type="curve" smooth="yes"/>
      <point x="774" y="1224" type="line" smooth="yes"/>
      <point x="768" y="1242"/>
      <point x="765" y="1252"/>
      <point x="765" y="1254" type="curve" smooth="no"/>
      <point x="726" y="1254"/>
      <point x="700" y="1249"/>
      <point x="687" y="1240" type="curve" smooth="yes"/>
      <point x="664" y="1222"/>
      <point x="651" y="1189"/>
      <point x="649" y="1140" type="curve" smooth="no"/>
      <point x="649" y="983" type="line" smooth="no"/>
      <point x="904" y="983" type="line" smooth="no"/>
    </contour>
  </outline>
</glyph>
<glyph name="g" format="1">
  <advance width="1149"/>
  <unicode hex="0067"/>
  <outline>
    <contour>
      <point x="442" y="626" type="curve" smooth="yes"/>
      <point x="442" y="499"/>
      <point x="476" y="436"/>
      <point x="544" y="436" type="curve" smooth="yes"/>
      <point x="617" y="436"/>
      <point x="653" y="499"/>
      <point x="653" y="626" type="curve" smooth="yes"/>
      <point x="653" y="780"/>
      <point x="617" y="857"/>
      <point x="544" y="857" type="curve" smooth="yes"/>
      <point x="476" y="857"/>
      <point x="442" y="780"/>
    </contour>
    <contour>
      <point x="367" y="-174" type="curve" smooth="yes"/>
      <point x="367" y="-239"/>
      <point x="425" y="-271"/>
      <point x="542" y="-271" type="curve" smooth="yes"/>
      <point x="683" y="-270"/>
      <point x="766" y="-245"/>
      <point x="790" y="-194" type="curve" smooth="yes"/>
      <point x="798" y="-178"/>
      <point x="802" y="-159"/>
      <point x="802" y="-136" type="curve" smooth="yes"/>
      <point x="802" y="-97"/>
      <point x="770" y="-78"/>
      <point x="705" y="-78" type="curve" smooth="yes"/>
      <point x="412" y="-78" type="line" smooth="no"/>
      <point x="382" y="-117"/>
      <point x="367" y="-149"/>
    </contour>
    <contour>
      <point x="250" y="332" type="curve" smooth="no"/>
      <point x="140" y="374"/>
      <point x="64" y="475"/>
      <point x="64" y="622" type="curve" smooth="yes"/>
      <point x="64" y="763"/>
      <point x="115" y="854"/>
      <point x="198" y="914" type="curve" smooth="yes"/>
      <point x="282" y="975"/>
      <point x="399" y="1005"/>
      <point x="549" y="1005" type="curve" smooth="yes"/>
      <point x="636" y="1005"/>
      <point x="713" y="993"/>
      <point x="778" y="968" type="curve" smooth="no"/>
      <point x="1136" y="988" type="line" smooth="no"/>
      <point x="1136" y="825" type="line" smooth="no"/>
      <point x="935" y="825" type="line" smooth="no"/>
      <point x="992" y="786"/>
      <point x="1021" y="722"/>
      <point x="1021" y="635" type="curve" smooth="yes"/>
      <point x="1021" y="470"/>
      <point x="931" y="364"/>
      <point x="752" y="316" type="curve" smooth="yes"/>
      <point x="692" y="300"/>
      <point x="631" y="292"/>
      <point x="568" y="292" type="curve" smooth="yes"/>
      <point x="505" y="292"/>
      <point x="450" y="294"/>
      <point x="402" y="298" type="curve" smooth="no"/>
      <point x="392" y="285"/>
      <point x="387" y="266"/>
      <point x="387" y="241" type="curve" smooth="yes"/>
      <point x="387" y="189"/>
      <point x="417" y="177"/>
      <point x="470" y="177" type="curve" smooth="yes"/>
      <point x="813" y="177" type="line" smooth="yes"/>
      <point x="997" y="177"/>
      <point x="1113" y="94"/>
      <point x="1113" y="-90" type="curve" smooth="yes"/>
      <point x="1113" y="-299"/>
      <point x="972" y="-392"/>
      <point x="798" y="-428" type="curve" smooth="yes"/>
      <point x="719" y="-445"/>
      <point x="614" y="-454"/>
      <point x="483" y="-454" type="curve" smooth="yes"/>
      <point x="214" y="-454"/>
      <point x="79" y="-375"/>
      <point x="79" y="-217" type="curve" smooth="yes"/>
      <point x="79" y="-176"/>
      <point x="94" y="-142"/>
      <point x="124" y="-112" type="curve" smooth="yes"/>
      <point x="154" y="-82"/>
      <point x="205" y="-55"/>
      <point x="274" y="-32" type="curve" smooth="no"/>
      <point x="202" y="-3"/>
      <point x="144" y="56"/>
      <point x="144" y="155" type="curve" smooth="yes"/>
      <point x="144" y="235"/>
      <point x="179" y="294"/>
    </contour>
  </outline>
</glyph>
<glyph name="h" format="1">
  <advance width="1421"/>
  <unicode hex="0068"/>
  <outline>
    <contour>
      <point x="822" y="85" type="qcurve"/>
      <point x="828" y="274" type="line"/>
      <point x="828" y="623" type="line" smooth="yes"/>
      <point x="828" y="752"/>
      <point x="794" y="790" type="qcurve" smooth="yes"/>
      <point x="778" y="808"/>
      <point x="750" y="808" type="qcurve" smooth="yes"/>
      <point x="687" y="808"/>
      <point x="605" y="739" type="qcurve"/>
      <point x="605" y="233" type="line" smooth="yes"/>
      <point x="605" y="180"/>
      <point x="620" y="163" type="qcurve" smooth="yes"/>
      <point x="642" y="139"/>
      <point x="698" y="127" type="qcurve"/>
      <point x="709" y="-11" type="line"/>
      <point x="405" y="0"/>
      <point x="240" y="0"/>
      <point x="68" y="-11" type="qcurve"/>
      <point x="73" y="126" type="line"/>
      <point x="143" y="137"/>
      <point x="159" y="154" type="qcurve" smooth="yes"/>
      <point x="185" y="182"/>
      <point x="185" y="265" type="qcurve" smooth="yes"/>
      <point x="185" y="1187" type="line" smooth="yes"/>
      <point x="185" y="1227"/>
      <point x="182" y="1251" type="qcurve"/>
      <point x="13" y="1251" type="line"/>
      <point x="13" y="1364" type="line"/>
      <point x="209" y="1412"/>
      <point x="413" y="1412" type="qcurve" smooth="yes"/>
      <point x="473" y="1412" type="line" smooth="yes"/>
      <point x="555" y="1412"/>
      <point x="595" y="1379"/>
      <point x="605" y="1334"/>
      <point x="605" y="1298" type="qcurve" smooth="yes"/>
      <point x="605" y="882" type="line"/>
      <point x="783" y="1005"/>
      <point x="961" y="1005" type="qcurve" smooth="yes"/>
      <point x="1247" y="1005"/>
      <point x="1247" y="644" type="qcurve" smooth="yes"/>
      <point x="1247" y="248" type="line" smooth="yes"/>
      <point x="1247" y="183"/>
      <point x="1256" y="147" type="qcurve"/>
      <point x="1389" y="147" type="line"/>
      <point x="1402" y="23" type="line"/>
      <point x="1211" y="-22"/>
      <point x="1048" y="-22" type="qcurve" smooth="yes"/>
      <point x="822" y="-22"/>
    </contour>
  </outline>
</glyph>
<glyph name="i" format="1">
  <advance width="799"/>
  <unicode hex="0069"/>
  <outline>
    <contour>
      <point x="197" y="95" type="qcurve"/>
      <point x="203" y="284" type="line"/>
      <point x="203" y="824" type="line"/>
      <point x="31" y="824" type="line"/>
      <point x="31" y="950" type="line"/>
      <point x="233" y="994"/>
      <point x="398" y="994" type="qcurve" smooth="yes"/>
      <point x="622" y="994"/>
      <point x="622" y="899" type="qcurve" smooth="yes"/>
      <point x="622" y="239" type="line" smooth="yes"/>
      <point x="622" y="184"/>
      <point x="631" y="147" type="qcurve"/>
      <point x="764" y="147" type="line"/>
      <point x="777" y="33" type="line"/>
      <point x="584" y="-11"/>
      <point x="423" y="-11" type="qcurve" smooth="yes"/>
      <point x="197" y="-11"/>
    </contour>
    <contour>
      <point x="174" y="1219"/>
      <point x="174" y="1297"/>
      <point x="213" y="1356"/>
      <point x="246" y="1375" type="qcurve" smooth="yes"/>
      <point x="310" y="1412"/>
      <point x="460" y="1412"/>
      <point x="503.5" y="1402" type="qcurve" smooth="yes"/>
      <point x="548" y="1392"/>
      <point x="580" y="1372" type="qcurve" smooth="yes"/>
      <point x="650" y="1329"/>
      <point x="649" y="1256" type="qcurve" smooth="yes"/>
      <point x="648" y="1142"/>
      <point x="496" y="1112" type="qcurve" smooth="yes"/>
      <point x="454" y="1104"/>
      <point x="363" y="1103"/>
      <point x="276" y="1123"/>
      <point x="212" y="1162"/>
    </contour>
  </outline>
</glyph>
<glyph name="j" format="1">
  <advance width="807"/>
  <unicode hex="006A"/>
  <outline>
    <contour>
      <point x="214" y="1250"/>
      <point x="214" y="1328"/>
      <point x="253" y="1387"/>
      <point x="286" y="1406" type="qcurve" smooth="yes"/>
      <point x="350" y="1443"/>
      <point x="502" y="1443"/>
      <point x="589" y="1422"/>
      <point x="621" y="1402" type="qcurve" smooth="yes"/>
      <point x="689" y="1361"/>
      <point x="689" y="1287" type="qcurve" smooth="yes"/>
      <point x="688" y="1172"/>
      <point x="536" y="1142" type="qcurve" smooth="yes"/>
      <point x="494" y="1134"/>
      <point x="402" y="1134"/>
      <point x="316" y="1154"/>
      <point x="251" y="1193"/>
    </contour>
    <contour>
      <point x="662" y="-12" type="line" smooth="yes"/>
      <point x="662" y="-454"/>
      <point x="219" y="-454" type="qcurve" smooth="yes"/>
      <point x="19" y="-454"/>
      <point x="-64" y="-377" type="qcurve"/>
      <point x="-47" y="-76" type="line"/>
      <point x="158" y="-105" type="line"/>
      <point x="177" y="-278" type="line"/>
      <point x="195" y="-287"/>
      <point x="208" y="-287" type="qcurve" smooth="yes"/>
      <point x="303" y="-287"/>
      <point x="303" y="-160" type="qcurve" smooth="yes"/>
      <point x="303" y="-153"/>
      <point x="284" y="-88"/>
      <point x="273" y="-43" type="qcurve" smooth="yes"/>
      <point x="243" y="80"/>
      <point x="243" y="147" type="qcurve" smooth="yes"/>
      <point x="243" y="824" type="line"/>
      <point x="70" y="824" type="line"/>
      <point x="70" y="950" type="line"/>
      <point x="268" y="994"/>
      <point x="428" y="994" type="qcurve" smooth="yes"/>
      <point x="596" y="994"/>
      <point x="646" y="940" type="qcurve" smooth="yes"/>
      <point x="662" y="922"/>
      <point x="662" y="899" type="qcurve" smooth="yes"/>
    </contour>
  </outline>
</glyph>
<glyph name="k" format="1">
  <advance width="1419"/>
  <unicode hex="006b"/>
  <outline>
    <contour>
      <point x="485" y="1413" type="line" smooth="no"/>
      <point x="592" y="1413"/>
      <point x="604" y="1386"/>
      <point x="604" y="1298" type="curve" smooth="yes"/>
      <point x="604" y="629" type="line" smooth="no"/>
      <point x="821" y="777" type="line" smooth="no"/>
      <point x="833" y="787"/>
      <point x="839" y="796"/>
      <point x="839" y="804" type="curve" smooth="yes"/>
      <point x="839" y="825"/>
      <point x="809" y="835"/>
      <point x="749" y="835" type="curve" smooth="no"/>
      <point x="749" y="983" type="line" smooth="no"/>
      <point x="1382" y="983" type="line" smooth="no"/>
      <point x="1382" y="824" type="line" smooth="no"/>
      <point x="1319" y="824"/>
      <point x="1271" y="817"/>
      <point x="1238" y="803" type="curve" smooth="yes"/>
      <point x="1197" y="786"/>
      <point x="1145" y="755"/>
      <point x="1084" y="711" type="curve" smooth="yes"/>
      <point x="937" y="603" type="line" smooth="no"/>
      <point x="1207" y="189" type="line" smooth="no"/>
      <point x="1233" y="163" type="line" smooth="no"/>
      <point x="1256" y="144" type="line" smooth="no"/>
      <point x="1290" y="120"/>
      <point x="1324" y="120"/>
      <point x="1372" y="120" type="curve" smooth="yes"/>
      <point x="1404" y="120" type="line" smooth="no"/>
      <point x="1429" y="-11" type="line" smooth="no"/>
      <point x="1335" y="-4"/>
      <point x="1223" y="0"/>
      <point x="1094" y="0" type="curve" smooth="yes"/>
      <point x="1034" y="0" type="line" smooth="yes"/>
      <point x="946" y="0"/>
      <point x="860" y="-4"/>
      <point x="777" y="-11" type="curve" smooth="no"/>
      <point x="772" y="120" type="line" smooth="no"/>
      <point x="829" y="120" type="line" smooth="no"/>
      <point x="636" y="453" type="line" smooth="no"/>
      <point x="604" y="433" type="line" smooth="no"/>
      <point x="604" y="212" type="line" smooth="no"/>
      <point x="608" y="178"/>
      <point x="615" y="157"/>
      <point x="625" y="148" type="curve" smooth="yes"/>
      <point x="639" y="136"/>
      <point x="668" y="126"/>
      <point x="713" y="117" type="curve" smooth="no"/>
      <point x="719" y="-11" type="line" smooth="no"/>
      <point x="506" y="-4"/>
      <point x="374" y="0"/>
      <point x="320" y="0" type="curve" smooth="yes"/>
      <point x="266" y="0"/>
      <point x="182" y="-4"/>
      <point x="67" y="-11" type="curve" smooth="no"/>
      <point x="73" y="119" type="line" smooth="no"/>
      <point x="104" y="125"/>
      <point x="135" y="125"/>
      <point x="156" y="139" type="curve" smooth="yes"/>
      <point x="175" y="151"/>
      <point x="184" y="180"/>
      <point x="185" y="225" type="curve" smooth="no"/>
      <point x="185" y="1187" type="line" smooth="yes"/>
      <point x="185" y="1214"/>
      <point x="184" y="1235"/>
      <point x="182" y="1251" type="curve" smooth="no"/>
      <point x="13" y="1251" type="line" smooth="no"/>
      <point x="13" y="1364" type="line" smooth="no"/>
      <point x="144" y="1396"/>
      <point x="277" y="1412"/>
      <point x="413" y="1412" type="curve" smooth="yes"/>
      <point x="445" y="1412" type="line" smooth="no"/>
    </contour>
  </outline>
</glyph>
<glyph name="l" format="1">
  <advance width="790"/>
  <unicode hex="006c"/>
  <outline>
    <contour>
      <point x="394" y="1412" type="curve" smooth="yes"/>
      <point x="517" y="1412"/>
      <point x="560" y="1399"/>
      <point x="604" y="1347" type="curve" smooth="no"/>
      <point x="604" y="227" type="line" smooth="yes"/>
      <point x="604" y="186"/>
      <point x="606" y="159"/>
      <point x="610" y="145" type="curve" smooth="no"/>
      <point x="769" y="145" type="line" smooth="no"/>
      <point x="769" y="34" type="line" smooth="no"/>
      <point x="648" y="5"/>
      <point x="530" y="-9"/>
      <point x="416" y="-9" type="curve" smooth="yes"/>
      <point x="302" y="-9"/>
      <point x="224" y="21"/>
      <point x="181" y="82" type="curve" smooth="no"/>
      <point x="181" y="108" type="line" smooth="no"/>
      <point x="184" y="175"/>
      <point x="186" y="233"/>
      <point x="186" y="283" type="curve" smooth="yes"/>
      <point x="186" y="1175" type="line" smooth="yes"/>
      <point x="186" y="1206"/>
      <point x="185" y="1232"/>
      <point x="182" y="1252" type="curve" smooth="no"/>
      <point x="13" y="1252" type="line" smooth="no"/>
      <point x="13" y="1366" type="line" smooth="no"/>
      <point x="142" y="1397"/>
      <point x="269" y="1412"/>
    </contour>
  </outline>
</glyph>
<glyph name="m" format="1">
  <advance width="2063"/>
  <unicode hex="006D"/>
  <outline>
    <contour>
      <point x="692" y="-11" type="line"/>
      <point x="380" y="7"/>
      <point x="93" y="-11" type="qcurve"/>
      <point x="93" y="114" type="line"/>
      <point x="159" y="114"/>
      <point x="177" y="134" type="qcurve" smooth="yes"/>
      <point x="205" y="164"/>
      <point x="205" y="223" type="qcurve" smooth="yes"/>
      <point x="205" y="824" type="line"/>
      <point x="33" y="824" type="line"/>
      <point x="33" y="946" type="line"/>
      <point x="216" y="994"/>
      <point x="449" y="994" type="qcurve" smooth="yes"/>
      <point x="495" y="994"/>
      <point x="609" y="978" type="qcurve"/>
      <point x="611" y="912"/>
      <point x="611" y="869" type="qcurve"/>
      <point x="747" y="962"/>
      <point x="906" y="994" type="qcurve" smooth="yes"/>
      <point x="959" y="1004"/>
      <point x="1011" y="1005" type="qcurve" smooth="yes"/>
      <point x="1174" y="1005"/>
      <point x="1239" y="891" type="qcurve"/>
      <point x="1429" y="1006"/>
      <point x="1741" y="1006"/>
      <point x="1889" y="836"/>
      <point x="1889" y="686" type="qcurve" smooth="yes"/>
      <point x="1889" y="248" type="line" smooth="yes"/>
      <point x="1889" y="183"/>
      <point x="1898" y="147" type="qcurve"/>
      <point x="2031" y="147" type="line"/>
      <point x="2044" y="23" type="line"/>
      <point x="1853" y="-22"/>
      <point x="1690" y="-22" type="qcurve" smooth="yes"/>
      <point x="1464" y="-22"/>
      <point x="1464" y="85" type="qcurve"/>
      <point x="1470" y="274" type="line"/>
      <point x="1470" y="603" type="line" smooth="yes"/>
      <point x="1470" y="770"/>
      <point x="1450" y="796" type="qcurve" smooth="yes"/>
      <point x="1442" y="806"/>
      <point x="1426" y="807" type="qcurve" smooth="yes"/>
      <point x="1340" y="807"/>
      <point x="1260" y="733" type="qcurve"/>
      <point x="1260" y="207" type="line"/>
      <point x="1266" y="156"/>
      <point x="1283" y="143" type="qcurve" smooth="yes"/>
      <point x="1306" y="125"/>
      <point x="1378" y="113" type="qcurve"/>
      <point x="1378" y="-11" type="line"/>
      <point x="1228" y="-5" type="line" smooth="yes"/>
      <point x="1162" y="-3"/>
      <point x="1065" y="0"/>
      <point x="900" y="0"/>
      <point x="775" y="-11" type="qcurve"/>
      <point x="775" y="126" type="line"/>
      <point x="818" y="138"/>
      <point x="827" y="151" type="qcurve" smooth="yes"/>
      <point x="841" y="170"/>
      <point x="841" y="220" type="qcurve" smooth="yes"/>
      <point x="841" y="603" type="line" smooth="yes"/>
      <point x="841" y="771"/>
      <point x="820" y="807"/>
      <point x="810" y="807" type="qcurve" smooth="yes"/>
      <point x="757" y="807"/>
      <point x="656" y="763"/>
      <point x="624" y="731" type="qcurve"/>
      <point x="624" y="254" type="line" smooth="yes"/>
      <point x="624" y="188"/>
      <point x="632" y="169" type="qcurve" smooth="yes"/>
      <point x="646" y="137"/>
      <point x="692" y="126" type="qcurve"/>
    </contour>
  </outline>
</glyph>
<glyph name="n" format="1">
  <advance width="1456"/>
  <unicode hex="006E"/>
  <outline>
    <contour>
      <point x="728" y="-11" type="line"/>
      <point x="424" y="0"/>
      <point x="259" y="0"/>
      <point x="87" y="-11" type="qcurve"/>
      <point x="93" y="126" type="line"/>
      <point x="163" y="137"/>
      <point x="179" y="154" type="qcurve" smooth="yes"/>
      <point x="205" y="182"/>
      <point x="205" y="265" type="qcurve" smooth="yes"/>
      <point x="205" y="824" type="line"/>
      <point x="33" y="824" type="line"/>
      <point x="33" y="950" type="line"/>
      <point x="244" y="994"/>
      <point x="423" y="994" type="qcurve" smooth="yes"/>
      <point x="472" y="994"/>
      <point x="604" y="978" type="qcurve"/>
      <point x="609" y="870" type="line"/>
      <point x="815" y="1006"/>
      <point x="995" y="1006" type="qcurve" smooth="yes"/>
      <point x="1210" y="1006"/>
      <point x="1264" y="808" type="qcurve" smooth="yes"/>
      <point x="1282" y="744"/>
      <point x="1282" y="664" type="qcurve" smooth="yes"/>
      <point x="1282" y="248" type="line" smooth="yes"/>
      <point x="1282" y="183"/>
      <point x="1291" y="147" type="qcurve"/>
      <point x="1424" y="147" type="line"/>
      <point x="1437" y="23" type="line"/>
      <point x="1246" y="-22"/>
      <point x="1083" y="-22" type="qcurve" smooth="yes"/>
      <point x="857" y="-22"/>
      <point x="857" y="85" type="qcurve"/>
      <point x="863" y="274" type="line"/>
      <point x="863" y="649" type="line" smooth="yes"/>
      <point x="863" y="808"/>
      <point x="776" y="808" type="qcurve" smooth="yes"/>
      <point x="708" y="808"/>
      <point x="624" y="739" type="qcurve"/>
      <point x="624" y="233" type="line" smooth="yes"/>
      <point x="624" y="180"/>
      <point x="639" y="163" type="qcurve" smooth="yes"/>
      <point x="661" y="139"/>
      <point x="717" y="127" type="qcurve"/>
    </contour>
  </outline>
</glyph>
<glyph name="o" format="1">
  <advance width="1324"/>
  <unicode hex="006F"/>
  <outline>
    <contour>
      <point x="503" y="666"/>
      <point x="503" y="315"/>
      <point x="580" y="147"/>
      <point x="748" y="147"/>
      <point x="821" y="322"/>
      <point x="821" y="494" type="qcurve" smooth="yes"/>
      <point x="821" y="836"/>
      <point x="662" y="836" type="qcurve" smooth="yes"/>
      <point x="577" y="836"/>
    </contour>
    <contour>
      <point x="1255" y="480" type="qcurve" smooth="yes"/>
      <point x="1255" y="354"/>
      <point x="1154" y="162"/>
      <point x="1072" y="100" type="qcurve" smooth="yes"/>
      <point x="912" y="-22"/>
      <point x="663" y="-22" type="qcurve" smooth="yes"/>
      <point x="396" y="-22"/>
      <point x="234" y="115" type="qcurve" smooth="yes"/>
      <point x="68" y="254"/>
      <point x="69" y="488" type="qcurve" smooth="yes"/>
      <point x="70" y="742"/>
      <point x="254" y="882" type="qcurve" smooth="yes"/>
      <point x="416" y="1006"/>
      <point x="663" y="1005" type="qcurve" smooth="yes"/>
      <point x="929" y="1006"/>
      <point x="1090" y="866" type="qcurve" smooth="yes"/>
      <point x="1255" y="722"/>
    </contour>
  </outline>
</glyph>
<glyph name="p" format="1">
  <advance width="1379"/>
  <unicode hex="0070"/>
  <outline>
    <contour>
      <point x="1312" y="499" type="curve" smooth="yes"/>
      <point x="1312" y="185"/>
      <point x="1126" y="-22"/>
      <point x="814" y="-22" type="curve" smooth="yes"/>
      <point x="727" y="-22"/>
      <point x="656" y="-3"/>
      <point x="602" y="35" type="curve" smooth="no"/>
      <point x="602" y="-181" type="line" smooth="yes"/>
      <point x="602" y="-267"/>
      <point x="604" y="-290"/>
      <point x="650" y="-306" type="curve" smooth="yes"/>
      <point x="665" y="-311"/>
      <point x="685" y="-316"/>
      <point x="711" y="-323" type="curve" smooth="no"/>
      <point x="722" y="-454" type="line" smooth="no"/>
      <point x="607" y="-443" type="line" smooth="yes"/>
      <point x="547" y="-437"/>
      <point x="470" y="-432"/>
      <point x="376" y="-429" type="curve" smooth="no"/>
      <point x="309" y="-429"/>
      <point x="205" y="-437"/>
      <point x="65" y="-454" type="curve" smooth="no"/>
      <point x="71" y="-321" type="line" smooth="no"/>
      <point x="103" y="-316" type="line" smooth="no"/>
      <point x="170" y="-307"/>
      <point x="183" y="-289"/>
      <point x="183" y="-215" type="curve" smooth="yes"/>
      <point x="183" y="824" type="line" smooth="no"/>
      <point x="9" y="824" type="line" smooth="no"/>
      <point x="9" y="947" type="line" smooth="no"/>
      <point x="134" y="978"/>
      <point x="274" y="994"/>
      <point x="429" y="994" type="curve" smooth="yes"/>
      <point x="473" y="994"/>
      <point x="524" y="989"/>
      <point x="583" y="979" type="curve" smooth="no"/>
      <point x="583" y="966" type="line" smooth="no"/>
      <point x="584" y="929" type="line" smooth="no"/>
      <point x="584" y="916" type="line" smooth="no"/>
      <point x="663" y="975"/>
      <point x="746" y="1005"/>
      <point x="832" y="1005" type="curve" smooth="yes"/>
      <point x="1003" y="1005"/>
      <point x="1113" y="958"/>
      <point x="1192" y="868" type="curve" smooth="yes"/>
      <point x="1272" y="778"/>
      <point x="1312" y="655"/>
    </contour>
    <contour>
      <point x="880" y="486" type="curve" smooth="yes"/>
      <point x="880" y="712"/>
      <point x="847" y="825"/>
      <point x="782" y="825" type="curve" smooth="yes"/>
      <point x="717" y="825"/>
      <point x="657" y="807"/>
      <point x="602" y="770" type="curve" smooth="no"/>
      <point x="602" y="411" type="line" smooth="yes"/>
      <point x="602" y="235"/>
      <point x="646" y="147"/>
      <point x="735" y="147" type="curve" smooth="yes"/>
      <point x="832" y="147"/>
      <point x="880" y="260"/>
    </contour>
  </outline>
</glyph>
<glyph name="q" format="1">
  <advance width="1327"/>
  <unicode hex="0071"/>
  <outline>
    <contour>
      <point x="673" y="1005" type="curve" smooth="yes"/>
      <point x="778" y="1005"/>
      <point x="967" y="994"/>
      <point x="1240" y="973" type="curve" smooth="no"/>
      <point x="1240" y="913" type="line" smooth="no"/>
      <point x="1217" y="862"/>
      <point x="1205" y="779"/>
      <point x="1205" y="662" type="curve" smooth="yes"/>
      <point x="1205" y="-213" type="line" smooth="no"/>
      <point x="1204" y="-274"/>
      <point x="1227" y="-307"/>
      <point x="1272" y="-314" type="curve" smooth="yes"/>
      <point x="1285" y="-316"/>
      <point x="1299" y="-319"/>
      <point x="1314" y="-323" type="curve" smooth="no"/>
      <point x="1325" y="-454" type="line" smooth="no"/>
      <point x="1210" y="-443" type="line" smooth="yes"/>
      <point x="1114" y="-434"/>
      <point x="1035" y="-429"/>
      <point x="972" y="-429" type="curve" smooth="yes"/>
      <point x="909" y="-429"/>
      <point x="808" y="-437"/>
      <point x="668" y="-454" type="curve" smooth="no"/>
      <point x="674" y="-321" type="line" smooth="no"/>
      <point x="706" y="-316" type="line" smooth="no"/>
      <point x="773" y="-307"/>
      <point x="786" y="-289"/>
      <point x="786" y="-215" type="curve" smooth="yes"/>
      <point x="786" y="34" type="line" smooth="no"/>
      <point x="695" y="-3"/>
      <point x="610" y="-22"/>
      <point x="530" y="-22" type="curve" smooth="yes"/>
      <point x="368" y="-22"/>
      <point x="265" y="37"/>
      <point x="192" y="127" type="curve" smooth="yes"/>
      <point x="115" y="221"/>
      <point x="76" y="340"/>
      <point x="76" y="483" type="curve" smooth="yes"/>
      <point x="76" y="636"/>
      <point x="127" y="760"/>
      <point x="230" y="856" type="curve" smooth="yes"/>
      <point x="337" y="955"/>
      <point x="484" y="1004"/>
    </contour>
    <contour>
      <point x="786" y="466" type="line" smooth="no"/>
      <point x="785" y="682" type="line" smooth="no"/>
      <point x="785" y="823" type="line" smooth="no"/>
      <point x="691" y="825" type="line" smooth="no"/>
      <point x="661" y="825" type="line" smooth="yes"/>
      <point x="613" y="825"/>
      <point x="575" y="797"/>
      <point x="548" y="742" type="curve" smooth="yes"/>
      <point x="521" y="687"/>
      <point x="507" y="603"/>
      <point x="507" y="492" type="curve" smooth="yes"/>
      <point x="507" y="262"/>
      <point x="545" y="147"/>
      <point x="620" y="147" type="curve" smooth="yes"/>
      <point x="665" y="147"/>
      <point x="719" y="159"/>
      <point x="784" y="184" type="curve" smooth="no"/>
      <point x="785" y="217"/>
      <point x="786" y="249"/>
      <point x="786" y="280" type="curve" smooth="yes"/>
    </contour>
  </outline>
</glyph>
<glyph name="r" format="1">
  <advance width="1119"/>
  <unicode hex="0072"/>
  <outline>
    <contour>
      <point x="458" y="994" type="qcurve" smooth="yes"/>
      <point x="502" y="994"/>
      <point x="598" y="978" type="qcurve"/>
      <point x="598" y="850" type="line"/>
      <point x="736" y="1005"/>
      <point x="947" y="1005" type="qcurve" smooth="yes"/>
      <point x="1032" y="1005"/>
      <point x="1100" y="984" type="qcurve"/>
      <point x="1080" y="665" type="line"/>
      <point x="873" y="665" type="line"/>
      <point x="848" y="816" type="line"/>
      <point x="770" y="816"/>
      <point x="718" y="784" type="qcurve" smooth="yes"/>
      <point x="624" y="728"/>
      <point x="624" y="676" type="qcurve" smooth="yes"/>
      <point x="624" y="258" type="line" smooth="yes"/>
      <point x="624" y="176"/>
      <point x="640" y="157" type="qcurve" smooth="yes"/>
      <point x="664" y="129"/>
      <point x="753" y="116" type="qcurve"/>
      <point x="764" y="-11" type="line"/>
      <point x="425" y="0"/>
      <point x="259" y="0"/>
      <point x="87" y="-11" type="qcurve"/>
      <point x="93" y="116" type="line"/>
      <point x="172" y="128"/>
      <point x="185" y="141" type="qcurve" smooth="yes"/>
      <point x="205" y="159"/>
      <point x="205" y="224" type="qcurve" smooth="yes"/>
      <point x="205" y="824" type="line"/>
      <point x="33" y="824" type="line"/>
      <point x="33" y="947" type="line"/>
      <point x="243" y="994"/>
    </contour>
  </outline>
</glyph>
<glyph name="s" format="1">
  <advance width="1071"/>
  <unicode hex="0073"/>
  <outline>
    <contour>
      <point x="498" y="146" type="curve" smooth="yes"/>
      <point x="554" y="146"/>
      <point x="605" y="178"/>
      <point x="605" y="232" type="curve" smooth="yes"/>
      <point x="605" y="288"/>
      <point x="568" y="312"/>
      <point x="527" y="332" type="curve" smooth="yes"/>
      <point x="469" y="361"/>
      <point x="406" y="379"/>
      <point x="340" y="407" type="curve" smooth="yes"/>
      <point x="216" y="459"/>
      <point x="77" y="546"/>
      <point x="77" y="709" type="curve" smooth="yes"/>
      <point x="77" y="805"/>
      <point x="118" y="878"/>
      <point x="198" y="929" type="curve" smooth="yes"/>
      <point x="278" y="980"/>
      <point x="405" y="1005"/>
      <point x="578" y="1005" type="curve" smooth="yes"/>
      <point x="751" y="1005"/>
      <point x="887" y="969"/>
      <point x="984" y="897" type="curve" smooth="no"/>
      <point x="929" y="662" type="line" smooth="no"/>
      <point x="698" y="698" type="line" smooth="no"/>
      <point x="685" y="832" type="line" smooth="no"/>
      <point x="654" y="841"/>
      <point x="622" y="845"/>
      <point x="587" y="845" type="curve" smooth="yes"/>
      <point x="513" y="845"/>
      <point x="476" y="817"/>
      <point x="476" y="761" type="curve" smooth="yes"/>
      <point x="476" y="698"/>
      <point x="530" y="681"/>
      <point x="584" y="664" type="curve" smooth="yes"/>
      <point x="735" y="616"/>
      <point x="848" y="562"/>
      <point x="922" y="502" type="curve" smooth="yes"/>
      <point x="996" y="442"/>
      <point x="1034" y="378"/>
      <point x="1034" y="310" type="curve" smooth="yes"/>
      <point x="1034" y="173"/>
      <point x="980" y="99"/>
      <point x="894" y="48" type="curve" smooth="yes"/>
      <point x="815" y="1"/>
      <point x="705" y="-22"/>
      <point x="565" y="-22" type="curve" smooth="yes"/>
      <point x="425" y="-22"/>
      <point x="290" y="3"/>
      <point x="159" y="52" type="curve" smooth="yes"/>
      <point x="120" y="67"/>
      <point x="93" y="80"/>
      <point x="76" y="93" type="curve" smooth="no"/>
      <point x="125" y="351" type="line" smooth="no"/>
      <point x="402" y="291" type="line" smooth="no"/>
      <point x="414" y="166" type="line" smooth="no"/>
      <point x="439" y="153"/>
      <point x="467" y="146"/>
    </contour>
  </outline>
</glyph>
<glyph name="t" format="1">
  <advance width="1045"/>
  <unicode hex="0074"/>
  <outline>
    <contour>
      <point x="589" y="-22" type="qcurve" smooth="yes"/>
      <point x="166" y="-22"/>
      <point x="166" y="311" type="qcurve" smooth="yes"/>
      <point x="166" y="839" type="line"/>
      <point x="-16" y="839" type="line"/>
      <point x="-16" y="911" type="line" smooth="yes"/>
      <point x="-16" y="976"/>
      <point x="116" y="980" type="qcurve" smooth="yes"/>
      <point x="150" y="981"/>
      <point x="180" y="983" type="qcurve"/>
      <point x="203" y="1137" type="line" smooth="yes"/>
      <point x="209" y="1176"/>
      <point x="220" y="1200" type="qcurve" smooth="yes"/>
      <point x="257" y="1286" type="line"/>
      <point x="587" y="1286" type="line"/>
      <point x="587" y="983" type="line"/>
      <point x="879" y="983" type="line"/>
      <point x="879" y="929" type="line" smooth="yes"/>
      <point x="878" y="846"/>
      <point x="784" y="840" type="qcurve" smooth="yes"/>
      <point x="758" y="838"/>
      <point x="730" y="839" type="qcurve" smooth="yes"/>
      <point x="587" y="839" type="line"/>
      <point x="587" y="256" type="line" smooth="yes"/>
      <point x="587" y="158"/>
      <point x="651" y="158" type="qcurve" smooth="yes"/>
      <point x="733" y="158"/>
      <point x="765" y="286" type="qcurve" smooth="yes"/>
      <point x="777" y="333" type="line"/>
      <point x="1012" y="333" type="line"/>
      <point x="1012" y="94" type="line"/>
      <point x="845" y="-22"/>
    </contour>
  </outline>
</glyph>
<glyph name="u" format="1">
  <advance width="1429"/>
  <unicode hex="0075"/>
  <outline>
    <contour>
      <point x="490" y="-22" type="curve" smooth="yes"/>
      <point x="293" y="-22"/>
      <point x="168" y="99"/>
      <point x="168" y="296" type="curve" smooth="yes"/>
      <point x="168" y="824" type="line" smooth="no"/>
      <point x="26" y="824" type="line" smooth="no"/>
      <point x="13" y="950" type="line" smooth="no"/>
      <point x="146" y="979"/>
      <point x="266" y="994"/>
      <point x="373" y="994" type="curve" smooth="yes"/>
      <point x="516" y="994"/>
      <point x="587" y="962"/>
      <point x="587" y="899" type="curve" smooth="yes"/>
      <point x="587" y="278" type="line" smooth="no"/>
      <point x="590" y="219"/>
      <point x="597" y="183"/>
      <point x="609" y="170" type="curve" smooth="yes"/>
      <point x="621" y="157"/>
      <point x="634" y="150"/>
      <point x="648" y="150" type="curve" smooth="yes"/>
      <point x="717" y="150"/>
      <point x="783" y="192"/>
      <point x="817" y="226" type="curve" smooth="no"/>
      <point x="819" y="246"/>
      <point x="820" y="271"/>
      <point x="820" y="300" type="curve" smooth="yes"/>
      <point x="820" y="530" type="line" smooth="no"/>
      <point x="821" y="824" type="line" smooth="no"/>
      <point x="688" y="824" type="line" smooth="no"/>
      <point x="677" y="950" type="line" smooth="no"/>
      <point x="806" y="979"/>
      <point x="924" y="994"/>
      <point x="1032" y="994" type="curve" smooth="yes"/>
      <point x="1128" y="994"/>
      <point x="1192" y="977"/>
      <point x="1224" y="942" type="curve" smooth="yes"/>
      <point x="1235" y="930"/>
      <point x="1240" y="916"/>
      <point x="1241" y="899" type="curve" smooth="no"/>
      <point x="1241" y="272" type="line" smooth="yes"/>
      <point x="1241" y="211"/>
      <point x="1244" y="170"/>
      <point x="1249" y="147" type="curve" smooth="no"/>
      <point x="1401" y="147" type="line" smooth="no"/>
      <point x="1401" y="35" type="line" smooth="no"/>
      <point x="1266" y="4"/>
      <point x="1142" y="-11"/>
      <point x="1028" y="-11" type="curve" smooth="no"/>
      <point x="957" y="-12"/>
      <point x="911" y="-7"/>
      <point x="889" y="4" type="curve" smooth="yes"/>
      <point x="849" y="23"/>
      <point x="828" y="58"/>
      <point x="825" y="109" type="curve" smooth="no"/>
      <point x="712" y="22"/>
      <point x="600" y="-22"/>
    </contour>
  </outline>
</glyph>
<glyph name="v" format="1">
  <advance width="1257"/>
  <unicode hex="0076"/>
  <outline>
    <contour>
      <point x="704" y="972" type="line" smooth="no"/>
      <point x="817" y="987"/>
      <point x="907" y="994"/>
      <point x="974" y="994" type="curve" smooth="yes"/>
      <point x="1041" y="994"/>
      <point x="1128" y="987"/>
      <point x="1237" y="972" type="curve" smooth="no"/>
      <point x="1237" y="824" type="line" smooth="no"/>
      <point x="1105" y="824" type="line" smooth="no"/>
      <point x="1022" y="557"/>
      <point x="922" y="282"/>
      <point x="806" y="0" type="curve" smooth="no"/>
      <point x="749" y="-7"/>
      <point x="697" y="-10"/>
      <point x="650" y="-10" type="curve" smooth="yes"/>
      <point x="579" y="-10"/>
      <point x="508" y="-7"/>
      <point x="435" y="0" type="curve" smooth="no"/>
      <point x="89" y="824" type="line" smooth="no"/>
      <point x="-17" y="824" type="line" smooth="no"/>
      <point x="-38" y="972" type="line" smooth="no"/>
      <point x="70" y="987"/>
      <point x="165" y="994"/>
      <point x="246" y="994" type="curve" smooth="yes"/>
      <point x="350" y="994"/>
      <point x="458" y="987"/>
      <point x="571" y="972" type="curve" smooth="no"/>
      <point x="581" y="937"/>
      <point x="589" y="888"/>
      <point x="595" y="824" type="curve" smooth="no"/>
      <point x="519" y="824" type="line" smooth="no"/>
      <point x="591" y="613"/>
      <point x="639" y="475"/>
      <point x="662" y="410" type="curve" smooth="no"/>
      <point x="704" y="541"/>
      <point x="745" y="679"/>
      <point x="786" y="824" type="curve" smooth="no"/>
      <point x="684" y="824" type="line" smooth="no"/>
    </contour>
  </outline>
</glyph>
<glyph name="w" format="1">
  <advance width="1835"/>
  <unicode hex="0077"/>
  <outline>
    <contour>
      <point x="1297" y="824" type="line" smooth="no"/>
      <point x="1305" y="855"/>
      <point x="1313" y="955"/>
      <point x="1317" y="972" type="curve" smooth="no"/>
      <point x="1421" y="987"/>
      <point x="1505" y="994"/>
      <point x="1570" y="994" type="curve" smooth="yes"/>
      <point x="1635" y="994"/>
      <point x="1721" y="987"/>
      <point x="1830" y="972" type="curve" smooth="no"/>
      <point x="1830" y="824" type="line" smooth="no"/>
      <point x="1700" y="824" type="line" smooth="no"/>
      <point x="1625" y="536"/>
      <point x="1545" y="261"/>
      <point x="1459" y="0" type="curve" smooth="no"/>
      <point x="1402" y="-7"/>
      <point x="1351" y="-10"/>
      <point x="1306" y="-10" type="curve" smooth="yes"/>
      <point x="1239" y="-10"/>
      <point x="1170" y="-7"/>
      <point x="1098" y="0" type="curve" smooth="no"/>
      <point x="933" y="509" type="line" smooth="no"/>
      <point x="872" y="297"/>
      <point x="820" y="127"/>
      <point x="777" y="0" type="curve" smooth="no"/>
      <point x="720" y="-7"/>
      <point x="669" y="-10"/>
      <point x="624" y="-10" type="curve" smooth="yes"/>
      <point x="557" y="-10"/>
      <point x="488" y="-7"/>
      <point x="416" y="0" type="curve" smooth="no"/>
      <point x="99" y="824" type="line" smooth="no"/>
      <point x="-27" y="824" type="line" smooth="no"/>
      <point x="-27" y="972" type="line" smooth="no"/>
      <point x="81" y="987"/>
      <point x="175" y="994"/>
      <point x="256" y="994" type="curve" smooth="yes"/>
      <point x="359" y="994"/>
      <point x="464" y="987"/>
      <point x="572" y="972" type="curve" smooth="no"/>
      <point x="582" y="937"/>
      <point x="590" y="888"/>
      <point x="596" y="824" type="curve" smooth="no"/>
      <point x="520" y="824" type="line" smooth="no"/>
      <point x="524" y="814"/>
      <point x="562" y="676"/>
      <point x="633" y="410" type="curve" smooth="no"/>
      <point x="789" y="910" type="line" smooth="yes"/>
      <point x="808" y="968"/>
      <point x="866" y="983"/>
      <point x="943" y="983" type="curve" smooth="yes"/>
      <point x="1066" y="983"/>
      <point x="1121" y="978"/>
      <point x="1154" y="882" type="curve" smooth="no"/>
      <point x="1305" y="410" type="line" smooth="no"/>
      <point x="1398" y="824" type="line" smooth="no"/>
    </contour>
  </outline>
</glyph>
<glyph name="x" format="1">
  <advance width="1386"/>
  <unicode hex="0078"/>
  <outline>
    <contour>
      <point x="29" y="972" type="line"/>
      <point x="190" y="994"/>
      <point x="314" y="994" type="qcurve" smooth="yes"/>
      <point x="476" y="994"/>
      <point x="658" y="972" type="qcurve"/>
      <point x="673" y="920"/>
      <point x="682" y="824" type="qcurve"/>
      <point x="616" y="824" type="line"/>
      <point x="749" y="630" type="line"/>
      <point x="892" y="824" type="line"/>
      <point x="801" y="824" type="line"/>
      <point x="821" y="972" type="line"/>
      <point x="983" y="994"/>
      <point x="1181" y="994"/>
      <point x="1344" y="972" type="qcurve"/>
      <point x="1344" y="824" type="line"/>
      <point x="1202" y="824" type="line"/>
      <point x="961" y="517" type="line"/>
      <point x="1251" y="147" type="line"/>
      <point x="1374" y="147" type="line"/>
      <point x="1374" y="-11" type="line"/>
      <point x="1065" y="10"/>
      <point x="715" y="-11" type="qcurve"/>
      <point x="711" y="7"/>
      <point x="705" y="30"/>
      <point x="703" y="45" type="qcurve" smooth="yes"/>
      <point x="695" y="102"/>
      <point x="691" y="147" type="qcurve"/>
      <point x="770" y="147" type="line"/>
      <point x="614" y="363" type="line"/>
      <point x="458" y="147" type="line"/>
      <point x="562" y="147" type="line"/>
      <point x="557" y="125"/>
      <point x="550" y="61" type="qcurve" smooth="yes"/>
      <point x="542" y="-11" type="line"/>
      <point x="377" y="0"/>
      <point x="213" y="0"/>
      <point x="19" y="-11" type="qcurve"/>
      <point x="19" y="147" type="line"/>
      <point x="146" y="147" type="line"/>
      <point x="411" y="472" type="line"/>
      <point x="167" y="824" type="line"/>
      <point x="29" y="824" type="line"/>
    </contour>
  </outline>
</glyph>
<glyph name="y" format="1">
  <advance width="1271"/>
  <unicode hex="0079"/>
  <outline>
    <contour>
      <point x="-19" y="972" type="line" smooth="no"/>
      <point x="88" y="987"/>
      <point x="183" y="994"/>
      <point x="264" y="994" type="curve" smooth="yes"/>
      <point x="368" y="994"/>
      <point x="477" y="987"/>
      <point x="590" y="972" type="curve" smooth="no"/>
      <point x="600" y="937"/>
      <point x="608" y="888"/>
      <point x="614" y="824" type="curve" smooth="no"/>
      <point x="538" y="824" type="line" smooth="no"/>
      <point x="682" y="393" type="line" smooth="no"/>
      <point x="733" y="562"/>
      <point x="773" y="706"/>
      <point x="804" y="824" type="curve" smooth="no"/>
      <point x="702" y="824" type="line" smooth="no"/>
      <point x="723" y="972" type="line" smooth="no"/>
      <point x="836" y="987"/>
      <point x="926" y="994"/>
      <point x="993" y="994" type="curve" smooth="yes"/>
      <point x="1060" y="994"/>
      <point x="1147" y="987"/>
      <point x="1256" y="972" type="curve" smooth="no"/>
      <point x="1256" y="824" type="line" smooth="no"/>
      <point x="1125" y="824" type="line" smooth="no"/>
      <point x="836" y="11" type="line" smooth="no"/>
      <point x="740" y="-254"/>
      <point x="630" y="-377"/>
      <point x="289" y="-377" type="curve" smooth="yes"/>
      <point x="194" y="-377"/>
      <point x="112" y="-365"/>
      <point x="45" y="-340" type="curve" smooth="no"/>
      <point x="91" y="-169" type="line" smooth="no"/>
      <point x="176" y="-201"/>
      <point x="252" y="-217"/>
      <point x="319" y="-217" type="curve" smooth="yes"/>
      <point x="389" y="-218"/>
      <point x="435" y="-171"/>
      <point x="456" y="-76" type="curve" smooth="yes"/>
      <point x="461" y="-51"/>
      <point x="466" y="-25"/>
      <point x="470" y="1" type="curve" smooth="no"/>
      <point x="109" y="824" type="line" smooth="no"/>
      <point x="-19" y="824" type="line" smooth="no"/>
    </contour>
  </outline>
</glyph>
<glyph name="z" format="1">
  <advance width="1063"/>
  <unicode hex="007A"/>
  <outline>
    <contour>
      <point x="246" y="0" type="line"/>
      <point x="146" y="2"/>
      <point x="121" y="9" type="qcurve" smooth="yes"/>
      <point x="54" y="28"/>
      <point x="54" y="99" type="qcurve" smooth="yes"/>
      <point x="54" y="202" type="line"/>
      <point x="619" y="824" type="line"/>
      <point x="324" y="824" type="line" smooth="yes"/>
      <point x="283" y="824"/>
      <point x="270" y="808" type="qcurve" smooth="yes"/>
      <point x="245" y="776"/>
      <point x="243" y="646" type="qcurve"/>
      <point x="70" y="636" type="line"/>
      <point x="70" y="984" type="line"/>
      <point x="904" y="984" type="line" smooth="yes"/>
      <point x="1002" y="984"/>
      <point x="1012" y="928" type="qcurve" smooth="yes"/>
      <point x="1015" y="910"/>
      <point x="1015" y="889" type="qcurve" smooth="yes"/>
      <point x="1015" y="753" type="line"/>
      <point x="490" y="164" type="line"/>
      <point x="762" y="164" type="line" smooth="yes"/>
      <point x="814" y="164"/>
      <point x="848" y="268" type="qcurve" smooth="yes"/>
      <point x="860" y="306"/>
      <point x="877" y="360" type="qcurve"/>
      <point x="1019" y="368" type="line"/>
      <point x="1019" y="0" type="line"/>
    </contour>
  </outline>
</glyph>
<glyph name="braceleft" format="1">
  <advance width="772"/>
  <unicode hex="007B"/>
  <outline>
    <contour>
      <point x="401" y="631" type="qcurve"/>
      <point x="536" y="559"/>
      <point x="536" y="412" type="qcurve" smooth="yes"/>
      <point x="536" y="42" type="line" smooth="yes"/>
      <point x="536" y="-73"/>
      <point x="541" y="-73" type="qcurve"/>
      <point x="586" y="-86"/>
      <point x="723" y="-100" type="qcurve"/>
      <point x="723" y="-133" type="line" smooth="yes"/>
      <point x="723" y="-211"/>
      <point x="520" y="-211" type="qcurve" smooth="yes"/>
      <point x="344" y="-212"/>
      <point x="264" y="-162" type="qcurve" smooth="yes"/>
      <point x="166" y="-102"/>
      <point x="166" y="43" type="qcurve" smooth="yes"/>
      <point x="166" y="405" type="line" smooth="yes"/>
      <point x="166" y="484"/>
      <point x="149" y="514" type="qcurve" smooth="yes"/>
      <point x="119" y="567"/>
      <point x="53" y="582" type="qcurve"/>
      <point x="53" y="688" type="line"/>
      <point x="156" y="698"/>
      <point x="164" y="831" type="qcurve" smooth="yes"/>
      <point x="166" y="866"/>
      <point x="166" y="896" type="qcurve" smooth="yes"/>
      <point x="166" y="1231" type="line" smooth="yes"/>
      <point x="166" y="1433"/>
      <point x="379" y="1465" type="qcurve" smooth="yes"/>
      <point x="446" y="1475"/>
      <point x="568" y="1475"/>
      <point x="602.5" y="1473" type="qcurve" smooth="yes"/>
      <point x="636" y="1471"/>
      <point x="662" y="1463" type="qcurve" smooth="yes"/>
      <point x="717" y="1446"/>
      <point x="723" y="1398" type="qcurve"/>
      <point x="723" y="1361" type="line"/>
      <point x="615" y="1354"/>
      <point x="587" y="1337" type="qcurve" smooth="yes"/>
      <point x="536" y="1306"/>
      <point x="536" y="1222" type="qcurve" smooth="yes"/>
      <point x="536" y="853" type="line" smooth="yes"/>
      <point x="536" y="701"/>
    </contour>
  </outline>
</glyph>
<glyph name="bar" format="1">
  <advance width="1107"/>
  <unicode hex="007C"/>
  <outline>
    <contour>
      <point x="525" y="1412" type="line" smooth="yes"/>
      <point x="611" y="1412"/>
      <point x="707" y="1353"/>
      <point x="707" y="1282" type="qcurve" smooth="yes"/>
      <point x="707" y="-225" type="line"/>
      <point x="580" y="-225" type="line" smooth="yes"/>
      <point x="474" y="-226"/>
      <point x="436" y="-184" type="qcurve" smooth="yes"/>
      <point x="398" y="-143"/>
      <point x="399" y="-31" type="qcurve" smooth="yes"/>
      <point x="399" y="1412" type="line"/>
    </contour>
  </outline>
</glyph>
<glyph name="braceright" format="1">
  <advance width="767"/>
  <unicode hex="007d"/>
  <outline>
    <contour>
      <point x="718" y="582" type="line" smooth="no"/>
      <point x="630" y="561"/>
      <point x="608" y="506"/>
      <point x="605" y="405" type="curve" smooth="no"/>
      <point x="605" y="43" type="line" smooth="yes"/>
      <point x="605" y="-96"/>
      <point x="535" y="-177"/>
      <point x="396" y="-200" type="curve" smooth="yes"/>
      <point x="306" y="-214"/>
      <point x="218" y="-219"/>
      <point x="136" y="-200" type="curve" smooth="yes"/>
      <point x="77" y="-187"/>
      <point x="48" y="-165"/>
      <point x="48" y="-133" type="curve" smooth="yes"/>
      <point x="48" y="-100" type="line" smooth="no"/>
      <point x="139" y="-91"/>
      <point x="200" y="-82"/>
      <point x="230" y="-73" type="curve" smooth="yes"/>
      <point x="233" y="-73"/>
      <point x="235" y="-35"/>
      <point x="235" y="42" type="curve" smooth="yes"/>
      <point x="235" y="412" type="line" smooth="yes"/>
      <point x="235" y="510"/>
      <point x="280" y="583"/>
      <point x="370" y="631" type="curve" smooth="no"/>
      <point x="280" y="678"/>
      <point x="235" y="752"/>
      <point x="235" y="853" type="curve" smooth="yes"/>
      <point x="235" y="1222" type="line" smooth="yes"/>
      <point x="235" y="1344"/>
      <point x="179" y="1353"/>
      <point x="48" y="1361" type="curve" smooth="no"/>
      <point x="48" y="1398" type="line" smooth="no"/>
      <point x="57" y="1473"/>
      <point x="158" y="1475"/>
      <point x="264" y="1475" type="curve" smooth="yes"/>
      <point x="352" y="1475"/>
      <point x="448" y="1461"/>
      <point x="506" y="1428" type="curve" smooth="yes"/>
      <point x="571" y="1391"/>
      <point x="604" y="1325"/>
      <point x="605" y="1231" type="curve" smooth="no"/>
      <point x="605" y="896" type="line" smooth="no"/>
      <point x="606" y="776"/>
      <point x="624" y="697"/>
      <point x="718" y="688" type="curve" smooth="no"/>
    </contour>
  </outline>
</glyph>
<glyph name="asciitilde" format="1">
  <advance width="1159"/>
  <unicode hex="007E"/>
  <outline>
    <contour>
      <point x="1004" y="645" type="qcurve"/>
      <point x="1054" y="580"/>
      <point x="1068" y="543" type="qcurve"/>
      <point x="1036" y="438"/>
      <point x="910" y="404" type="qcurve" smooth="yes"/>
      <point x="870" y="394"/>
      <point x="794" y="394"/>
      <point x="741" y="400"/>
      <point x="714" y="407" type="qcurve" smooth="yes"/>
      <point x="661" y="421"/>
      <point x="533" y="477"/>
      <point x="457" y="508"/>
      <point x="430" y="516" type="qcurve" smooth="yes"/>
      <point x="383" y="530"/>
      <point x="352" y="530" type="qcurve" smooth="yes"/>
      <point x="248" y="530"/>
      <point x="167" y="398" type="qcurve"/>
      <point x="107" y="458"/>
      <point x="91" y="495" type="qcurve"/>
      <point x="109" y="565"/>
      <point x="266" y="671"/>
      <point x="332" y="671" type="qcurve" smooth="yes"/>
      <point x="447" y="671"/>
      <point x="608" y="599"/>
      <point x="649.5" y="581.5" type="qcurve" smooth="yes"/>
      <point x="690" y="564"/>
      <point x="718" y="554" type="qcurve" smooth="yes"/>
      <point x="762" y="538"/>
      <point x="870" y="538"/>
      <point x="976" y="597"/>
    </contour>
  </outline>
</glyph>
<glyph name="exclamdown" format="1">
  <advance width="791"/>
  <unicode hex="00a1"/>
  <outline>
    <contour>
      <point x="210" y="1221" type="curve" smooth="yes"/>
      <point x="210" y="1339"/>
      <point x="288" y="1412"/>
      <point x="410" y="1412" type="curve" smooth="yes"/>
      <point x="530" y="1412"/>
      <point x="610" y="1343"/>
      <point x="610" y="1223" type="curve" smooth="yes"/>
      <point x="610" y="1110"/>
      <point x="522" y="1034"/>
      <point x="410" y="1033" type="curve" smooth="yes"/>
      <point x="297" y="1032"/>
      <point x="210" y="1108"/>
    </contour>
    <contour>
      <point x="412" y="-22" type="curve" smooth="yes"/>
      <point x="303" y="-22"/>
      <point x="166" y="-17"/>
      <point x="166" y="93" type="curve" smooth="yes"/>
      <point x="166" y="122"/>
      <point x="183" y="237"/>
      <point x="217" y="439" type="curve" smooth="yes"/>
      <point x="238" y="562"/>
      <point x="256" y="696"/>
      <point x="272" y="843" type="curve" smooth="no"/>
      <point x="281" y="939"/>
      <point x="332" y="942"/>
      <point x="434" y="942" type="curve" smooth="yes"/>
      <point x="465" y="942"/>
      <point x="493" y="935"/>
      <point x="518" y="920" type="curve" smooth="no"/>
      <point x="530" y="820"/>
      <point x="557" y="602"/>
      <point x="600" y="266" type="curve" smooth="yes"/>
      <point x="613" y="167"/>
      <point x="619" y="114"/>
      <point x="619" y="109" type="curve" smooth="yes"/>
      <point x="619" y="94" type="line" smooth="yes"/>
      <point x="619" y="-14"/>
      <point x="523" y="-22"/>
    </contour>
  </outline>
</glyph>
<glyph name="cent" format="1">
  <advance width="1192"/>
  <unicode hex="00a2"/>
  <outline>
    <contour>
      <point x="622" y="815" type="line" smooth="no"/>
      <point x="554" y="768"/>
      <point x="520" y="663"/>
      <point x="520" y="502" type="curve" smooth="yes"/>
      <point x="520" y="341"/>
      <point x="554" y="234"/>
      <point x="622" y="179" type="curve" smooth="no"/>
    </contour>
    <contour>
      <point x="644" y="1278" type="line" smooth="yes"/>
      <point x="734" y="1278"/>
      <point x="758" y="1264"/>
      <point x="759" y="1183" type="curve" smooth="no"/>
      <point x="759" y="1003" type="line" smooth="no"/>
      <point x="915" y="992"/>
      <point x="1037" y="948"/>
      <point x="1124" y="872" type="curve" smooth="no"/>
      <point x="1107" y="674" type="line" smooth="no"/>
      <point x="836" y="674" type="line" smooth="no"/>
      <point x="807" y="731"/>
      <point x="781" y="772"/>
      <point x="759" y="797" type="curve" smooth="no"/>
      <point x="759" y="148" type="line" smooth="no"/>
      <point x="862" y="150"/>
      <point x="976" y="189"/>
      <point x="1099" y="265" type="curve" smooth="no"/>
      <point x="1116" y="105" type="line" smooth="no"/>
      <point x="1019" y="34"/>
      <point x="900" y="-8"/>
      <point x="759" y="-19" type="curve" smooth="no"/>
      <point x="759" y="-290" type="line" smooth="no"/>
      <point x="736" y="-290" type="line" smooth="yes"/>
      <point x="641" y="-290"/>
      <point x="622" y="-279"/>
      <point x="622" y="-190" type="curve" smooth="yes"/>
      <point x="622" y="-19" type="line" smooth="no"/>
      <point x="319" y="0"/>
      <point x="94" y="176"/>
      <point x="94" y="486" type="curve" smooth="yes"/>
      <point x="94" y="797"/>
      <point x="323" y="974"/>
      <point x="622" y="1001" type="curve" smooth="no"/>
      <point x="622" y="1278" type="line" smooth="no"/>
    </contour>
  </outline>
</glyph>
<glyph name="sterling" format="1">
  <advance width="1255"/>
  <unicode hex="00A3"/>
  <outline>
    <contour>
      <point x="641" y="632" type="line"/>
      <point x="646" y="527"/>
      <point x="646" y="457"/>
      <point x="633" y="372"/>
      <point x="620" y="332" type="qcurve" smooth="yes"/>
      <point x="596" y="257"/>
      <point x="545" y="167" type="qcurve"/>
      <point x="681" y="167" type="line" smooth="yes"/>
      <point x="832" y="167"/>
      <point x="900" y="234" type="qcurve" smooth="yes"/>
      <point x="955" y="288"/>
      <point x="1000" y="441" type="qcurve"/>
      <point x="1207" y="419" type="line"/>
      <point x="1207" y="265"/>
      <point x="1178" y="21" type="qcurve"/>
      <point x="951" y="0"/>
      <point x="667" y="0" type="qcurve" smooth="yes"/>
      <point x="78" y="0" type="line"/>
      <point x="41" y="64"/>
      <point x="41" y="144" type="qcurve"/>
      <point x="142" y="173"/>
      <point x="177" y="208" type="qcurve" smooth="yes"/>
      <point x="243" y="272"/>
      <point x="243" y="467"/>
      <point x="232" y="632" type="qcurve"/>
      <point x="40" y="632" type="line"/>
      <point x="40" y="705" type="line" smooth="yes"/>
      <point x="40" y="776"/>
      <point x="111" y="783" type="qcurve" smooth="yes"/>
      <point x="132" y="785"/>
      <point x="155" y="785" type="qcurve" smooth="yes"/>
      <point x="212" y="785" type="line"/>
      <point x="187" y="960"/>
      <point x="187" y="1148"/>
      <point x="271" y="1289"/>
      <point x="343" y="1332" type="qcurve" smooth="yes"/>
      <point x="477" y="1412"/>
      <point x="713" y="1412" type="qcurve" smooth="yes"/>
      <point x="1022" y="1412"/>
      <point x="1198" y="1287" type="qcurve"/>
      <point x="1198" y="973" type="line"/>
      <point x="952" y="948" type="line"/>
      <point x="900" y="1100"/>
      <point x="792" y="1241"/>
      <point x="724" y="1241" type="qcurve" smooth="yes"/>
      <point x="605" y="1241"/>
      <point x="605" y="1031" type="qcurve" smooth="yes"/>
      <point x="605" y="974"/>
      <point x="623" y="785" type="qcurve"/>
      <point x="933" y="785" type="line"/>
      <point x="933" y="712" type="line" smooth="yes"/>
      <point x="933" y="632"/>
      <point x="841" y="632" type="qcurve" smooth="yes"/>
    </contour>
  </outline>
</glyph>
<glyph name="currency" format="1">
  <advance width="1288"/>
  <unicode hex="00A4"/>
  <outline>
    <contour>
      <point x="282" y="730" type="qcurve" smooth="yes"/>
      <point x="282" y="660"/>
      <point x="332" y="542"/>
      <point x="376" y="499" type="qcurve" smooth="yes"/>
      <point x="468" y="408"/>
      <point x="601" y="408" type="qcurve" smooth="yes"/>
      <point x="737" y="408"/>
      <point x="829" y="502" type="qcurve" smooth="yes"/>
      <point x="921" y="595"/>
      <point x="921" y="731" type="qcurve" smooth="yes"/>
      <point x="921" y="868"/>
      <point x="737" y="1056"/>
      <point x="601" y="1055.5" type="qcurve" smooth="yes"/>
      <point x="465" y="1054"/>
      <point x="374" y="962" type="qcurve" smooth="yes"/>
      <point x="282" y="868"/>
    </contour>
    <contour>
      <point x="330" y="1093" type="line"/>
      <point x="452" y="1184"/>
      <point x="744" y="1184"/>
      <point x="869" y="1092" type="qcurve"/>
      <point x="1001" y="1224" type="line"/>
      <point x="1039" y="1186"/>
      <point x="1071" y="1147"/>
      <point x="1071" y="1110"/>
      <point x="1070" y="1108" type="qcurve" smooth="yes"/>
      <point x="963" y="1002" type="line"/>
      <point x="1053" y="885"/>
      <point x="1053" y="574"/>
      <point x="962" y="462" type="qcurve"/>
      <point x="1092" y="330" type="line"/>
      <point x="1026" y="264"/>
      <point x="998" y="252" type="qcurve"/>
      <point x="969" y="263"/>
      <point x="886" y="354"/>
      <point x="871" y="369" type="qcurve"/>
      <point x="747" y="279"/>
      <point x="450" y="279"/>
      <point x="331" y="369" type="qcurve"/>
      <point x="200" y="240" type="line"/>
      <point x="133" y="304"/>
      <point x="120" y="328" type="qcurve"/>
      <point x="133" y="356"/>
      <point x="158" y="381" type="qcurve" smooth="yes"/>
      <point x="240" y="462" type="line"/>
      <point x="150" y="576"/>
      <point x="150" y="886"/>
      <point x="240" y="1000" type="qcurve"/>
      <point x="107" y="1131" type="line"/>
      <point x="130" y="1152"/>
      <point x="177" y="1200"/>
      <point x="200" y="1210" type="qcurve"/>
      <point x="231" y="1192"/>
      <point x="250" y="1173" type="qcurve" smooth="yes"/>
    </contour>
  </outline>
</glyph>
<glyph name="yen" format="1">
  <advance width="1567"/>
  <unicode hex="00A5"/>
  <outline>
    <contour>
      <point x="1213" y="-11" type="line"/>
      <point x="967" y="0"/>
      <point x="662" y="0"/>
      <point x="396" y="-11" type="qcurve"/>
      <point x="396" y="147" type="line"/>
      <point x="582" y="147" type="line"/>
      <point x="587" y="182"/>
      <point x="587" y="217" type="qcurve" smooth="yes"/>
      <point x="587" y="266" type="line"/>
      <point x="236" y="266" type="line"/>
      <point x="236" y="341" type="line"/>
      <point x="270" y="381"/>
      <point x="363" y="413"/>
      <point x="440" y="413" type="qcurve" smooth="yes"/>
      <point x="585" y="413" type="line"/>
      <point x="585" y="514" type="line"/>
      <point x="236" y="514" type="line"/>
      <point x="236" y="590" type="line"/>
      <point x="300" y="662"/>
      <point x="437" y="662" type="qcurve" smooth="yes"/>
      <point x="496" y="662" type="line"/>
      <point x="390" y="837"/>
      <point x="244" y="1072"/>
      <point x="206" y="1140" type="qcurve" smooth="yes"/>
      <point x="164" y="1215" type="line"/>
      <point x="17" y="1215" type="line"/>
      <point x="-7" y="1387" type="line"/>
      <point x="197" y="1399"/>
      <point x="626" y="1399"/>
      <point x="749" y="1387" type="qcurve"/>
      <point x="764" y="1215" type="line"/>
      <point x="636" y="1215" type="line"/>
      <point x="663" y="1138"/>
      <point x="668" y="1128" type="qcurve" smooth="yes"/>
      <point x="876" y="752" type="line"/>
      <point x="1052" y="1123" type="line" smooth="yes"/>
      <point x="1063" y="1147"/>
      <point x="1074" y="1215" type="qcurve"/>
      <point x="918" y="1215" type="line"/>
      <point x="953" y="1387" type="line"/>
      <point x="1077" y="1399"/>
      <point x="1240" y="1399" type="qcurve" smooth="yes"/>
      <point x="1314" y="1399" type="line" smooth="yes"/>
      <point x="1432" y="1399"/>
      <point x="1569" y="1387" type="qcurve"/>
      <point x="1545" y="1215" type="line"/>
      <point x="1398" y="1215" type="line"/>
      <point x="1385" y="1199"/>
      <point x="1352" y="1123" type="qcurve"/>
      <point x="1301" y="1032"/>
      <point x="1213" y="869" type="qcurve" smooth="yes"/>
      <point x="1101" y="662" type="line"/>
      <point x="1361" y="662" type="line"/>
      <point x="1361" y="596" type="line" smooth="yes"/>
      <point x="1362" y="530"/>
      <point x="1296" y="519" type="qcurve" smooth="yes"/>
      <point x="1278" y="516"/>
      <point x="1258" y="514" type="qcurve"/>
      <point x="1020" y="514" type="line"/>
      <point x="1020" y="413" type="line"/>
      <point x="1361" y="413" type="line"/>
      <point x="1361" y="348" type="line" smooth="yes"/>
      <point x="1361" y="301"/>
      <point x="1308" y="268"/>
      <point x="1265" y="266" type="qcurve"/>
      <point x="1020" y="266" type="line"/>
      <point x="1020" y="239" type="line" smooth="yes"/>
      <point x="1020" y="195"/>
      <point x="1025" y="147" type="qcurve"/>
      <point x="1213" y="147" type="line"/>
    </contour>
  </outline>
</glyph>
<glyph name="brokenbar" format="1">
  <advance width="1150"/>
  <unicode hex="00a6"/>
  <outline>
    <contour>
      <point x="566" y="378" type="line" smooth="yes"/>
      <point x="663" y="378"/>
      <point x="727" y="366"/>
      <point x="750" y="298" type="curve" smooth="no"/>
      <point x="750" y="-405" type="line" smooth="no"/>
      <point x="542" y="-405" type="line" smooth="no"/>
      <point x="462" y="-404"/>
      <point x="407" y="-394"/>
      <point x="404" y="-333" type="curve" smooth="yes"/>
      <point x="403" y="-315"/>
      <point x="402" y="-301"/>
      <point x="402" y="-292" type="curve" smooth="yes"/>
      <point x="402" y="378" type="line" smooth="no"/>
    </contour>
    <contour>
      <point x="566" y="1448" type="line" smooth="yes"/>
      <point x="662" y="1448"/>
      <point x="727" y="1435"/>
      <point x="750" y="1367" type="curve" smooth="no"/>
      <point x="750" y="664" type="line" smooth="no"/>
      <point x="584" y="664" type="line" smooth="yes"/>
      <point x="500" y="664"/>
      <point x="447" y="673"/>
      <point x="424" y="692" type="curve" smooth="yes"/>
      <point x="402" y="710"/>
      <point x="402" y="744"/>
      <point x="402" y="778" type="curve" smooth="yes"/>
      <point x="402" y="1448" type="line" smooth="no"/>
    </contour>
  </outline>
</glyph>
<glyph name="section" format="1">
  <advance width="975"/>
  <unicode hex="00A7"/>
  <outline>
    <contour>
      <point x="398" y="876" type="qcurve"/>
      <point x="350" y="848"/>
      <point x="298" y="784"/>
      <point x="298" y="709"/>
      <point x="314" y="670"/>
      <point x="330" y="654" type="qcurve" smooth="yes"/>
      <point x="357" y="627"/>
      <point x="432" y="588" type="qcurve" smooth="yes"/>
      <point x="508" y="548" type="line" smooth="yes"/>
      <point x="555" y="522"/>
      <point x="613" y="499" type="qcurve"/>
      <point x="721" y="557"/>
      <point x="721" y="643" type="qcurve" smooth="yes"/>
      <point x="721" y="723"/>
      <point x="535" y="809" type="qcurve"/>
      <point x="428" y="856"/>
    </contour>
    <contour>
      <point x="111" y="-15" type="qcurve"/>
      <point x="111" y="152"/>
      <point x="105" y="228" type="qcurve"/>
      <point x="234" y="228" type="line"/>
      <point x="270" y="117"/>
      <point x="328" y="68" type="qcurve" smooth="yes"/>
      <point x="393" y="14"/>
      <point x="509" y="14" type="qcurve" smooth="yes"/>
      <point x="640" y="14"/>
      <point x="682" y="92" type="qcurve" smooth="yes"/>
      <point x="696" y="118"/>
      <point x="696" y="174"/>
      <point x="678" y="211"/>
      <point x="654" y="230" type="qcurve" smooth="yes"/>
      <point x="610" y="266"/>
      <point x="490" y="323" type="qcurve" smooth="yes"/>
      <point x="351" y="389" type="line" smooth="yes"/>
      <point x="242" y="441"/>
      <point x="198" y="485" type="qcurve" smooth="yes"/>
      <point x="107" y="579"/>
      <point x="107" y="709" type="qcurve" smooth="yes"/>
      <point x="107" y="803"/>
      <point x="181" y="919"/>
      <point x="253" y="957" type="qcurve"/>
      <point x="194" y="1004"/>
      <point x="174" y="1044" type="qcurve" smooth="yes"/>
      <point x="140" y="1112"/>
      <point x="140" y="1275"/>
      <point x="204" y="1392"/>
      <point x="258" y="1430" type="qcurve" smooth="yes"/>
      <point x="362" y="1502"/>
      <point x="545" y="1501" type="qcurve" smooth="yes"/>
      <point x="698" y="1502"/>
      <point x="806" y="1442" type="qcurve" smooth="yes"/>
      <point x="832" y="1428"/>
      <point x="844" y="1418" type="qcurve"/>
      <point x="823" y="1212" type="line"/>
      <point x="709" y="1212" type="line"/>
      <point x="678" y="1292"/>
      <point x="647" y="1316" type="qcurve" smooth="yes"/>
      <point x="594" y="1356"/>
      <point x="501" y="1356" type="qcurve" smooth="yes"/>
      <point x="334" y="1356"/>
      <point x="334" y="1227" type="qcurve" smooth="yes"/>
      <point x="334" y="1138"/>
      <point x="449" y="1080" type="qcurve" smooth="yes"/>
      <point x="486" y="1062"/>
      <point x="645" y="990"/>
      <point x="792" y="911"/>
      <point x="835" y="872" type="qcurve" smooth="yes"/>
      <point x="912" y="802"/>
      <point x="912" y="682" type="qcurve" smooth="yes"/>
      <point x="912" y="500"/>
      <point x="773" y="420" type="qcurve"/>
      <point x="894" y="332"/>
      <point x="894" y="186" type="qcurve" smooth="yes"/>
      <point x="894" y="25"/>
      <point x="778" y="-58" type="qcurve" smooth="yes"/>
      <point x="673" y="-133"/>
      <point x="490" y="-133" type="qcurve" smooth="yes"/>
      <point x="332" y="-133"/>
      <point x="184" y="-65" type="qcurve" smooth="yes"/>
      <point x="136" y="-43"/>
    </contour>
  </outline>
</glyph>
<glyph name="dieresis" format="1">
  <advance width="1240"/>
  <unicode hex="00A8"/>
  <outline>
    <contour>
      <point x="942" y="1100"/>
      <point x="792" y="1100"/>
      <point x="702" y="1184"/>
      <point x="702" y="1257" type="qcurve" smooth="yes"/>
      <point x="702" y="1362"/>
      <point x="802" y="1400" type="qcurve" smooth="yes"/>
      <point x="832" y="1412"/>
      <point x="903" y="1412"/>
      <point x="964" y="1389"/>
      <point x="986" y="1369" type="qcurve" smooth="yes"/>
      <point x="1032" y="1326"/>
      <point x="1032" y="1184"/>
    </contour>
    <contour>
      <point x="447" y="1100"/>
      <point x="297" y="1100"/>
      <point x="207" y="1184"/>
      <point x="207" y="1257" type="qcurve" smooth="yes"/>
      <point x="206" y="1362"/>
      <point x="306" y="1400" type="qcurve" smooth="yes"/>
      <point x="336" y="1412"/>
      <point x="408" y="1412"/>
      <point x="438.5" y="1400.5" type="qcurve" smooth="yes"/>
      <point x="468" y="1389"/>
      <point x="490" y="1369" type="qcurve" smooth="yes"/>
      <point x="536" y="1326"/>
      <point x="537" y="1185"/>
    </contour>
  </outline>
</glyph>
